<?xml version="1.0" encoding="UTF-8" standalone="no"?>
<svg xmlns:ffdec="https://www.free-decompiler.com/flash" xmlns:xlink="http://www.w3.org/1999/xlink" ffdec:objectType="shape" height="192.15px" width="406.85px" xmlns="http://www.w3.org/2000/svg">
  <g transform="matrix(1.0, 0.0, 0.0, 1.0, 203.45, 96.05)">
    <path d="M58.1 -58.9 L58.8 -59.35 59.5 -59.8 59.65 -60.25 59.75 -61.1 59.75 -62.0 60.1 -62.4 Q63.3 -64.6 68.3 -65.1 L71.05 -65.35 Q84.6 -66.5 97.2 -64.25 97.1 -65.8 98.9 -66.8 102.45 -68.85 106.35 -70.75 L107.5 -71.2 Q119.1 -79.0 132.95 -85.1 140.2 -88.3 147.85 -90.55 166.85 -90.35 182.4 -83.4 L183.8 -82.95 184.45 -82.45 185.2 -81.6 185.45 -81.15 Q185.8 -80.95 186.25 -80.8 L188.8 -79.85 Q203.8 -74.35 203.4 -64.9 203.3 -63.5 201.85 -62.0 192.2 -51.85 177.2 -45.3 175.2 -42.15 171.8 -39.5 187.35 -33.9 200.7 -25.95 L201.8 -25.3 202.55 -24.85 Q203.7 -24.15 202.5 -23.35 L202.05 -23.15 Q201.3 -20.6 198.2 -19.95 L197.45 -18.95 Q179.55 -12.85 163.15 -5.8 107.45 11.5 44.35 17.2 26.95 18.75 10.5 16.1 L-10.0 30.65 -10.05 31.25 Q-49.55 57.0 -92.05 81.35 -103.5 87.9 -115.4 93.9 -147.2 100.7 -166.8 86.55 -172.05 82.8 -171.05 77.45 -170.15 72.6 -168.45 67.85 -168.0 66.85 -166.35 66.45 L-165.3 66.1 Q-150.25 51.8 -128.6 39.95 -98.0 23.25 -71.0 4.35 L-66.2 1.15 Q-92.6 -8.9 -118.55 -19.4 -120.95 -20.4 -120.7 -22.05 L-120.45 -22.45 -126.1 -24.9 Q-137.9 -18.95 -148.15 -11.9 -150.65 -10.2 -153.85 -10.25 L-154.05 -10.05 -155.25 -9.8 Q-176.05 -9.55 -196.75 -9.65 L-197.0 -9.65 -198.65 -9.45 Q-209.85 -18.1 -194.85 -26.7 -181.75 -34.25 -169.65 -41.55 L-169.65 -41.65 Q-169.85 -42.5 -168.75 -43.0 L-166.95 -43.55 Q-186.6 -60.45 -186.4 -82.2 -186.3 -87.95 -185.5 -93.6 L-184.7 -94.0 -180.1 -95.4 -178.5 -95.8 -177.5 -95.9 Q-173.9 -96.15 -170.55 -95.9 -161.5 -95.3 -154.5 -91.3 L-153.6 -90.85 -153.35 -90.4 -153.1 -89.95 -152.85 -89.5 Q-148.25 -87.1 -145.4 -83.8 -141.95 -79.85 -141.35 -75.45 -136.75 -67.75 -132.45 -60.05 -130.2 -65.5 -121.45 -69.65 -114.8 -72.85 -107.5 -74.75 L-96.95 -74.6 -95.25 -74.45 Q-70.6 -67.15 -74.75 -52.55 -75.5 -50.05 -78.1 -47.9 L-48.0 -48.95 Q-24.7 -49.35 -2.0 -48.65 L-1.7 -48.8 -0.7 -49.15 0.9 -49.45 0.95 -49.55 Q27.9 -48.2 54.55 -48.95 55.5 -53.8 57.85 -58.5 L58.1 -58.9 M63.05 -50.2 Q61.1 -41.75 60.45 -33.15 L59.5 -32.7 58.45 -32.35 61.45 -32.3 Q85.95 -40.2 109.4 -48.45 L109.15 -48.75 Q108.5 -49.75 108.15 -50.8 107.75 -51.95 107.5 -53.05 L106.75 -53.5 Q104.45 -54.7 102.95 -56.15 102.05 -57.0 101.5 -57.9 87.35 -63.25 69.35 -60.35 L66.95 -59.95 66.95 -59.5 Q66.95 -58.85 66.45 -58.2 L65.05 -56.85 Q63.85 -53.6 63.05 -50.2 M118.55 -47.7 L118.05 -46.75 Q91.65 -36.7 64.05 -27.9 32.55 -27.55 11.3 -42.65 L10.8 -44.0 3.25 -44.7 Q-41.55 -44.7 -86.45 -43.25 L-88.35 -43.4 Q-95.8 -37.75 -106.9 -33.4 L-118.75 -28.45 -117.35 -27.75 -113.35 -24.1 Q-112.2 -23.15 -112.75 -22.2 -86.55 -12.55 -62.35 -1.7 L-61.65 -1.95 -60.45 -2.15 Q-16.45 -2.0 27.6 -1.45 28.95 -1.45 29.3 -0.5 L29.35 -0.3 30.25 0.65 30.5 1.1 30.4 1.95 29.5 3.3 26.4 4.6 14.8 13.0 Q85.55 11.8 148.3 -6.8 L157.35 -9.15 Q175.55 -16.55 194.75 -23.1 L194.8 -23.2 195.15 -23.2 196.0 -24.15 Q162.05 -41.0 118.65 -47.95 L118.6 -48.0 118.55 -47.7 M55.9 -32.6 L54.95 -33.05 54.3 -33.5 54.0 -33.9 53.9 -41.35 54.05 -45.45 Q37.45 -42.95 20.1 -43.45 35.2 -33.9 55.9 -32.5 L56.2 -32.5 55.9 -32.6 M104.4 -62.75 L107.65 -60.8 Q115.3 -56.05 115.3 -50.15 L116.6 -49.9 Q116.95 -50.4 117.95 -50.7 L119.95 -51.2 120.0 -51.3 Q145.4 -48.35 166.8 -41.25 L168.6 -43.85 Q168.05 -44.25 168.2 -44.85 L168.4 -45.75 171.4 -47.0 171.7 -47.5 Q173.35 -48.8 175.6 -48.9 L175.6 -48.95 175.7 -48.95 Q182.7 -52.4 188.55 -56.75 195.1 -61.7 197.9 -67.55 L197.8 -67.95 196.15 -69.35 195.05 -70.2 Q190.95 -71.5 187.35 -73.35 182.3 -76.05 178.7 -79.4 162.75 -87.7 145.65 -83.05 139.6 -81.45 134.05 -79.1 124.4 -74.95 114.95 -70.35 L114.65 -69.9 112.75 -68.3 Q111.3 -67.4 109.4 -66.8 L108.0 -65.6 Q106.6 -64.05 104.4 -62.85 L104.25 -62.75 104.4 -62.75 M-178.75 -90.7 Q-181.75 -72.85 -170.05 -56.95 -165.6 -50.85 -162.7 -44.6 L-162.9 -44.15 Q-163.25 -43.55 -164.1 -43.25 -150.55 -39.95 -138.75 -34.9 L-138.0 -34.5 Q-132.5 -33.5 -127.5 -31.9 -129.15 -46.75 -139.1 -60.55 -146.55 -70.75 -151.4 -81.3 L-154.7 -83.85 Q-158.75 -87.05 -163.15 -89.95 L-169.35 -90.55 Q-174.0 -91.0 -178.75 -90.7 M-163.15 -38.6 Q-181.0 -29.8 -195.55 -19.25 -196.95 -16.45 -195.4 -13.85 -175.35 -13.7 -155.25 -13.2 -145.25 -20.95 -132.65 -27.6 -147.3 -33.65 -162.65 -39.0 L-163.15 -38.6 M-118.85 -64.9 Q-121.55 -62.7 -123.7 -60.25 -124.4 -59.5 -125.75 -59.05 L-125.9 -58.65 -126.65 -56.4 Q-126.95 -55.5 -127.9 -54.7 L-128.9 -54.3 -129.25 -54.2 -122.75 -41.9 Q-120.5 -37.45 -121.7 -33.05 L-95.15 -45.55 Q-90.85 -47.6 -87.55 -50.3 L-86.6 -50.55 -85.4 -50.7 -84.9 -50.7 -84.4 -50.95 Q-77.35 -53.8 -78.95 -58.5 -84.85 -61.45 -88.85 -64.95 -92.9 -68.5 -100.05 -70.2 -108.1 -70.5 -114.25 -67.4 -116.2 -66.45 -118.3 -65.65 L-118.85 -64.9 M-17.15 28.85 Q1.45 15.2 21.05 1.9 L-57.3 2.1 -57.85 2.7 Q-96.95 28.6 -139.45 52.5 -153.15 60.2 -161.5 69.9 -163.55 74.35 -163.45 79.1 L-163.4 83.05 Q-157.55 88.65 -146.35 89.95 -118.15 93.1 -98.0 80.95 -57.35 56.45 -20.4 30.5 -18.85 29.35 -17.15 28.85" fill="#ffffcc" fill-rule="evenodd" stroke="none"/>
    <path d="M63.05 -50.2 Q63.85 -53.6 65.05 -56.85 L66.45 -58.2 Q66.95 -58.85 66.95 -59.5 L66.95 -59.95 69.35 -60.35 Q87.35 -63.25 101.5 -57.9 102.05 -57.0 102.95 -56.15 104.45 -54.7 106.75 -53.5 L107.5 -53.05 Q107.75 -51.95 108.15 -50.8 108.5 -49.75 109.15 -48.75 L109.4 -48.45 Q85.95 -40.2 61.45 -32.3 L58.45 -32.35 59.5 -32.7 60.45 -33.15 Q61.1 -41.75 63.05 -50.2" fill="#000000" fill-rule="evenodd" stroke="none"/>
    <path d="M-178.75 -90.7 Q-174.0 -91.0 -169.35 -90.55 L-163.15 -89.95 Q-158.75 -87.05 -154.7 -83.85 L-151.4 -81.3 Q-146.55 -70.75 -139.1 -60.55 -129.15 -46.75 -127.5 -31.9 -132.5 -33.5 -138.0 -34.5 L-138.75 -34.9 Q-150.55 -39.95 -164.1 -43.25 -163.25 -43.55 -162.9 -44.15 L-162.7 -44.6 Q-165.6 -50.85 -170.05 -56.95 -181.75 -72.85 -178.75 -90.7" fill="#990099" fill-rule="evenodd" stroke="none"/>
    <path d="M55.9 -32.5 Q35.2 -33.9 20.1 -43.45 37.45 -42.95 54.05 -45.45 L53.9 -41.35 54.0 -33.9 54.3 -33.5 54.95 -33.05 55.9 -32.6 55.9 -32.5" fill="#ffff99" fill-rule="evenodd" stroke="none"/>
    <path d="M104.4 -62.85 Q106.6 -64.05 108.0 -65.6 L109.4 -66.8 Q111.3 -67.4 112.75 -68.3 L114.65 -69.9 114.95 -70.35 Q124.4 -74.95 134.05 -79.1 139.6 -81.45 145.65 -83.05 162.75 -87.7 178.7 -79.4 182.3 -76.05 187.35 -73.35 190.95 -71.5 195.05 -70.2 L196.15 -69.35 197.8 -67.95 197.9 -67.55 Q195.1 -61.7 188.55 -56.75 182.7 -52.4 175.7 -48.95 L175.6 -48.95 175.6 -48.9 Q173.35 -48.8 171.7 -47.5 L171.4 -47.0 168.4 -45.75 168.2 -44.85 Q168.05 -44.25 168.6 -43.85 L166.8 -41.25 Q145.4 -48.35 120.0 -51.3 L119.95 -51.2 117.95 -50.7 Q116.95 -50.4 116.6 -49.9 L115.3 -50.15 Q115.3 -56.05 107.65 -60.8 L104.4 -62.75 104.4 -62.85 M-17.15 28.85 Q-18.85 29.35 -20.4 30.5 -57.35 56.45 -98.0 80.95 -118.15 93.1 -146.35 89.95 -157.55 88.65 -163.4 83.05 L-163.45 79.1 Q-163.55 74.35 -161.5 69.9 -153.15 60.2 -139.45 52.5 -96.95 28.6 -57.85 2.7 L-57.3 2.1 21.05 1.9 Q1.45 15.2 -17.15 28.85 M-118.85 -64.9 L-118.3 -65.65 Q-116.2 -66.45 -114.25 -67.4 -108.1 -70.5 -100.05 -70.2 -92.9 -68.5 -88.85 -64.95 -84.85 -61.45 -78.95 -58.5 -77.35 -53.8 -84.4 -50.95 L-84.9 -50.7 -85.4 -50.7 -86.6 -50.55 -87.55 -50.3 Q-90.85 -47.6 -95.15 -45.55 L-121.7 -33.05 Q-120.5 -37.45 -122.75 -41.9 L-129.25 -54.2 -128.9 -54.3 -127.9 -54.7 Q-126.95 -55.5 -126.65 -56.4 L-125.9 -58.65 -125.75 -59.05 Q-124.4 -59.5 -123.7 -60.25 -121.55 -62.7 -118.85 -64.9 M-163.15 -38.6 L-162.65 -39.0 Q-147.3 -33.65 -132.65 -27.6 -145.25 -20.95 -155.25 -13.2 -175.35 -13.7 -195.4 -13.85 -196.95 -16.45 -195.55 -19.25 -181.0 -29.8 -163.15 -38.6" fill="#003399" fill-rule="evenodd" stroke="none"/>
    <path d="M118.65 -47.95 Q162.05 -41.0 196.0 -24.15 L195.15 -23.2 194.8 -23.2 194.75 -23.1 Q175.55 -16.55 157.35 -9.15 L148.3 -6.8 Q85.55 11.8 14.8 13.0 L26.4 4.6 29.5 3.3 30.4 1.95 30.5 1.1 30.25 0.65 29.35 -0.3 29.3 -0.5 Q28.95 -1.45 27.6 -1.45 -16.45 -2.0 -60.45 -2.15 L-61.65 -1.95 -62.35 -1.7 Q-86.55 -12.55 -112.75 -22.2 -112.2 -23.15 -113.35 -24.1 L-117.35 -27.75 -118.75 -28.45 -106.9 -33.4 Q-95.8 -37.75 -88.35 -43.4 L-86.45 -43.25 Q-41.55 -44.7 3.25 -44.7 L10.8 -44.0 11.3 -42.65 Q32.55 -27.55 64.05 -27.9 91.65 -36.7 118.05 -46.75 L118.55 -47.7 118.65 -47.95" fill="#990000" fill-rule="evenodd" stroke="none"/>
  </g>
</svg>
