<?xml version="1.0" encoding="UTF-8" standalone="no"?>
<svg xmlns:ffdec="https://www.free-decompiler.com/flash" xmlns:xlink="http://www.w3.org/1999/xlink" ffdec:objectType="shape" height="96.05px" width="145.1px" xmlns="http://www.w3.org/2000/svg">
  <g transform="matrix(1.0, 0.0, 0.0, 1.0, 47.3, 42.4)">
    <path d="M2.1 -24.45 Q-11.5 -26.25 -23.9 -31.45 -28.9 -31.1 -33.7 -29.05 -40.2 -20.15 -40.35 -8.0 -40.3 -3.45 -39.3 1.65 -38.1 7.6 -34.25 12.8 -27.95 21.3 -24.7 30.3 -22.2 32.95 -20.0 35.9 10.2 52.35 38.15 37.05 L68.75 46.2 70.5 46.5 Q84.95 44.75 89.35 31.65 90.6 27.8 90.8 24.15 90.4 15.3 83.65 7.7 L79.6 5.4 79.4 5.2 Q71.4 -2.85 68.45 -13.9 63.6 -32.15 45.1 -35.95 36.5 -34.6 28.1 -30.3 20.95 -26.65 13.05 -24.9 L2.1 -24.45 M11.65 -30.1 Q20.4 -32.0 28.3 -36.1 37.55 -40.9 47.05 -42.4 67.55 -38.0 72.95 -17.45 76.25 -5.0 85.15 4.0 L85.35 4.3 89.8 6.85 Q101.35 20.1 96.2 36.45 91.4 51.65 75.45 53.65 L73.5 53.25 39.65 42.5 Q8.8 60.2 -24.65 41.0 -27.05 37.5 -29.85 34.45 -33.45 24.0 -40.45 14.1 -44.75 8.05 -46.1 1.15 -50.3 -20.65 -40.05 -35.0 -34.75 -37.25 -29.2 -37.6 -15.45 -31.75 -0.45 -29.6 L11.65 -30.1" fill="#ce31af" fill-rule="evenodd" stroke="none"/>
    <path d="M2.1 -24.45 L13.05 -24.9 Q20.95 -26.65 28.1 -30.3 36.5 -34.6 45.1 -35.95 63.6 -32.15 68.45 -13.9 71.4 -2.85 79.4 5.2 L79.6 5.4 83.65 7.7 Q90.4 15.3 90.8 24.15 90.6 27.8 89.35 31.65 84.95 44.75 70.5 46.5 L68.75 46.2 38.15 37.05 Q10.2 52.35 -20.0 35.9 -22.2 32.95 -24.7 30.3 -27.95 21.3 -34.25 12.8 -38.1 7.6 -39.3 1.65 -40.3 -3.45 -40.35 -8.0 -40.2 -20.15 -33.7 -29.05 -28.9 -31.1 -23.9 -31.45 -11.5 -26.25 2.1 -24.45" fill="#0fb3f0" fill-rule="evenodd" stroke="none"/>
  </g>
</svg>
