<?xml version="1.0" encoding="UTF-8" standalone="no"?>
<svg xmlns:ffdec="https://www.free-decompiler.com/flash" xmlns:xlink="http://www.w3.org/1999/xlink" ffdec:objectType="shape" height="97.95px" width="151.25px" xmlns="http://www.w3.org/2000/svg">
  <g transform="matrix(1.0, 0.0, 0.0, 1.0, 50.1, 46.05)">
    <path d="M-3.85 -19.65 Q1.65 -20.2 6.7 -22.55 14.05 -25.95 20.25 -30.95 27.5 -36.85 35.6 -40.05 54.45 -40.55 63.05 -24.35 68.35 -14.6 77.85 -8.8 L78.1 -8.6 82.5 -7.35 Q95.15 1.45 93.7 16.2 92.3 30.0 78.6 34.9 L76.85 34.95 45.0 32.8 Q21.15 53.9 -11.95 44.5 L-17.75 40.1 Q-22.9 32.0 -30.95 25.15 -35.85 20.9 -38.3 15.4 -46.1 -2.05 -39.7 -16.15 -35.45 -19.1 -30.7 -20.55 -17.5 -18.4 -3.85 -19.65" fill="#0fb3f0" fill-rule="evenodd" stroke="none"/>
    <path d="M-3.85 -19.65 Q-17.5 -18.4 -30.7 -20.55 -35.45 -19.1 -39.7 -16.15 -46.1 -2.05 -38.3 15.4 -35.85 20.9 -30.95 25.15 -22.9 32.0 -17.75 40.1 L-11.95 44.5 Q21.15 53.9 45.0 32.8 L76.85 34.95 78.6 34.9 Q92.3 30.0 93.7 16.2 95.15 1.45 82.5 -7.35 L78.1 -8.6 77.85 -8.8 Q68.35 -14.6 63.05 -24.35 54.45 -40.55 35.6 -40.05 27.5 -36.85 20.25 -30.95 14.05 -25.95 6.7 -22.55 1.65 -20.2 -3.85 -19.65 M4.35 -26.65 Q12.5 -30.4 19.35 -36.0 27.3 -42.55 36.25 -46.05 57.2 -46.45 66.8 -28.25 72.7 -17.25 83.3 -10.6 L83.6 -10.4 88.4 -9.05 Q102.55 0.95 101.0 17.6 99.6 32.95 84.5 38.35 L82.5 38.4 47.2 35.8 Q20.95 59.3 -15.75 48.5 -18.85 45.75 -22.25 43.55 -28.0 34.4 -36.9 26.65 -42.4 21.9 -45.25 15.65 -53.95 -4.05 -47.05 -19.8 -42.35 -23.15 -37.05 -24.7 -22.4 -22.2 -7.3 -23.5 -1.2 -24.05 4.35 -26.65" fill="#ce31af" fill-rule="evenodd" stroke="none"/>
  </g>
</svg>
