<?xml version="1.0" encoding="UTF-8" standalone="no"?>
<svg xmlns:ffdec="https://www.free-decompiler.com/flash" xmlns:xlink="http://www.w3.org/1999/xlink" ffdec:objectType="shape" height="92.6px" width="147.0px" xmlns="http://www.w3.org/2000/svg">
  <g transform="matrix(1.0, 0.0, 0.0, 1.0, 48.3, 43.6)">
    <path d="M11.05 -25.2 Q5.75 -23.75 0.15 -24.05 -13.5 -25.0 -26.15 -29.25 -31.1 -28.65 -35.8 -26.4 -44.3 -13.5 -39.5 5.0 -37.85 10.85 -33.75 15.75 -26.95 23.85 -23.15 32.65 -20.55 35.1 -18.2 38.0 12.95 52.5 39.85 35.55 L70.9 42.75 72.75 43.0 Q87.0 40.4 90.65 27.1 94.4 12.75 83.4 2.0 L79.25 0.05 79.0 -0.15 Q70.5 -7.4 66.9 -17.9 61.05 -35.3 42.35 -37.8 33.9 -35.95 25.75 -31.35 18.8 -27.35 11.05 -25.2 M9.45 -29.65 Q18.05 -32.0 25.65 -36.4 34.6 -41.6 43.95 -43.6 64.65 -40.65 71.25 -21.1 75.25 -9.3 84.65 -1.15 L84.9 -0.85 89.5 1.3 Q101.8 13.4 97.65 29.6 93.75 44.55 77.9 47.4 L76.0 47.2 41.6 38.85 Q11.9 57.8 -22.6 41.3 -25.25 38.1 -28.15 35.25 -32.35 25.4 -39.95 16.25 -44.5 10.65 -46.3 4.05 -51.75 -16.75 -42.4 -31.25 -37.2 -33.7 -31.75 -34.35 -17.7 -29.55 -2.6 -28.45 3.5 -27.95 9.45 -29.65" fill="#ce31af" fill-rule="evenodd" stroke="none"/>
    <path d="M11.05 -25.2 Q18.8 -27.35 25.75 -31.35 33.9 -35.95 42.35 -37.8 61.05 -35.3 66.9 -17.9 70.5 -7.4 79.0 -0.15 L79.25 0.05 83.4 2.0 Q94.4 12.75 90.65 27.1 87.0 40.4 72.75 43.0 L70.9 42.75 39.85 35.55 Q12.95 52.5 -18.2 38.0 -20.55 35.1 -23.15 32.65 -26.95 23.85 -33.75 15.75 -37.85 10.85 -39.5 5.0 -44.3 -13.5 -35.8 -26.4 -31.1 -28.65 -26.15 -29.25 -13.5 -25.0 0.15 -24.05 5.75 -23.75 11.05 -25.2" fill="#0fb3f0" fill-rule="evenodd" stroke="none"/>
  </g>
</svg>
