<?xml version="1.0" encoding="UTF-8" standalone="no"?>
<svg xmlns:ffdec="https://www.free-decompiler.com/flash" xmlns:xlink="http://www.w3.org/1999/xlink" ffdec:objectType="shape" height="39.9px" width="91.0px" xmlns="http://www.w3.org/2000/svg">
  <g transform="matrix(1.0, 0.0, 0.0, 1.0, -31.45, 31.5)">
    <path d="M34.95 -31.5 L48.25 -16.85 48.7 -16.5 52.95 -25.1 54.2 -26.75 Q54.2 -28.55 55.25 -29.7 L55.95 -30.25 Q58.3 -30.85 59.45 -28.5 63.9 -14.5 65.7 -0.05 66.15 3.5 64.2 6.0 61.45 7.3 60.45 4.5 60.4 -5.85 57.8 -15.85 57.15 -18.55 55.95 -21.0 55.25 -19.75 55.35 -18.25 L55.45 -16.75 Q55.1 -15.4 54.0 -14.45 L53.45 -13.75 Q53.6 -11.45 53.0 -9.3 L52.45 -8.0 Q44.0 -11.55 37.7 -20.75 37.2 -9.25 37.2 2.25 37.2 5.9 34.95 8.25 32.3 9.0 31.45 6.5 32.1 -9.25 31.5 -25.0 31.35 -29.9 34.95 -31.5 M70.05 -11.7 Q72.3 -16.35 75.95 -18.5 82.55 -19.5 87.85 -16.1 L88.45 -15.5 88.4 -14.75 88.15 -14.05 87.6 -13.35 86.45 -12.5 Q86.45 -9.9 86.9 -7.35 87.65 -2.8 89.2 1.0 79.0 5.25 68.95 -0.5 67.45 -6.4 70.05 -11.7 M73.45 -4.75 Q75.45 -0.7 80.45 -3.75 81.4 -7.35 81.45 -11.25 L81.45 -12.75 Q80.05 -15.0 77.2 -13.0 L75.25 -10.7 74.7 -10.0 Q74.55 -7.6 73.6 -5.45 L73.45 -4.75 M93.95 -29.5 Q99.4 -28.5 95.75 -24.95 95.45 -24.65 94.95 -24.5 88.55 -26.45 93.9 -29.35 L93.95 -29.5 M95.95 -21.5 Q100.0 -16.75 98.5 -9.0 L98.45 -8.25 Q100.25 -6.7 100.4 -4.5 L100.45 -3.75 Q99.45 -0.65 96.45 -2.0 90.5 -11.35 95.3 -21.1 L95.95 -21.5 M112.7 -13.25 Q112.25 -9.95 112.6 -6.55 112.9 -3.65 111.7 -1.25 109.5 0.4 107.7 -1.75 107.2 -5.3 106.0 -8.7 105.45 -10.4 105.45 -12.25 101.45 -15.5 103.8 -18.75 104.2 -19.25 104.95 -19.5 L108.65 -17.6 Q108.8 -17.5 109.2 -17.75 113.15 -21.75 119.2 -19.0 120.75 -14.8 121.25 -10.0 121.7 -6.25 122.45 -2.5 121.1 0.2 118.45 -1.0 115.9 -3.85 115.3 -7.6 114.9 -10.05 115.45 -13.0 115.3 -15.8 112.7 -13.25" fill="#ffffcc" fill-rule="evenodd" stroke="none"/>
  </g>
</svg>
