<?xml version="1.0" encoding="UTF-8" standalone="no"?>
<svg xmlns:ffdec="https://www.free-decompiler.com/flash" xmlns:xlink="http://www.w3.org/1999/xlink" ffdec:objectType="shape" height="32.9px" width="65.0px" xmlns="http://www.w3.org/2000/svg">
  <g transform="matrix(1.0, 0.0, 0.0, 1.0, -26.5, 26.45)">
    <path d="M38.5 -14.4 L38.85 -14.1 41.85 -21.2 42.75 -22.55 Q42.75 -24.05 43.5 -24.95 L44.0 -25.4 Q45.7 -25.95 46.5 -24.0 49.7 -12.45 51.0 -0.55 51.3 2.4 49.9 4.45 47.95 5.5 47.25 3.2 47.2 -5.35 45.35 -13.55 44.85 -15.8 44.0 -17.8 43.5 -16.8 43.6 -15.55 L43.65 -14.3 Q43.4 -13.2 42.6 -12.4 L42.25 -11.8 Q42.35 -9.95 41.9 -8.15 L41.5 -7.1 Q35.45 -10.0 31.0 -17.6 30.6 -8.1 30.65 1.35 30.6 4.35 29.0 6.3 27.1 6.9 26.5 4.85 26.95 -8.1 26.55 -21.1 26.45 -25.15 29.0 -26.45 L38.5 -14.4 M54.1 -10.15 Q55.7 -14.0 58.3 -15.75 63.0 -16.6 66.8 -13.75 L67.2 -13.25 67.2 -12.65 67.0 -12.05 66.6 -11.5 65.8 -10.8 Q65.8 -8.65 66.1 -6.55 66.65 -2.8 67.75 0.35 60.45 3.85 53.3 -0.9 52.2 -5.75 54.1 -10.15 M57.8 -9.3 L57.4 -8.75 Q57.3 -6.75 56.6 -5.0 L56.5 -4.4 Q57.95 -1.1 61.5 -3.6 62.15 -6.55 62.2 -9.75 L62.2 -11.0 Q61.2 -12.85 59.2 -11.2 L57.8 -9.3 M79.0 -16.55 L81.65 -15.0 82.05 -15.1 Q84.85 -18.4 89.2 -16.15 90.25 -12.7 90.65 -8.75 90.95 -5.65 91.5 -2.55 90.55 -0.35 88.65 -1.3 86.8 -3.7 86.4 -6.75 86.1 -8.8 86.5 -11.2 86.4 -13.55 84.55 -11.4 84.2 -8.7 84.45 -5.9 84.65 -3.5 83.85 -1.5 82.25 -0.15 80.95 -1.95 80.6 -4.85 79.75 -7.65 79.35 -9.1 79.35 -10.6 76.5 -13.25 78.2 -15.95 78.45 -16.35 79.0 -16.55 M71.85 -20.7 Q67.3 -22.3 71.1 -24.7 L71.15 -24.8 Q75.05 -24.0 72.45 -21.05 L71.85 -20.7 M72.6 -18.2 Q75.45 -14.3 74.4 -7.9 L74.35 -7.3 Q75.65 -6.0 75.75 -4.2 L75.8 -3.6 Q75.05 -1.05 72.95 -2.15 68.65 -9.85 72.1 -17.9 72.2 -18.15 72.6 -18.2" fill="#ffff66" fill-rule="evenodd" stroke="none"/>
  </g>
</svg>
