<?xml version="1.0" encoding="UTF-8" standalone="no"?>
<svg xmlns:ffdec="https://www.free-decompiler.com/flash" xmlns:xlink="http://www.w3.org/1999/xlink" ffdec:objectType="shape" height="71.95px" width="107.15px" xmlns="http://www.w3.org/2000/svg">
  <g transform="matrix(1.0, 0.0, 0.0, 1.0, -29.4, 42.4)">
    <path d="M30.55 -0.1 Q29.15 -1.2 29.5 -3.0 L29.55 -3.75 Q37.3 -9.15 46.05 -12.25 49.75 -10.95 47.95 -7.45 L47.55 -6.9 40.1 -4.0 Q43.15 4.1 41.1 14.45 L40.8 15.25 Q38.6 16.8 36.8 14.75 35.5 5.25 37.55 -2.95 L30.55 -0.1 M29.45 -28.55 L29.6 -29.25 Q30.35 -30.7 31.95 -30.65 L31.95 -30.75 41.45 -30.5 40.85 -39.35 Q40.75 -40.35 41.95 -40.5 45.5 -36.0 46.45 -30.25 L51.65 -30.0 Q51.7 -36.2 53.35 -42.1 53.45 -42.35 53.95 -42.4 56.1 -36.35 57.1 -29.65 L58.15 -29.6 Q58.8 -29.55 59.45 -28.8 L59.4 -28.05 Q59.2 -26.75 57.95 -26.1 L57.55 -26.0 Q58.05 -21.0 57.95 -15.65 L57.7 -14.95 Q55.5 -13.35 53.7 -15.4 52.35 -20.2 51.9 -24.8 L46.75 -24.3 Q46.55 -21.05 45.65 -17.4 L45.2 -16.65 Q42.45 -15.4 41.45 -18.1 L41.55 -24.4 Q36.0 -24.85 30.55 -26.7 29.25 -27.2 29.45 -28.55 M73.9 -30.65 L75.2 -30.25 Q78.35 -26.6 77.9 -21.45 77.7 -19.3 76.95 -17.1 72.7 -14.4 67.45 -16.65 L66.7 -17.35 66.15 -17.75 Q64.75 -18.25 63.7 -19.3 62.15 -25.1 65.7 -29.55 67.2 -31.35 68.95 -31.7 L73.9 -30.65 M69.45 -25.9 Q67.9 -19.0 72.25 -23.85 L72.45 -24.4 Q72.2 -26.5 69.45 -26.05 L69.45 -25.9 M80.3 -2.9 Q83.1 -4.2 82.65 -7.05 82.65 -8.05 82.25 -8.25 L81.15 -8.75 Q77.45 -10.15 77.15 -6.55 L76.6 -6.15 77.65 -1.5 Q78.9 -2.3 80.3 -2.9 M73.0 -10.85 Q75.25 -13.5 78.15 -14.1 L81.15 -13.85 82.15 -13.75 85.35 -13.35 86.4 -12.9 87.3 -11.7 Q88.0 -10.4 88.0 -8.75 L88.0 -8.5 87.4 -1.95 Q84.85 1.25 81.05 2.9 79.55 3.6 78.05 3.35 78.1 9.15 76.45 15.5 L76.15 15.8 Q73.5 16.55 72.65 14.1 72.0 3.8 73.75 -5.75 L72.9 -6.55 Q72.75 -6.95 72.75 -7.3 L72.65 -9.5 72.65 -10.2 73.0 -10.85 M85.45 -26.85 L85.45 -25.65 Q87.2 -26.8 88.2 -28.7 L88.95 -29.55 Q92.0 -29.55 94.2 -26.85 93.95 -31.35 96.1 -34.75 96.45 -35.4 96.95 -35.6 101.5 -28.35 98.7 -18.45 L98.2 -17.6 Q93.35 -17.65 91.2 -22.7 88.3 -21.4 85.95 -17.35 82.9 -16.3 80.7 -18.35 79.9 -24.65 81.35 -30.65 L81.95 -31.5 Q84.3 -32.05 85.45 -29.75 L85.45 -26.85 M93.15 -12.15 L93.35 -11.7 94.35 -8.75 Q97.4 1.5 94.85 13.8 L94.4 14.6 Q91.65 15.85 90.65 13.15 89.1 0.8 92.0 -8.75 L93.0 -11.7 93.1 -11.95 93.15 -12.15 M112.1 -2.25 L113.4 -1.95 Q114.6 0.2 115.15 2.5 116.6 4.8 115.85 8.3 L115.9 9.0 Q120.25 9.6 121.65 12.9 121.4 14.2 120.1 14.75 L119.15 15.1 113.65 14.6 Q109.2 16.3 104.65 14.6 101.65 10.15 103.1 4.5 L103.9 0.75 105.35 -0.8 Q106.65 -2.25 108.15 -2.45 L112.1 -2.25 M120.15 -2.45 L123.1 -2.3 124.4 -1.95 Q125.95 -0.9 125.8 0.95 125.65 2.4 125.65 3.9 L129.95 8.3 Q131.3 0.65 134.1 -6.15 L134.15 -6.3 Q138.25 5.3 135.4 20.0 134.45 24.95 132.4 29.2 129.65 30.4 128.65 27.75 128.3 18.65 129.55 10.5 127.1 12.3 123.65 10.7 122.1 8.6 121.0 6.35 120.3 5.0 120.65 3.4 116.5 1.55 118.8 -1.4 119.45 -2.3 120.15 -2.45 M107.65 8.75 L107.65 9.5 Q109.55 11.3 110.65 9.0 L110.75 8.6 Q110.4 6.65 110.7 4.6 110.2 3.25 108.85 2.8 L108.65 2.9 Q107.7 5.7 107.65 8.75 M51.55 6.25 L51.55 8.4 51.55 9.15 Q55.05 11.3 55.55 8.15 54.95 5.2 51.55 6.25 M59.3 2.6 Q61.1 4.7 61.05 7.7 61.05 11.2 59.8 14.25 54.95 16.6 49.55 14.5 L47.3 12.3 46.55 11.6 Q46.55 9.0 46.2 6.5 45.65 2.3 49.05 1.35 L58.25 2.15 Q58.8 2.2 59.3 2.6" fill="#ffffff" fill-rule="evenodd" stroke="none"/>
  </g>
</svg>
