<?xml version="1.0" encoding="UTF-8" standalone="no"?>
<svg xmlns:ffdec="https://www.free-decompiler.com/flash" xmlns:xlink="http://www.w3.org/1999/xlink" ffdec:objectType="shape" height="72.0px" width="107.15px" xmlns="http://www.w3.org/2000/svg">
  <g transform="matrix(1.0, 0.0, 0.0, 1.0, -30.4, 42.45)">
    <path d="M32.95 -30.75 L42.45 -30.45 41.85 -39.35 Q41.75 -40.35 42.95 -40.5 46.5 -36.0 47.45 -30.25 L52.65 -30.0 Q52.7 -36.15 54.35 -42.1 54.45 -42.35 54.95 -42.45 57.1 -36.35 58.1 -29.65 L59.15 -29.6 Q59.8 -29.55 60.45 -28.8 L60.4 -28.1 Q60.2 -26.75 58.95 -26.15 L58.55 -26.0 Q59.05 -21.05 58.95 -15.7 L58.7 -14.95 Q56.5 -13.35 54.7 -15.45 53.35 -20.2 52.9 -24.8 L47.75 -24.3 Q47.55 -21.05 46.65 -17.45 L46.2 -16.65 Q43.45 -15.4 42.45 -18.1 L42.55 -24.4 Q37.0 -24.85 31.55 -26.7 30.25 -27.2 30.45 -28.55 L30.6 -29.25 Q31.35 -30.7 32.95 -30.65 L32.95 -30.75 M74.9 -30.65 L76.2 -30.25 Q79.35 -26.6 78.9 -21.45 78.7 -19.3 77.95 -17.15 73.7 -14.4 68.45 -16.65 L67.7 -17.4 67.15 -17.75 Q65.75 -18.25 64.7 -19.35 63.15 -25.1 66.7 -29.55 68.2 -31.35 69.95 -31.75 L74.9 -30.65 M48.55 -6.9 L41.1 -4.0 Q44.15 4.1 42.1 14.45 L41.8 15.2 Q39.6 16.8 37.8 14.75 36.5 5.25 38.55 -3.0 L31.55 -0.1 Q30.15 -1.25 30.5 -3.05 L30.55 -3.75 Q38.3 -9.15 47.05 -12.25 50.75 -10.95 48.95 -7.45 L48.55 -6.9 M73.45 -24.45 Q73.2 -26.5 70.45 -26.05 L70.45 -25.9 Q68.9 -19.0 73.25 -23.85 L73.45 -24.45 M77.6 -6.15 L78.65 -1.45 Q79.9 -2.3 81.3 -2.95 84.1 -4.2 83.65 -7.05 83.65 -8.05 83.25 -8.3 L82.15 -8.75 Q78.45 -10.2 78.15 -6.6 L77.6 -6.15 M73.65 -9.5 L73.65 -10.25 74.0 -10.85 Q76.25 -13.5 79.15 -14.1 L82.15 -13.9 83.15 -13.75 86.35 -13.35 Q86.9 -13.3 87.4 -12.9 L88.3 -11.7 Q89.0 -10.35 89.0 -8.75 L89.0 -8.55 88.4 -1.95 Q85.85 1.25 82.05 2.9 80.55 3.6 79.05 3.35 79.1 9.2 77.45 15.5 L77.15 15.8 Q74.5 16.55 73.65 14.1 73.0 3.8 74.75 -5.75 L73.9 -6.6 73.75 -7.3 73.65 -9.5 M82.95 -31.5 Q85.3 -32.05 86.45 -29.8 L86.45 -26.85 86.45 -25.65 Q88.2 -26.8 89.2 -28.7 L89.95 -29.55 Q93.0 -29.55 95.2 -26.85 94.95 -31.35 97.1 -34.75 97.45 -35.4 97.95 -35.65 102.5 -28.35 99.7 -18.45 L99.2 -17.6 Q94.35 -17.65 92.2 -22.75 89.3 -21.4 86.95 -17.4 83.9 -16.3 81.7 -18.35 80.9 -24.7 82.35 -30.65 L82.95 -31.5 M94.1 -12.0 L94.15 -12.2 94.35 -11.7 95.35 -8.75 Q98.4 1.5 95.85 13.8 L95.4 14.6 Q92.65 15.85 91.65 13.1 90.1 0.8 93.0 -8.75 L94.0 -11.7 94.1 -12.0 M135.15 -6.35 Q139.25 5.3 136.4 20.0 135.45 24.95 133.4 29.2 130.65 30.4 129.65 27.7 129.3 18.6 130.55 10.5 128.1 12.3 124.65 10.7 123.1 8.6 122.0 6.35 121.3 5.0 121.65 3.4 117.5 1.55 119.8 -1.4 120.45 -2.3 121.15 -2.45 L124.1 -2.3 125.4 -1.95 Q126.95 -0.9 126.8 0.95 126.65 2.4 126.65 3.9 L130.95 8.3 Q132.3 0.6 135.1 -6.15 L135.15 -6.35 M116.15 2.5 Q117.6 4.8 116.85 8.3 L116.9 9.0 Q121.25 9.55 122.65 12.9 122.4 14.2 121.1 14.75 L120.15 15.05 114.65 14.6 Q110.2 16.3 105.65 14.6 102.65 10.15 104.1 4.45 L104.9 0.7 106.35 -0.8 Q107.65 -2.25 109.15 -2.45 L113.1 -2.25 114.4 -1.95 Q115.6 0.2 116.15 2.5 M109.65 2.9 Q108.7 5.7 108.65 8.75 L108.65 9.5 Q110.55 11.3 111.65 9.0 L111.75 8.6 Q111.4 6.65 111.7 4.6 111.2 3.25 109.85 2.8 L109.65 2.9 M60.8 14.25 Q55.95 16.65 50.55 14.5 L48.3 12.3 47.55 11.55 47.2 6.5 Q46.65 2.3 50.05 1.35 L59.25 2.15 Q59.8 2.2 60.3 2.55 62.1 4.7 62.05 7.7 62.05 11.2 60.8 14.25 M52.55 9.15 Q56.05 11.3 56.55 8.15 55.95 5.2 52.55 6.2 L52.55 8.4 52.55 9.15" fill="#ffff33" fill-rule="evenodd" stroke="none"/>
  </g>
</svg>
