<?xml version="1.0" encoding="UTF-8" standalone="no"?>
<svg xmlns:ffdec="https://www.free-decompiler.com/flash" xmlns:xlink="http://www.w3.org/1999/xlink" ffdec:objectType="shape" height="52.0px" width="71.15px" xmlns="http://www.w3.org/2000/svg">
  <g transform="matrix(1.0, 0.0, 0.0, 1.0, -25.4, 28.45)">
    <path d="M33.75 -27.05 Q36.1 -23.85 36.7 -19.7 L40.15 -19.5 Q40.2 -23.95 41.3 -28.2 L41.7 -28.45 Q43.1 -24.1 43.8 -19.25 L44.5 -19.2 45.35 -18.6 45.3 -18.1 Q45.15 -17.15 44.35 -16.7 L44.1 -16.6 44.35 -9.15 44.2 -8.6 Q42.7 -7.45 41.55 -8.95 40.65 -12.4 40.35 -15.7 L36.9 -15.35 Q36.75 -13.0 36.2 -10.4 L35.9 -9.85 Q34.05 -8.95 33.4 -10.9 L33.45 -15.45 Q29.75 -15.8 26.15 -17.1 25.3 -17.45 25.45 -18.45 L25.55 -18.95 Q26.0 -20.0 27.1 -19.95 L27.1 -20.05 33.4 -19.85 33.0 -26.25 Q32.95 -26.95 33.75 -27.05 M32.5 -0.7 Q34.5 5.15 33.15 12.6 L32.95 13.2 Q31.5 14.3 30.3 12.8 29.45 5.95 30.8 0.05 L26.15 2.1 Q25.2 1.3 25.45 0.0 L25.5 -0.55 Q30.65 -4.45 36.45 -6.7 38.9 -5.75 37.7 -3.2 L37.45 -2.8 32.5 -0.7 M53.85 -15.05 L54.0 -15.45 Q53.8 -16.95 52.0 -16.6 L52.0 -16.5 Q50.95 -11.55 53.85 -15.05 M57.6 -13.3 Q57.45 -11.75 56.95 -10.2 54.15 -8.25 50.65 -9.85 L50.15 -10.35 49.8 -10.65 48.15 -11.75 Q47.15 -15.95 49.5 -19.15 50.5 -20.45 51.65 -20.75 L54.95 -19.95 55.8 -19.7 Q57.9 -17.0 57.6 -13.3 M60.3 -20.55 Q61.85 -21.0 62.6 -19.3 L62.6 -17.2 62.6 -16.35 Q63.75 -17.2 64.45 -18.55 L64.95 -19.15 Q66.95 -19.15 68.45 -17.2 68.25 -20.45 69.7 -22.9 L70.25 -23.55 Q73.25 -18.3 71.4 -11.15 L71.1 -10.55 Q67.85 -10.6 66.45 -14.25 64.5 -13.3 62.95 -10.35 60.9 -9.6 59.45 -11.05 58.9 -15.65 59.9 -19.95 59.95 -20.35 60.3 -20.55 M60.45 -7.75 L62.55 -7.45 Q62.9 -7.4 63.25 -7.15 L63.85 -6.25 Q64.3 -5.35 64.3 -4.15 L64.3 -3.95 63.9 0.75 Q62.2 3.05 59.7 4.3 L57.7 4.6 Q57.75 8.8 56.65 13.4 L56.45 13.6 Q54.65 14.1 54.1 12.35 53.7 4.9 54.85 -1.95 L54.3 -2.55 54.2 -3.1 54.1 -4.65 54.1 -5.2 Q54.15 -5.5 54.35 -5.65 55.8 -7.55 57.75 -8.0 L59.75 -7.85 60.45 -7.75 M59.75 -4.15 Q57.3 -5.15 57.1 -2.55 L56.75 -2.25 57.4 1.1 Q58.25 0.5 59.2 0.05 61.05 -0.85 60.75 -2.9 L60.5 -3.8 Q60.1 -4.0 59.75 -4.15 M67.7 -6.45 L67.75 -6.6 67.85 -6.25 68.5 -4.15 Q70.55 3.3 68.85 12.15 L68.55 12.7 Q66.7 13.6 66.05 11.65 65.05 2.75 66.95 -4.15 L67.6 -6.25 67.7 -6.45 M94.95 -2.4 Q97.65 6.0 95.8 16.6 95.15 20.2 93.8 23.25 91.95 24.15 91.3 22.2 91.05 15.65 91.9 9.75 L88.0 9.9 86.2 6.8 Q85.75 5.8 86.0 4.65 83.2 3.3 84.75 1.15 85.2 0.5 85.65 0.4 L87.6 0.55 88.5 0.75 Q89.5 1.55 89.4 2.9 L89.3 5.0 92.15 8.15 Q93.05 2.65 94.9 -2.25 L94.95 -2.4 M82.35 4.0 Q83.3 5.65 82.8 8.2 L82.85 8.7 Q85.7 9.1 86.65 11.5 86.5 12.4 85.65 12.8 L85.0 13.05 81.35 12.7 Q78.35 13.95 75.35 12.7 73.35 9.5 74.35 5.4 L74.85 2.7 75.85 1.6 Q76.7 0.55 77.7 0.4 L80.3 0.55 81.2 0.75 Q82.0 2.3 82.35 4.0 M78.0 4.3 Q77.4 6.3 77.35 8.5 L77.35 9.05 Q78.6 10.35 79.35 8.7 L79.4 8.4 Q79.15 7.0 79.35 5.5 79.05 4.55 78.15 4.2 L78.0 4.3 M45.6 12.45 L38.8 12.65 37.3 11.05 36.8 10.55 36.55 6.9 Q36.2 3.85 38.45 3.15 L44.55 3.7 45.25 4.05 Q46.45 5.6 46.4 7.75 46.4 10.25 45.6 12.45 M40.1 8.25 L40.1 8.8 Q42.4 10.35 42.75 8.1 42.35 5.95 40.1 6.7 L40.1 8.25" fill="#ffff33" fill-rule="evenodd" stroke="none"/>
  </g>
</svg>
