<?xml version="1.0" encoding="UTF-8" standalone="no"?>
<svg xmlns:ffdec="https://www.free-decompiler.com/flash" xmlns:xlink="http://www.w3.org/1999/xlink" ffdec:objectType="shape" height="101.2px" width="149.15px" xmlns="http://www.w3.org/2000/svg">
  <g transform="matrix(1.0, 0.0, 0.0, 1.0, -6.4, 58.6)">
    <path d="M10.9 -54.1 Q13.85 -57.0 18.0 -57.0 L143.95 -57.0 Q148.1 -57.0 151.0 -54.1 153.95 -51.15 153.95 -47.0 L153.95 31.0 Q153.95 35.15 151.0 38.05 148.1 41.0 143.95 41.0 L18.0 41.0 Q13.85 41.0 10.9 38.05 8.0 35.15 8.0 31.0 L8.0 -47.0 Q8.0 -51.15 10.9 -54.1" fill="#333333" fill-rule="evenodd" stroke="none"/>
    <path d="M10.9 -54.1 Q8.0 -51.15 8.0 -47.0 L8.0 31.0 Q8.0 35.15 10.9 38.05 13.85 41.0 18.0 41.0 L143.95 41.0 Q148.1 41.0 151.0 38.05 153.95 35.15 153.95 31.0 L153.95 -47.0 Q153.95 -51.15 151.0 -54.1 148.1 -57.0 143.95 -57.0 L18.0 -57.0 Q13.85 -57.0 10.9 -54.1 Z" fill="none" stroke="#333333" stroke-linecap="round" stroke-linejoin="round" stroke-width="3.25"/>
  </g>
</svg>
