<?xml version="1.0" encoding="UTF-8" standalone="no"?>
<svg xmlns:ffdec="https://www.free-decompiler.com/flash" xmlns:xlink="http://www.w3.org/1999/xlink" ffdec:objectType="shape" height="56.8px" width="75.45px" xmlns="http://www.w3.org/2000/svg">
  <g transform="matrix(1.0, 0.0, 0.0, 1.0, -41.75, 36.4)">
    <path d="M46.35 -34.9 Q48.7 -35.25 50.35 -36.0 55.95 -37.3 60.55 -34.45 L61.6 -33.75 61.9 -33.05 63.35 -30.75 63.85 -30.0 63.85 -29.25 63.75 -24.0 63.6 -22.5 Q57.6 -16.9 49.75 -15.0 51.15 -4.65 50.35 6.45 L50.1 7.25 Q47.9 8.9 46.1 6.75 44.05 -9.8 43.8 -25.2 L42.85 -25.5 42.25 -26.35 Q41.65 -27.7 41.8 -29.25 L41.85 -30.75 Q41.85 -31.15 42.0 -31.35 L43.8 -33.4 43.85 -35.75 44.35 -36.0 44.95 -34.5 46.35 -34.9 M56.6 -30.75 Q50.1 -32.15 46.85 -28.75 48.25 -24.05 49.1 -19.2 52.15 -21.0 55.45 -22.5 59.0 -24.05 58.85 -27.75 L58.55 -28.5 Q58.0 -29.8 56.85 -30.55 L56.6 -30.75 M71.35 -35.0 Q76.8 -20.35 69.1 -3.9 67.35 -0.15 68.6 3.75 69.15 5.3 67.85 6.5 65.1 7.65 63.35 5.0 61.8 -2.6 63.65 -10.05 L63.85 -11.5 Q69.35 -22.7 70.8 -34.7 L71.35 -35.0 M115.35 -23.0 Q118.7 -14.1 116.05 -2.7 116.4 2.45 112.7 8.95 103.3 25.4 87.85 18.25 94.5 14.85 104.1 13.25 105.95 10.25 108.6 8.0 108.9 4.2 110.2 0.7 105.95 -4.45 103.1 -11.25 98.5 -10.1 95.85 -13.0 95.55 -14.95 97.3 -16.05 L97.85 -16.5 Q101.2 -18.0 104.6 -16.5 109.75 -12.15 111.85 -6.0 109.7 -16.6 115.25 -22.8 L115.35 -23.0 M99.5 -1.6 L98.25 -0.4 97.35 0.0 95.5 -0.4 Q93.1 -1.4 92.85 -0.25 92.6 1.1 91.3 1.55 86.95 3.05 82.85 1.5 L82.1 0.75 78.35 -3.0 Q77.55 -4.0 77.6 -5.25 L77.85 -13.5 78.5 -14.3 Q79.6 -15.9 81.35 -15.9 L81.35 -16.0 90.55 -15.2 Q91.1 -15.15 91.6 -14.75 L92.1 -13.95 94.2 -7.3 94.6 -6.5 Q94.95 -6.15 95.4 -6.05 98.95 -5.25 99.85 -2.25 L99.5 -1.6 M82.85 -10.5 Q82.65 -7.85 83.35 -5.35 83.45 -4.9 83.85 -4.5 86.05 -1.8 87.85 -4.25 L87.85 -8.75 87.85 -9.5 Q88.15 -13.35 82.85 -10.5" fill="#ffffcc" fill-rule="evenodd" stroke="none"/>
  </g>
</svg>
