<?xml version="1.0" encoding="UTF-8" standalone="no"?>
<svg xmlns:ffdec="https://www.free-decompiler.com/flash" xmlns:xlink="http://www.w3.org/1999/xlink" ffdec:objectType="shape" height="46.85px" width="63.45px" xmlns="http://www.w3.org/2000/svg">
  <g transform="matrix(1.0, 0.0, 0.0, 1.0, -29.8, 28.4)">
    <path d="M54.65 -27.25 Q59.25 -15.15 52.75 -1.6 51.3 1.5 52.35 4.7 52.8 5.95 51.7 6.95 49.4 7.9 47.95 5.7 46.65 -0.55 48.2 -6.7 L48.35 -7.9 Q53.0 -17.1 54.2 -27.0 L54.65 -27.25 M46.7 -25.65 L47.95 -23.75 48.35 -23.1 48.35 -22.5 48.25 -18.15 48.15 -16.95 Q43.1 -12.3 36.5 -10.75 37.65 -2.25 37.0 6.9 L36.8 7.55 Q34.95 8.95 33.4 7.15 31.7 -6.45 31.5 -19.15 L30.7 -19.4 30.2 -20.1 Q29.7 -21.2 29.8 -22.5 L29.85 -23.75 29.95 -24.25 31.5 -25.9 31.55 -27.85 31.95 -28.05 32.45 -26.85 33.65 -27.15 Q35.6 -27.45 37.0 -28.05 41.7 -29.15 45.6 -26.8 L46.45 -26.2 46.7 -25.65 M42.25 -23.75 Q36.8 -24.9 34.05 -22.1 35.25 -18.2 35.95 -14.2 38.5 -15.7 41.3 -16.95 44.25 -18.2 44.15 -21.25 L43.9 -21.9 Q43.45 -22.95 42.45 -23.55 L42.25 -23.75 M60.65 -10.2 Q61.6 -11.5 63.05 -11.5 L63.05 -11.6 70.8 -10.9 71.7 -10.55 72.1 -9.9 73.9 -4.4 74.2 -3.75 Q74.5 -3.45 74.9 -3.4 77.85 -2.75 78.65 -0.25 L78.35 0.3 77.3 1.25 76.55 1.6 74.95 1.25 Q72.95 0.45 72.75 1.4 72.55 2.5 71.45 2.9 67.8 4.1 64.35 2.85 L63.7 2.2 60.55 -0.85 Q59.85 -1.7 59.9 -2.75 L60.15 -9.5 60.65 -10.2 M76.5 -11.6 L76.95 -12.0 Q79.75 -13.25 82.65 -12.0 86.95 -8.4 88.7 -3.35 86.9 -12.1 91.6 -17.2 L91.65 -17.35 Q94.5 -10.0 92.25 -0.6 92.55 3.6 89.45 8.95 81.55 22.55 68.55 16.65 74.15 13.85 82.2 12.5 83.75 10.05 86.0 8.2 86.25 5.05 87.35 2.2 83.75 -2.05 81.35 -7.65 77.5 -6.7 75.25 -9.1 75.0 -10.7 76.5 -11.6 M68.55 -6.25 Q68.8 -9.4 64.35 -7.05 64.15 -4.85 64.75 -2.8 L65.15 -2.1 Q67.0 0.1 68.55 -1.9 L68.55 -5.6 68.55 -6.25" fill="#ffff66" fill-rule="evenodd" stroke="none"/>
  </g>
</svg>
