<?xml version="1.0" encoding="UTF-8" standalone="no"?>
<svg xmlns:ffdec="https://www.free-decompiler.com/flash" xmlns:xlink="http://www.w3.org/1999/xlink" ffdec:objectType="shape" height="185.65px" width="251.75px" xmlns="http://www.w3.org/2000/svg">
  <g transform="matrix(1.0, 0.0, 0.0, 1.0, 226.7, 69.65)">
    <path d="M1.45 -42.8 Q2.55 -43.25 2.8 -44.15 L4.1 -45.0 Q4.65 -45.75 4.7 -46.95 4.75 -52.05 0.3 -51.65 L-0.25 -50.9 -0.25 -50.85 -1.1 -50.55 -9.8 -45.95 -10.15 -45.75 -10.35 -45.6 -10.75 -45.4 -10.85 -45.3 -14.05 -42.1 -15.0 -40.95 Q-18.15 -36.95 -16.35 -32.95 L-15.9 -32.0 Q-13.85 -28.4 -10.2 -28.05 -4.8 -26.35 1.15 -28.15 L1.4 -28.1 6.4 -28.4 6.55 -28.1 6.65 -27.75 5.25 -24.8 Q2.5 -20.35 -1.95 -21.8 -3.4 -22.25 -4.35 -21.8 L-5.25 -21.75 Q-6.75 -19.7 -6.25 -17.05 L-5.95 -15.9 Q-5.6 -14.95 -5.05 -14.45 -5.0 -12.7 -2.35 -12.8 8.9 -13.4 14.1 -23.45 16.65 -28.35 13.25 -32.35 L12.65 -33.05 Q7.4 -38.5 -0.45 -34.95 -5.75 -32.55 -11.1 -33.2 L-11.05 -33.5 -10.3 -36.15 Q-8.25 -41.5 -2.2 -43.25 -0.5 -42.0 1.45 -42.8 M11.95 -8.25 Q3.35 -3.2 -6.5 -6.05 -16.35 -8.85 -21.7 -17.9 -27.1 -27.0 -24.8 -37.0 -22.55 -47.0 -13.95 -52.05 -5.35 -57.15 4.5 -54.3 14.35 -51.5 19.7 -42.4 25.05 -33.35 22.8 -23.35 20.5 -13.35 11.95 -8.25 M-179.35 -29.75 L-179.2 -29.6 -168.45 -17.1 Q-174.95 -13.25 -181.95 -10.55 -184.45 -8.8 -183.1 -5.95 -181.75 -3.0 -178.9 -4.4 -171.8 -8.05 -165.0 -12.25 L-164.7 -12.45 -157.55 -3.3 -158.85 -1.95 -160.65 -0.25 Q-164.4 3.25 -168.7 5.9 -174.65 9.5 -171.55 14.3 -170.95 15.3 -170.05 14.85 -161.9 10.8 -155.15 4.4 L-153.35 2.65 -146.8 13.7 Q-150.3 18.25 -155.65 21.45 -166.2 27.65 -177.85 24.95 -189.5 22.2 -195.45 12.1 -201.45 2.0 -198.2 -9.5 -195.9 -17.75 -189.85 -23.3 -187.45 -25.5 -184.45 -27.25 -181.95 -28.75 -179.35 -29.75 M-127.75 -45.2 L-127.2 -49.55 Q-126.5 -53.35 -124.9 -56.35 -123.05 -60.0 -120.0 -62.6 L-116.7 -64.95 Q-114.9 -66.05 -113.0 -66.75 -109.25 -68.15 -105.15 -68.05 -101.75 -67.95 -98.15 -66.75 -94.1 -65.45 -90.75 -63.1 L-100.55 -57.6 Q-102.05 -56.6 -101.7 -54.65 -100.3 -47.0 -94.95 -40.6 -89.1 -33.6 -85.15 -25.15 L-83.75 -22.9 Q-86.0 -20.3 -89.15 -18.4 -90.8 -17.45 -92.5 -16.8 -96.25 -26.65 -103.15 -34.65 -106.35 -38.4 -108.2 -42.95 -110.95 -49.5 -116.8 -49.25 -120.75 -45.2 -126.35 -42.85 L-127.75 -45.2 M-129.75 -46.05 L-129.75 -46.15 Q-129.4 -46.8 -129.45 -48.1 L-128.65 -46.75 -129.15 -46.6 -129.6 -46.4 -129.35 -45.95 -129.75 -45.8 -129.75 -46.05 M-138.05 -33.3 Q-139.0 -34.65 -140.2 -35.3 -144.75 -37.7 -149.9 -34.4 L-150.75 -33.25 Q-152.15 -29.3 -150.4 -25.1 -147.6 -18.5 -141.8 -21.2 -132.7 -25.35 -138.05 -33.3 M-137.1 5.2 Q-139.25 4.75 -141.45 3.9 -150.7 0.15 -156.4 -9.5 -162.1 -19.15 -160.9 -29.05 -159.75 -39.0 -152.35 -43.35 -144.95 -47.75 -135.7 -44.0 -126.45 -40.3 -120.75 -30.6 -115.05 -20.95 -116.2 -11.05 L-116.25 -10.65 Q-122.55 -13.3 -125.95 -19.15 -127.0 -20.95 -128.95 -20.9 -135.65 -20.85 -140.95 -15.75 -141.9 -15.15 -142.3 -13.9 -142.75 -12.65 -142.25 -11.5 -139.4 -5.0 -138.25 1.95 -137.9 3.95 -137.1 5.2 M-105.35 4.4 L-103.15 6.3 Q-99.8 8.8 -96.6 11.6 -89.05 18.4 -81.2 15.45 -70.1 11.2 -72.6 -3.3 -73.45 -8.0 -73.6 -12.65 -66.85 -8.45 -62.2 -0.65 -56.15 9.65 -57.45 20.25 -58.7 30.8 -66.6 35.5 -74.5 40.15 -84.4 36.15 -94.25 32.15 -100.3 21.9 -105.45 13.25 -105.35 4.4 M-53.85 -12.35 Q-53.05 -6.35 -49.8 -0.8 -47.55 3.1 -43.95 5.4 L-42.75 5.7 -40.25 6.0 Q-36.85 7.5 -34.0 1.55 -31.0 -4.7 -34.15 -10.25 -40.55 -21.4 -52.1 -15.45 L-52.75 -14.75 -52.9 -14.55 Q-54.05 -13.8 -53.85 -12.35 M-65.85 -15.95 Q-63.15 -21.75 -57.4 -25.15 -49.3 -29.95 -39.8 -27.05 -30.35 -24.2 -25.1 -15.3 -19.85 -6.45 -21.85 3.3 -23.95 12.95 -32.05 17.75 -37.8 21.1 -44.2 20.7 L-65.85 -15.95 M-108.55 36.85 Q-109.35 35.25 -110.55 34.2 -119.45 26.3 -130.15 31.45 -137.2 35.0 -134.55 42.85 -132.7 48.15 -128.6 51.3 -120.0 57.95 -111.8 51.2 -104.5 45.2 -108.55 36.85 M-98.0 30.7 Q-93.65 39.15 -95.95 48.5 -98.4 58.7 -107.3 63.95 -116.25 69.25 -126.4 66.5 L-128.2 65.95 Q-128.95 65.65 -129.65 65.4 -137.45 62.2 -141.9 54.65 -146.4 47.05 -145.45 38.7 L-145.2 37.1 -144.85 35.3 Q-142.35 25.1 -133.4 19.85 -124.5 14.55 -114.35 17.3 -105.05 19.8 -99.75 27.7 L-98.8 29.15 -98.0 30.7 M-184.8 52.25 Q-180.9 60.5 -175.8 68.5 -173.3 72.5 -171.4 76.8 -170.2 79.4 -168.45 80.25 -167.3 81.7 -165.35 80.7 -156.05 75.85 -147.25 70.1 -143.85 67.85 -140.35 66.1 L-139.05 68.3 Q-139.1 71.2 -139.8 74.2 -142.3 84.4 -151.25 89.65 -160.15 94.95 -170.3 92.2 -180.4 89.45 -185.8 80.3 -191.2 71.15 -188.7 61.0 -187.5 56.0 -184.8 52.25 M-177.85 101.8 L-178.05 102.25 Q-181.15 107.6 -186.8 110.95 -195.75 116.2 -205.85 113.5 -216.0 110.75 -221.4 101.65 -226.8 92.5 -224.3 82.3 -221.8 72.1 -212.9 66.85 -207.2 63.45 -201.05 63.35 -197.55 63.3 -193.85 64.3 L-192.15 64.8 Q-193.8 65.55 -195.25 67.25 L-195.6 67.5 -197.7 69.0 -201.55 72.15 Q-204.85 75.15 -206.55 79.45 -208.95 85.25 -206.8 90.95 -202.1 103.2 -189.1 103.25 -183.6 103.2 -178.25 101.95 L-177.85 101.8" fill="#990099" fill-rule="evenodd" stroke="none"/>
    <path d="M11.95 -8.25 Q3.35 -3.2 -6.5 -6.05 -16.35 -8.85 -21.7 -17.9 -27.1 -27.0 -24.8 -37.0 -22.55 -47.0 -13.95 -52.05 -5.35 -57.15 4.5 -54.3 14.35 -51.5 19.7 -42.4 25.05 -33.35 22.8 -23.35 20.5 -13.35 11.95 -8.25 M-146.8 13.7 Q-150.3 18.25 -155.65 21.45 -166.2 27.65 -177.85 24.95 -189.5 22.2 -195.45 12.1 -201.45 2.0 -198.2 -9.5 -195.9 -17.75 -189.85 -23.3 -187.45 -25.5 -184.45 -27.25 -181.95 -28.75 -179.35 -29.75 M-127.75 -45.2 L-127.2 -49.55 Q-126.5 -53.35 -124.9 -56.35 -123.05 -60.0 -120.0 -62.6 L-116.7 -64.95 Q-114.9 -66.05 -113.0 -66.75 -109.25 -68.15 -105.15 -68.05 -101.75 -67.95 -98.15 -66.75 -94.1 -65.45 -90.75 -63.1 M-83.75 -22.9 Q-86.0 -20.3 -89.15 -18.4 -90.8 -17.45 -92.5 -16.8 M-137.1 5.2 Q-139.25 4.75 -141.45 3.9 -150.7 0.15 -156.4 -9.5 -162.1 -19.15 -160.9 -29.05 -159.75 -39.0 -152.35 -43.35 -144.95 -47.75 -135.7 -44.0 -126.45 -40.3 -120.75 -30.6 -115.05 -20.95 -116.2 -11.05 L-116.25 -10.65 M-73.6 -12.65 Q-66.85 -8.45 -62.2 -0.65 -56.15 9.65 -57.45 20.25 -58.7 30.8 -66.6 35.5 -74.5 40.15 -84.4 36.15 -94.25 32.15 -100.3 21.9 -105.45 13.25 -105.35 4.4 M-65.85 -15.95 Q-63.15 -21.75 -57.4 -25.15 -49.3 -29.95 -39.8 -27.05 -30.35 -24.2 -25.1 -15.3 -19.85 -6.45 -21.85 3.3 -23.95 12.95 -32.05 17.75 -37.8 21.1 -44.2 20.7 M-98.0 30.7 Q-93.65 39.15 -95.95 48.5 -98.4 58.7 -107.3 63.95 -116.25 69.25 -126.4 66.5 L-128.2 65.95 Q-128.95 65.65 -129.65 65.4 -137.45 62.2 -141.9 54.65 -146.4 47.05 -145.45 38.7 L-145.2 37.1 -144.85 35.3 Q-142.35 25.1 -133.4 19.85 -124.5 14.55 -114.35 17.3 -105.05 19.8 -99.75 27.7 L-98.8 29.15 -98.0 30.7 M-138.8 66.8 L-138.7 64.75 -138.7 64.1 M-139.05 68.3 Q-139.1 71.2 -139.8 74.2 -142.3 84.4 -151.25 89.65 -160.15 94.95 -170.3 92.2 -180.4 89.45 -185.8 80.3 -191.2 71.15 -188.7 61.0 -187.5 56.0 -184.8 52.25 M-177.85 101.8 L-178.05 102.25 Q-181.15 107.6 -186.8 110.95 -195.75 116.2 -205.85 113.5 -216.0 110.75 -221.4 101.65 -226.8 92.5 -224.3 82.3 -221.8 72.1 -212.9 66.85 -207.2 63.45 -201.05 63.35 -197.55 63.3 -193.85 64.3 L-192.15 64.8" fill="none" stroke="#993333" stroke-linecap="round" stroke-linejoin="round" stroke-width="3.25"/>
  </g>
</svg>
