<?xml version="1.0" encoding="UTF-8" standalone="no"?>
<svg xmlns:ffdec="https://www.free-decompiler.com/flash" xmlns:xlink="http://www.w3.org/1999/xlink" ffdec:objectType="shape" height="32.4px" width="108.25px" xmlns="http://www.w3.org/2000/svg">
  <g transform="matrix(1.0, 0.0, 0.0, 1.0, -24.2, 28.75)">
    <path d="M32.25 -4.3 Q34.55 -1.85 33.7 1.25 L33.3 2.5 Q31.55 4.3 29.25 3.3 22.6 -8.35 24.7 -22.55 24.8 -23.2 25.25 -23.8 32.55 -23.3 38.4 -17.85 43.15 -24.55 49.5 -28.75 L50.95 -28.25 51.8 -27.7 Q58.55 -14.3 57.3 0.6 L56.9 1.9 Q54.55 3.85 52.25 1.9 51.6 -7.35 48.95 -16.6 L48.4 -18.45 Q44.3 -16.25 40.75 -10.65 38.4 -9.75 36.1 -10.65 L30.55 -14.75 Q30.95 -10.4 32.05 -6.1 L32.25 -4.3 M77.55 -19.1 Q78.6 -15.9 78.6 -12.3 78.55 -8.45 75.2 -6.35 L68.5 -5.45 68.6 -5.1 Q71.25 -4.0 74.7 -3.35 76.0 -3.1 76.3 -1.8 L76.35 -1.2 76.15 -0.05 75.45 1.25 Q71.8 3.3 67.35 2.1 L65.85 1.7 Q58.95 -5.45 62.2 -15.05 63.75 -19.85 68.2 -21.35 73.05 -22.3 77.05 -19.6 L77.55 -19.1 M70.55 -15.05 Q70.75 -15.75 69.45 -14.75 68.5 -10.0 70.55 -15.05 M86.05 -20.5 Q87.9 -20.4 88.8 -18.9 L89.05 -18.25 100.3 -17.65 Q102.35 -16.0 102.7 -13.35 L102.85 -10.25 102.85 -6.55 104.0 -4.65 104.55 -3.45 103.65 -1.8 102.45 -0.6 Q99.6 0.25 97.35 -1.4 95.95 -3.25 96.35 -5.75 L96.5 -6.95 96.5 -10.65 Q95.65 -13.55 91.6 -10.85 90.6 -8.9 90.85 -6.55 L91.05 -3.45 Q91.15 -1.25 90.3 0.85 88.55 2.65 86.3 1.7 L84.85 0.35 84.55 -0.15 Q84.9 -4.4 83.95 -8.45 82.7 -13.5 83.1 -18.65 83.65 -19.85 85.0 -20.25 L86.05 -20.5 M113.85 -17.75 L114.35 -17.25 Q115.05 -12.75 114.8 -8.0 L114.8 -6.15 Q117.85 -9.7 118.85 -16.0 L119.05 -16.6 Q121.0 -19.4 124.15 -18.45 L124.85 -17.75 125.6 -16.6 Q125.95 -15.45 125.9 -14.15 L125.85 -12.3 Q129.45 -5.7 132.45 0.65 131.5 3.15 128.6 2.9 123.85 1.3 122.85 -3.05 122.3 -4.85 122.15 -2.25 122.1 -1.25 121.35 -0.4 115.2 2.6 109.25 -0.6 107.75 -7.35 108.2 -14.75 108.2 -16.05 108.6 -17.25 109.7 -18.7 111.6 -18.8 L111.6 -18.9 113.85 -17.75" fill="#ffffff" fill-rule="evenodd" stroke="none"/>
  </g>
</svg>
