<?xml version="1.0" encoding="UTF-8" standalone="no"?>
<svg xmlns:ffdec="https://www.free-decompiler.com/flash" xmlns:xlink="http://www.w3.org/1999/xlink" ffdec:objectType="shape" height="23.4px" width="73.3px" xmlns="http://www.w3.org/2000/svg">
  <g transform="matrix(1.0, 0.0, 0.0, 1.0, -24.15, 19.75)">
    <path d="M24.9 -16.2 Q29.85 -15.85 33.8 -11.9 37.0 -16.75 41.3 -19.75 L42.3 -19.4 42.85 -19.0 Q47.4 -9.35 46.55 1.45 L46.3 2.35 Q44.7 3.8 43.15 2.35 42.7 -4.3 40.9 -11.0 L40.55 -12.35 Q37.8 -10.75 35.35 -6.7 33.8 -6.05 32.25 -6.7 L28.45 -9.65 Q28.75 -6.5 29.5 -3.4 L29.6 -2.1 Q31.2 -0.35 30.6 1.9 L30.35 2.8 Q29.15 4.1 27.6 3.4 23.1 -5.05 24.5 -15.3 L24.9 -16.2 M60.3 -12.8 Q61.0 -10.5 61.0 -7.9 60.95 -5.1 58.7 -3.6 L54.15 -2.95 54.2 -2.7 Q56.0 -1.9 58.35 -1.4 59.25 -1.25 59.45 -0.3 L59.45 0.15 59.35 0.95 58.85 1.9 Q56.4 3.4 53.35 2.5 L52.35 2.25 Q47.7 -2.95 49.9 -9.85 50.95 -13.35 53.95 -14.4 57.25 -15.1 59.95 -13.15 L60.3 -12.8 M54.8 -9.65 Q54.15 -6.2 55.55 -9.85 55.7 -10.4 54.8 -9.65 M67.9 -12.65 L68.05 -12.2 75.65 -11.75 Q77.05 -10.55 77.3 -8.65 L77.4 -6.4 77.4 -3.75 78.15 -2.35 78.55 -1.5 77.95 -0.3 77.15 0.55 Q75.2 1.2 73.65 0.0 72.75 -1.35 73.0 -3.15 L73.1 -4.0 73.1 -6.7 Q72.5 -8.8 69.8 -6.85 69.1 -5.45 69.3 -3.75 L69.4 -1.5 Q69.5 0.1 68.9 1.6 67.7 2.9 66.2 2.25 L65.2 1.25 65.0 0.9 Q65.25 -2.2 64.6 -5.1 63.75 -8.75 64.05 -12.45 64.4 -13.35 65.3 -13.65 L66.05 -13.8 Q67.3 -13.75 67.9 -12.65 M84.85 -11.8 L85.2 -11.45 Q85.65 -8.2 85.5 -4.8 L85.5 -3.45 Q87.55 -6.0 88.2 -10.55 L88.35 -11.0 Q89.7 -13.0 91.8 -12.35 L92.3 -11.8 92.8 -11.0 93.0 -9.2 92.95 -7.9 97.45 1.45 Q96.8 3.3 94.8 3.1 91.6 1.95 90.95 -1.2 90.55 -2.5 90.45 -0.65 90.4 0.1 89.9 0.7 85.75 2.9 81.75 0.55 80.7 -4.3 81.0 -9.65 81.0 -10.6 81.3 -11.45 82.05 -12.5 83.3 -12.6 L83.3 -12.65 84.85 -11.8" fill="#ffff66" fill-rule="evenodd" stroke="none"/>
  </g>
</svg>
