<?xml version="1.0" encoding="UTF-8" standalone="no"?>
<svg xmlns:ffdec="https://www.free-decompiler.com/flash" xmlns:xlink="http://www.w3.org/1999/xlink" ffdec:objectType="shape" height="104.3px" width="174.15px" xmlns="http://www.w3.org/2000/svg">
  <g transform="matrix(1.0, 0.0, 0.0, 1.0, 87.1, 52.15)">
    <path d="M82.2 -34.65 L82.95 -34.75 85.95 -35.05 86.95 -35.15 87.0 -29.2 86.65 -28.6 Q63.65 11.5 30.05 42.3 25.6 46.35 19.7 48.15 -27.6 62.5 -61.95 25.6 L-62.6 25.55 -63.4 24.8 Q-64.4 23.95 -64.6 22.55 L-65.15 22.1 -66.35 21.55 -66.45 21.25 Q-67.8 20.65 -67.35 19.05 -68.0 18.8 -68.45 18.35 L-71.25 16.0 Q-72.75 19.1 -77.65 22.7 -81.55 25.55 -86.1 24.05 L-86.9 22.45 -87.1 21.05 Q-79.85 16.05 -73.45 10.35 -73.5 -2.25 -70.5 -14.0 -69.6 -17.7 -67.35 -20.7 L-66.95 -20.7 -64.65 -24.25 Q-63.05 -27.1 -61.2 -28.85 L-61.1 -28.9 -61.1 -29.2 -60.05 -30.35 Q-58.35 -31.85 -57.1 -33.45 L-56.05 -33.4 -55.8 -34.5 Q-18.3 -62.95 26.8 -45.6 47.4 -37.7 68.55 -32.25 76.25 -30.3 82.2 -34.65 M-8.1 -40.95 Q-10.95 -40.55 -13.05 -38.6 -21.1 -30.95 -28.3 -22.2 -38.45 -9.85 -48.35 -0.95 -34.45 -7.5 -24.95 -21.25 -16.6 -33.3 -8.1 -40.95 M75.6 -19.7 L75.9 -20.45 Q77.75 -24.7 77.85 -27.95 69.65 -16.0 54.1 -11.6 48.15 -9.9 42.25 -9.55 4.5 -7.35 -32.9 -2.85 -52.4 -0.5 -70.6 7.8 L-71.4 8.45 Q-72.0 9.35 -71.85 10.55 L-71.6 11.3 Q-58.1 3.25 -41.8 -1.3 -38.75 -2.15 -35.8 -2.25 L-5.0 -3.5 Q-0.7 -1.95 3.35 -0.05 24.95 10.3 48.4 6.55 48.15 5.8 47.95 5.8 25.55 7.3 6.65 -3.9 L42.4 -4.7 Q60.35 -9.5 75.6 -19.7" fill="#91b215" fill-rule="evenodd" stroke="none"/>
    <path d="M75.6 -19.7 Q60.35 -9.5 42.4 -4.7 L6.65 -3.9 Q25.55 7.3 47.95 5.8 48.15 5.8 48.4 6.55 24.95 10.3 3.35 -0.05 -0.7 -1.95 -5.0 -3.5 L-35.8 -2.25 Q-38.75 -2.15 -41.8 -1.3 -58.1 3.25 -71.6 11.3 L-71.85 10.55 Q-72.0 9.35 -71.4 8.45 L-70.6 7.8 Q-52.4 -0.5 -32.9 -2.85 4.5 -7.35 42.25 -9.55 48.15 -9.9 54.1 -11.6 69.65 -16.0 77.85 -27.95 77.75 -24.7 75.9 -20.45 L75.6 -19.7 M-8.1 -40.95 Q-16.6 -33.3 -24.95 -21.25 -34.45 -7.5 -48.35 -0.95 -38.45 -9.85 -28.3 -22.2 -21.1 -30.95 -13.05 -38.6 -10.95 -40.55 -8.1 -40.95" fill="#ffffff" fill-rule="evenodd" stroke="none"/>
  </g>
</svg>
