<?xml version="1.0" encoding="UTF-8" standalone="no"?>
<svg xmlns:ffdec="https://www.free-decompiler.com/flash" xmlns:xlink="http://www.w3.org/1999/xlink" ffdec:objectType="shape" height="192.15px" width="406.85px" xmlns="http://www.w3.org/2000/svg">
  <g transform="matrix(1.0, 0.0, 0.0, 1.0, -628.85, 110.15)">
    <path d="M890.4 -73.0 L891.1 -73.45 891.8 -73.9 891.95 -74.35 892.05 -75.2 892.05 -76.1 892.4 -76.5 Q895.6 -78.7 900.6 -79.2 L903.35 -79.45 Q916.9 -80.6 929.5 -78.35 929.4 -79.9 931.2 -80.9 934.75 -82.95 938.65 -84.85 L939.8 -85.3 Q951.4 -93.1 965.25 -99.2 972.5 -102.4 980.15 -104.65 999.15 -104.45 1014.7 -97.5 L1016.1 -97.05 1016.75 -96.55 1017.5 -95.7 1017.75 -95.25 1018.55 -94.9 1021.1 -93.95 Q1036.1 -88.45 1035.7 -79.0 1035.6 -77.6 1034.15 -76.1 1024.5 -65.95 1009.5 -59.4 1007.5 -56.25 1004.1 -53.6 1019.65 -48.0 1033.0 -40.05 L1034.1 -39.4 1034.85 -38.95 Q1036.0 -38.25 1034.8 -37.45 L1034.35 -37.25 Q1033.6 -34.7 1030.5 -34.05 L1029.75 -33.05 Q1011.85 -26.95 995.45 -19.9 939.75 -2.6 876.65 3.1 859.25 4.65 842.8 2.0 L822.3 16.55 822.25 17.15 Q782.75 42.9 740.25 67.25 728.8 73.8 716.9 79.8 685.1 86.6 665.5 72.45 660.25 68.7 661.25 63.35 662.15 58.5 663.85 53.75 664.3 52.75 665.95 52.35 L667.0 52.0 Q682.05 37.7 703.7 25.85 734.3 9.15 761.3 -9.75 L766.1 -12.95 Q739.7 -23.0 713.75 -33.5 711.35 -34.5 711.6 -36.15 L711.85 -36.55 Q709.05 -37.8 706.2 -39.0 694.4 -33.05 684.15 -26.0 681.65 -24.3 678.45 -24.35 L678.25 -24.15 677.05 -23.9 Q656.25 -23.65 635.55 -23.75 L635.3 -23.75 633.65 -23.55 Q622.45 -32.2 637.45 -40.8 650.55 -48.35 662.65 -55.65 L662.65 -55.75 Q662.45 -56.6 663.55 -57.1 L665.35 -57.65 Q645.7 -74.55 645.9 -96.3 646.0 -102.05 646.8 -107.7 L647.6 -108.1 652.2 -109.5 653.8 -109.9 654.8 -110.0 Q658.4 -110.25 661.75 -110.0 670.8 -109.4 677.8 -105.4 L678.7 -104.95 678.95 -104.5 679.2 -104.05 679.45 -103.6 Q684.05 -101.2 686.9 -97.9 690.35 -93.95 690.95 -89.55 L699.85 -74.15 Q702.1 -79.6 710.85 -83.75 717.5 -86.95 724.8 -88.85 L735.35 -88.7 737.05 -88.55 Q761.7 -81.25 757.55 -66.65 756.8 -64.15 754.2 -62.0 L784.3 -63.05 Q807.6 -63.45 830.3 -62.75 L830.6 -62.9 831.6 -63.25 833.2 -63.55 833.25 -63.65 Q860.2 -62.3 886.85 -63.05 887.8 -67.9 890.15 -72.6 L890.4 -73.0 M898.75 -72.3 L897.35 -70.95 Q896.15 -67.7 895.35 -64.3 893.4 -55.85 892.75 -47.25 L891.8 -46.8 890.75 -46.45 893.75 -46.4 Q918.25 -54.3 941.7 -62.55 L941.45 -62.85 Q940.8 -63.85 940.45 -64.9 940.05 -66.05 939.8 -67.15 L939.05 -67.6 Q936.75 -68.8 935.25 -70.25 934.35 -71.1 933.8 -72.0 919.65 -77.35 901.65 -74.45 L899.25 -74.05 899.25 -73.6 Q899.25 -72.95 898.75 -72.3 M950.85 -61.8 L950.35 -60.85 Q923.95 -50.8 896.35 -42.0 864.85 -41.65 843.6 -56.75 L843.1 -58.1 835.55 -58.8 Q790.75 -58.8 745.85 -57.35 L743.95 -57.5 Q736.5 -51.85 725.4 -47.5 719.3 -45.15 713.55 -42.55 L714.95 -41.85 718.95 -38.2 Q720.1 -37.25 719.55 -36.3 745.75 -26.65 769.95 -15.8 L770.65 -16.05 771.85 -16.25 Q815.85 -16.1 859.9 -15.55 861.25 -15.55 861.6 -14.6 L861.65 -14.4 862.55 -13.45 862.8 -13.0 862.7 -12.15 Q862.5 -11.4 861.8 -10.8 L858.7 -9.5 847.1 -1.1 Q917.85 -2.3 980.6 -20.9 L989.65 -23.25 Q1007.85 -30.65 1027.05 -37.2 L1027.1 -37.3 1027.45 -37.3 1028.3 -38.25 Q994.35 -55.1 950.95 -62.05 L950.9 -62.1 950.85 -61.8 M888.2 -46.7 L887.25 -47.15 Q886.85 -47.35 886.6 -47.6 L886.3 -48.0 886.2 -55.45 Q886.15 -57.55 886.35 -59.55 869.75 -57.05 852.4 -57.55 867.5 -48.0 888.2 -46.6 L888.5 -46.6 888.2 -46.7 M936.7 -76.85 L939.95 -74.9 Q947.6 -70.15 947.6 -64.25 L948.9 -64.0 Q949.25 -64.5 950.25 -64.8 L952.25 -65.3 952.3 -65.4 Q977.7 -62.45 999.1 -55.35 L1000.9 -57.95 Q1000.35 -58.35 1000.5 -58.95 L1000.7 -59.85 1003.7 -61.1 1004.0 -61.6 Q1005.65 -62.9 1007.9 -63.0 L1007.9 -63.05 1008.0 -63.05 Q1015.0 -66.5 1020.85 -70.85 1027.4 -75.8 1030.2 -81.65 L1030.1 -82.05 1028.45 -83.45 1027.35 -84.3 Q1023.25 -85.6 1019.65 -87.45 1014.6 -90.15 1011.0 -93.5 995.05 -101.8 977.95 -97.15 971.9 -95.55 966.35 -93.2 956.7 -89.05 947.25 -84.45 L946.95 -84.0 945.05 -82.4 Q943.6 -81.5 941.7 -80.9 L940.3 -79.7 Q938.9 -78.15 936.7 -76.95 L936.55 -76.85 936.7 -76.85 M662.95 -104.65 Q658.3 -105.1 653.55 -104.8 650.55 -86.95 662.25 -71.05 666.7 -64.95 669.6 -58.7 L669.4 -58.25 Q669.05 -57.65 668.2 -57.35 681.75 -54.05 693.55 -49.0 L694.3 -48.6 Q699.8 -47.6 704.8 -46.0 703.15 -60.85 693.2 -74.65 685.75 -84.85 680.9 -95.4 679.15 -96.7 677.6 -97.95 673.55 -101.15 669.15 -104.05 L662.95 -104.65 M636.9 -27.95 L677.05 -27.3 Q687.05 -35.05 699.65 -41.7 685.0 -47.75 669.65 -53.1 L669.15 -52.7 Q651.3 -43.9 636.75 -33.35 635.35 -30.55 636.9 -27.95 M732.25 -84.3 Q724.2 -84.6 718.05 -81.5 716.1 -80.55 714.0 -79.75 L713.45 -79.0 Q710.75 -76.8 708.6 -74.35 707.9 -73.6 706.55 -73.15 L706.4 -72.75 705.65 -70.5 Q705.35 -69.6 704.4 -68.8 L703.4 -68.4 703.05 -68.3 709.55 -56.0 Q711.8 -51.55 710.6 -47.15 723.75 -53.5 737.15 -59.65 741.45 -61.7 744.75 -64.4 L745.7 -64.65 746.9 -64.8 747.4 -64.8 747.9 -65.05 Q754.95 -67.9 753.35 -72.6 747.45 -75.55 743.45 -79.05 739.4 -82.6 732.25 -84.3 M815.15 14.75 Q833.75 1.1 853.35 -12.2 814.15 -11.95 775.0 -12.0 L774.45 -11.4 Q735.35 14.5 692.85 38.4 679.15 46.1 670.8 55.8 668.75 60.25 668.85 65.0 L668.9 68.95 Q674.75 74.55 685.95 75.85 714.15 79.0 734.3 66.85 774.95 42.35 811.9 16.4 813.45 15.25 815.15 14.75" fill="#ffffcc" fill-rule="evenodd" stroke="none"/>
    <path d="M898.75 -72.3 Q899.25 -72.95 899.25 -73.6 L899.25 -74.05 901.65 -74.45 Q919.65 -77.35 933.8 -72.0 934.35 -71.1 935.25 -70.25 936.75 -68.8 939.05 -67.6 L939.8 -67.15 Q940.05 -66.05 940.45 -64.9 940.8 -63.85 941.45 -62.85 L941.7 -62.55 Q918.25 -54.3 893.75 -46.4 L890.75 -46.45 891.8 -46.8 892.75 -47.25 Q893.4 -55.85 895.35 -64.3 896.15 -67.7 897.35 -70.95 L898.75 -72.3" fill="#000000" fill-rule="evenodd" stroke="none"/>
    <path d="M950.95 -62.05 Q994.35 -55.1 1028.3 -38.25 L1027.45 -37.3 1027.1 -37.3 1027.05 -37.2 Q1007.85 -30.65 989.65 -23.25 L980.6 -20.9 Q917.85 -2.3 847.1 -1.1 L858.7 -9.5 861.8 -10.8 Q862.5 -11.4 862.7 -12.15 L862.8 -13.0 862.55 -13.45 861.65 -14.4 861.6 -14.6 Q861.25 -15.55 859.9 -15.55 815.85 -16.1 771.85 -16.25 L770.65 -16.05 769.95 -15.8 Q745.75 -26.65 719.55 -36.3 720.1 -37.25 718.95 -38.2 L714.95 -41.85 713.55 -42.55 Q719.3 -45.15 725.4 -47.5 736.5 -51.85 743.95 -57.5 L745.85 -57.35 Q790.75 -58.8 835.55 -58.8 L843.1 -58.1 843.6 -56.75 Q864.85 -41.65 896.35 -42.0 923.95 -50.8 950.35 -60.85 L950.85 -61.8 950.95 -62.05 M662.95 -104.65 L669.15 -104.05 Q673.55 -101.15 677.6 -97.95 679.15 -96.7 680.9 -95.4 685.75 -84.85 693.2 -74.65 703.15 -60.85 704.8 -46.0 699.8 -47.6 694.3 -48.6 L693.55 -49.0 Q681.75 -54.05 668.2 -57.35 669.05 -57.65 669.4 -58.25 L669.6 -58.7 Q666.7 -64.95 662.25 -71.05 650.55 -86.95 653.55 -104.8 658.3 -105.1 662.95 -104.65" fill="#990099" fill-rule="evenodd" stroke="none"/>
    <path d="M888.2 -46.6 Q867.5 -48.0 852.4 -57.55 869.75 -57.05 886.35 -59.55 886.15 -57.55 886.2 -55.45 L886.3 -48.0 886.6 -47.6 Q886.85 -47.35 887.25 -47.15 L888.2 -46.7 888.2 -46.6" fill="#ffff99" fill-rule="evenodd" stroke="none"/>
    <path d="M936.7 -76.95 Q938.9 -78.15 940.3 -79.7 L941.7 -80.9 Q943.6 -81.5 945.05 -82.4 L946.95 -84.0 947.25 -84.45 Q956.7 -89.05 966.35 -93.2 971.9 -95.55 977.95 -97.15 995.05 -101.8 1011.0 -93.5 1014.6 -90.15 1019.65 -87.45 1023.25 -85.6 1027.35 -84.3 L1028.45 -83.45 1030.1 -82.05 1030.2 -81.65 Q1027.4 -75.8 1020.85 -70.85 1015.0 -66.5 1008.0 -63.05 L1007.9 -63.05 1007.9 -63.0 Q1005.65 -62.9 1004.0 -61.6 L1003.7 -61.1 1000.7 -59.85 1000.5 -58.95 Q1000.35 -58.35 1000.9 -57.95 L999.1 -55.35 Q977.7 -62.45 952.3 -65.4 L952.25 -65.3 950.25 -64.8 Q949.25 -64.5 948.9 -64.0 L947.6 -64.25 Q947.6 -70.15 939.95 -74.9 L936.7 -76.85 936.7 -76.95 M815.15 14.75 Q813.45 15.25 811.9 16.4 774.95 42.35 734.3 66.85 714.15 79.0 685.95 75.85 674.75 74.55 668.9 68.95 L668.85 65.0 Q668.75 60.25 670.8 55.8 679.15 46.1 692.85 38.4 735.35 14.5 774.45 -11.4 L775.0 -12.0 Q814.15 -11.95 853.35 -12.2 833.75 1.1 815.15 14.75 M732.25 -84.3 Q739.4 -82.6 743.45 -79.05 747.45 -75.55 753.35 -72.6 754.95 -67.9 747.9 -65.05 L747.4 -64.8 746.9 -64.8 745.7 -64.65 744.75 -64.4 Q741.45 -61.7 737.15 -59.65 723.75 -53.5 710.6 -47.15 711.8 -51.55 709.55 -56.0 L703.05 -68.3 703.4 -68.4 704.4 -68.8 Q705.35 -69.6 705.65 -70.5 L706.4 -72.75 706.55 -73.15 Q707.9 -73.6 708.6 -74.35 710.75 -76.8 713.45 -79.0 L714.0 -79.75 Q716.1 -80.55 718.05 -81.5 724.2 -84.6 732.25 -84.3 M636.9 -27.95 Q635.35 -30.55 636.75 -33.35 651.3 -43.9 669.15 -52.7 L669.65 -53.1 Q685.0 -47.75 699.65 -41.7 687.05 -35.05 677.05 -27.3 L636.9 -27.95" fill="#003399" fill-rule="evenodd" stroke="none"/>
  </g>
</svg>
