<?xml version="1.0" encoding="UTF-8" standalone="no"?>
<svg xmlns:ffdec="https://www.free-decompiler.com/flash" xmlns:xlink="http://www.w3.org/1999/xlink" ffdec:objectType="shape" height="107.9px" width="320.65px" xmlns="http://www.w3.org/2000/svg">
  <g transform="matrix(1.0, 0.0, 0.0, 1.0, 239.4, 103.95)">
    <path d="M80.3 -50.35 L81.25 -50.1 Q80.4 -47.25 79.2 -44.5 79.1 -44.2 78.7 -44.05 42.95 -14.8 0.65 2.1 -4.95 4.3 -11.05 3.9 -60.35 0.5 -79.35 -46.15 L-79.9 -46.4 -80.4 -47.35 Q-81.05 -48.5 -80.7 -49.9 L-81.05 -50.5 -82.0 -51.45 -82.0 -51.75 Q-83.05 -52.8 -82.05 -54.15 L-82.8 -55.2 -84.6 -58.35 Q-87.1 -56.0 -92.95 -54.35 -97.6 -53.1 -101.3 -56.1 L-101.5 -57.9 -101.2 -59.25 Q-92.65 -61.4 -84.65 -64.45 -80.25 -76.2 -73.25 -86.1 -71.15 -89.25 -67.95 -91.25 L-67.6 -91.1 -64.2 -93.65 Q-61.65 -95.75 -59.35 -96.7 L-59.2 -96.7 -59.1 -97.0 -57.7 -97.7 Q-55.6 -98.5 -53.85 -99.55 L-52.9 -99.1 -52.25 -100.05 Q-7.2 -113.35 28.8 -81.15 45.2 -66.45 63.05 -53.85 69.55 -49.3 76.65 -51.3 L77.4 -51.1 80.3 -50.35 M32.6 -41.35 L30.45 -42.0 Q1.55 -51.1 -27.7 -58.7 -33.3 -61.45 -39.05 -63.35 L-47.6 -65.65 Q-37.05 -69.5 -28.75 -76.25 -16.9 -81.35 -6.0 -87.5 L-5.95 -87.9 -7.1 -88.5 -5.45 -89.15 Q-8.25 -89.8 -10.9 -88.7 -21.15 -84.45 -30.95 -78.8 -43.7 -71.5 -55.25 -66.85 -66.35 -68.1 -78.0 -66.25 L-78.6 -65.95 -81.1 -65.8 -82.05 -65.45 Q-82.95 -64.85 -83.25 -63.65 L-83.25 -62.9 -73.95 -64.15 -51.75 -63.05 -51.75 -63.0 -50.7 -63.0 -45.05 -62.85 -33.6 -59.1 -31.75 -57.0 Q-25.25 -56.35 -20.5 -51.75 L-19.75 -51.0 Q-14.55 -48.7 -9.25 -46.9 7.25 -29.6 30.5 -24.8 L30.35 -25.65 Q12.15 -31.2 -0.45 -44.35 6.35 -42.7 13.4 -41.8 18.05 -41.2 21.25 -38.0 L27.1 -38.05 28.85 -37.4 Q47.3 -35.55 65.2 -39.65 L65.75 -40.25 Q68.95 -43.55 70.2 -46.55 67.75 -44.85 65.1 -43.55 L65.2 -44.25 63.4 -44.4 Q62.85 -44.25 62.45 -43.55 L62.0 -42.75 Q58.9 -41.95 55.95 -41.85 44.25 -41.4 32.6 -41.35 M-19.7 -54.45 L-15.8 -53.1 -14.4 -51.9 -19.7 -54.45 M-3.45 -47.7 L-4.8 -49.35 9.0 -44.5 Q2.65 -45.75 -3.45 -47.7 M-35.95 -60.8 L-42.1 -62.35 -43.95 -62.8 -43.25 -62.8 Q-39.1 -62.7 -35.95 -60.8 M-50.4 -67.0 L-50.45 -67.0 -51.15 -66.3 -52.95 -66.55 -50.4 -67.0" fill="url(#gradient0)" fill-rule="evenodd" stroke="none"/>
    <path d="M-27.7 -58.7 Q1.55 -51.1 30.45 -42.0 L32.6 -41.35 21.25 -41.5 20.45 -42.25 19.5 -43.0 9.0 -44.5 -4.8 -49.35 -3.45 -47.7 Q-9.05 -49.5 -14.4 -51.9 L-15.8 -53.1 -19.7 -54.45 -23.25 -56.35 Q-25.45 -57.6 -27.7 -58.7 M65.1 -43.55 Q67.75 -44.85 70.2 -46.55 68.95 -43.55 65.75 -40.25 L65.2 -39.65 Q47.3 -35.55 28.85 -37.4 L27.1 -38.05 56.95 -38.7 60.0 -39.0 Q64.4 -39.75 65.1 -43.55 M-0.45 -44.35 Q12.15 -31.2 30.35 -25.65 L30.5 -24.8 Q7.25 -29.6 -9.25 -46.9 L-0.45 -44.35 M-33.6 -59.1 L-45.05 -62.85 -43.95 -62.8 -42.1 -62.35 -35.95 -60.8 Q-34.7 -60.1 -33.6 -59.1 M-73.95 -64.15 L-83.25 -62.9 -83.25 -63.65 Q-82.95 -64.85 -82.05 -65.45 L-81.1 -65.8 -78.6 -65.95 -78.65 -65.9 Q-79.9 -64.55 -78.65 -64.45 L-73.95 -64.15" fill="url(#gradient1)" fill-rule="evenodd" stroke="none"/>
    <path d="M32.6 -41.35 Q44.25 -41.4 55.95 -41.85 58.9 -41.95 62.0 -42.75 L62.45 -43.55 Q62.85 -44.25 63.4 -44.4 L65.2 -44.25 65.1 -43.55 Q64.4 -39.75 60.0 -39.0 L56.95 -38.7 27.1 -38.05 21.25 -38.0 Q18.05 -41.2 13.4 -41.8 6.35 -42.7 -0.45 -44.35 L-9.25 -46.9 Q-14.55 -48.7 -19.75 -51.0 L-20.5 -51.75 Q-25.25 -56.35 -31.75 -57.0 L-33.6 -59.1 Q-34.7 -60.1 -35.95 -60.8 -39.1 -62.7 -43.25 -62.8 L-43.95 -62.8 -45.05 -62.85 -50.7 -63.0 -51.75 -63.0 -51.75 -63.05 -73.95 -64.15 -78.65 -64.45 Q-79.9 -64.55 -78.65 -65.9 L-78.6 -65.95 -78.0 -66.25 Q-66.35 -68.1 -55.25 -66.85 L-52.95 -66.55 -51.15 -66.3 -50.45 -67.0 -50.4 -67.0 Q-50.0 -67.4 -49.75 -68.0 -28.65 -77.9 -9.0 -89.25 L-7.1 -88.5 -5.95 -87.9 -6.0 -87.5 Q-16.9 -81.35 -28.75 -76.25 -37.05 -69.5 -47.6 -65.65 L-39.05 -63.35 Q-33.3 -61.45 -27.7 -58.7 -25.45 -57.6 -23.25 -56.35 L-19.7 -54.45 -14.4 -51.9 Q-9.05 -49.5 -3.45 -47.7 2.65 -45.75 9.0 -44.5 L19.5 -43.0 20.45 -42.25 21.25 -41.5 32.6 -41.35" fill="#ffffff" fill-rule="evenodd" stroke="none"/>
    <path d="M-238.8 -71.9 L-238.5 -72.0 Q-240.15 -69.0 -238.8 -71.9" fill="url(#gradient2)" fill-rule="evenodd" stroke="none"/>
    <path d="M-55.25 -66.85 Q-43.7 -71.5 -30.95 -78.8 -21.15 -84.45 -10.9 -88.7 -8.25 -89.8 -5.45 -89.15 L-7.1 -88.5 -9.0 -89.25 Q-28.65 -77.9 -49.75 -68.0 -50.0 -67.4 -50.4 -67.0 L-52.95 -66.55 -55.25 -66.85" fill="url(#gradient3)" fill-rule="evenodd" stroke="none"/>
  </g>
  <defs>
    <linearGradient gradientTransform="matrix(0.0993, 0.0377, -0.0226, 0.0594, -12.45, -48.1)" gradientUnits="userSpaceOnUse" id="gradient0" spreadMethod="pad" x1="-819.2" x2="819.2">
      <stop offset="0.0" stop-color="#669900"/>
      <stop offset="0.027450980392156862" stop-color="#537201"/>
      <stop offset="1.0" stop-color="#a7c91d"/>
    </linearGradient>
    <linearGradient gradientTransform="matrix(0.0854, 0.0324, -0.0085, 0.0224, -6.7, -54.8)" gradientUnits="userSpaceOnUse" id="gradient1" spreadMethod="pad" x1="-819.2" x2="819.2">
      <stop offset="0.0" stop-color="#669900"/>
      <stop offset="0.027450980392156862" stop-color="#537201"/>
      <stop offset="1.0" stop-color="#a7c91d"/>
    </linearGradient>
    <linearGradient gradientTransform="matrix(5.0E-4, 0.0, 0.0, 9.0E-4, -238.95, -71.25)" gradientUnits="userSpaceOnUse" id="gradient2" spreadMethod="pad" x1="-819.2" x2="819.2">
      <stop offset="0.0" stop-color="#669900"/>
      <stop offset="0.027450980392156862" stop-color="#537201"/>
      <stop offset="1.0" stop-color="#a7c91d"/>
    </linearGradient>
    <linearGradient gradientTransform="matrix(0.0229, 0.0087, -0.0087, 0.0228, -31.35, -77.65)" gradientUnits="userSpaceOnUse" id="gradient3" spreadMethod="pad" x1="-819.2" x2="819.2">
      <stop offset="0.0" stop-color="#669900"/>
      <stop offset="0.027450980392156862" stop-color="#537201"/>
      <stop offset="1.0" stop-color="#a7c91d"/>
    </linearGradient>
  </defs>
</svg>
