<?xml version="1.0" encoding="UTF-8" standalone="no"?>
<svg xmlns:ffdec="https://www.free-decompiler.com/flash" xmlns:xlink="http://www.w3.org/1999/xlink" ffdec:objectType="shape" height="105.85px" width="320.7px" xmlns="http://www.w3.org/2000/svg">
  <g transform="matrix(1.0, 0.0, 0.0, 1.0, 232.65, 5.3)">
    <path d="M87.05 35.75 L88.05 35.9 86.65 41.75 86.2 42.25 Q54.2 75.45 14.2 97.25 8.9 100.1 2.8 100.4 -46.55 102.9 -70.9 58.85 L-71.5 58.65 -72.1 57.75 Q-72.9 56.7 -72.7 55.25 L-73.1 54.7 -74.2 53.9 -74.2 53.6 Q-75.4 52.65 -74.55 51.2 L-75.4 50.25 -77.55 47.35 Q-79.75 49.95 -85.35 52.3 -89.9 54.1 -93.9 51.5 L-94.3 49.8 -94.15 48.4 Q-85.9 45.25 -78.3 41.3 -75.35 29.1 -69.6 18.45 -67.85 15.05 -64.95 12.75 L-64.55 12.8 -61.45 9.9 Q-59.2 7.5 -57.05 6.25 L-56.9 6.25 -56.8 5.95 -55.5 5.05 Q-53.55 4.05 -51.9 2.8 L-50.9 3.15 -50.4 2.15 Q-7.25 -16.4 32.3 11.3 50.3 23.95 69.55 34.35 76.5 38.1 83.35 35.3 L84.1 35.4 87.05 35.75 M40.75 50.35 L38.55 49.95 Q8.8 44.35 -21.15 40.25 -27.0 38.2 -32.95 36.95 L-41.7 35.75 Q-31.7 30.65 -24.25 22.95 -13.05 16.5 -3.0 9.1 L-3.0 8.7 -4.2 8.25 -2.65 7.4 Q-5.5 7.1 -8.0 8.5 -17.7 13.9 -26.7 20.7 -38.55 29.45 -49.45 35.45 -60.6 35.5 -71.95 38.7 L-72.5 39.1 -75.0 39.55 Q-75.5 39.65 -75.9 40.0 -76.7 40.7 -76.85 41.9 L-76.8 42.65 Q-72.35 41.3 -67.7 40.3 L-45.5 38.75 -45.5 38.8 -44.45 38.7 -38.85 38.15 -27.05 40.55 -24.95 42.4 Q-18.4 42.3 -13.15 46.3 L-12.35 47.0 Q-6.9 48.6 -1.45 49.8 17.0 65.0 40.6 67.05 L40.4 66.2 Q21.65 62.85 7.6 51.3 L21.65 52.15 Q26.35 52.2 29.9 55.05 L35.7 54.3 37.55 54.75 Q56.05 54.35 73.3 48.2 L73.8 47.55 Q76.6 43.85 77.5 40.75 L72.75 44.3 72.75 43.65 71.0 43.7 Q70.45 43.9 70.15 44.6 L69.8 45.45 Q66.8 46.65 63.9 47.1 L40.75 50.35 M-12.7 43.55 L-8.7 44.4 -7.15 45.45 -12.7 43.55 M4.25 48.3 L2.7 46.8 17.0 50.05 Q10.55 49.55 4.25 48.3 M-29.6 39.15 L-35.85 38.35 -37.7 38.1 -37.05 38.0 Q-32.9 37.6 -29.6 39.15 M-44.65 34.7 L-44.7 34.7 -45.3 35.5 -47.1 35.45 -44.65 34.7" fill="url(#gradient0)" fill-rule="evenodd" stroke="none"/>
    <path d="M-21.15 40.25 Q8.8 44.35 38.55 49.95 L40.75 50.35 29.5 51.55 28.6 50.9 27.55 50.25 Q22.2 50.4 17.0 50.05 L2.7 46.8 4.25 48.3 Q-1.55 47.15 -7.15 45.45 L-8.7 44.4 -12.7 43.55 -16.45 42.05 -21.15 40.25 M72.75 44.3 L77.5 40.75 Q76.6 43.85 73.8 47.55 L73.3 48.2 Q56.05 54.35 37.55 54.75 L35.7 54.3 65.3 50.1 68.25 49.45 Q72.5 48.2 72.75 44.3 M7.6 51.3 Q21.65 62.85 40.4 66.2 L40.6 67.05 Q17.0 65.0 -1.45 49.8 L7.6 51.3 M-27.05 40.55 L-38.85 38.15 -37.7 38.1 -35.85 38.35 -29.6 39.15 Q-28.25 39.7 -27.05 40.55 M-67.7 40.3 Q-72.35 41.3 -76.8 42.65 L-76.85 41.9 Q-76.7 40.7 -75.9 40.0 -75.5 39.65 -75.0 39.55 L-72.5 39.1 -72.55 39.15 Q-73.65 40.65 -72.35 40.6 L-67.7 40.3" fill="url(#gradient1)" fill-rule="evenodd" stroke="none"/>
    <path d="M40.75 50.35 L63.9 47.1 Q66.8 46.65 69.8 45.45 L70.15 44.6 Q70.45 43.9 71.0 43.7 L72.75 43.65 72.75 44.3 Q72.5 48.2 68.25 49.45 L65.3 50.1 35.7 54.3 29.9 55.05 Q26.35 52.2 21.65 52.15 L7.6 51.3 -1.45 49.8 Q-6.9 48.6 -12.35 47.0 L-13.15 46.3 Q-18.4 42.3 -24.95 42.4 L-27.05 40.55 Q-28.25 39.7 -29.6 39.15 -32.9 37.6 -37.05 38.0 L-37.7 38.1 -38.85 38.15 -44.45 38.7 -45.5 38.8 -45.5 38.75 -67.7 40.3 -72.35 40.6 Q-73.65 40.65 -72.55 39.15 L-72.5 39.1 -71.95 38.7 Q-60.6 35.5 -49.45 35.45 L-47.1 35.45 -45.3 35.5 -44.7 34.7 -44.65 34.7 -44.15 33.65 Q-24.35 21.35 -6.2 7.7 L-4.2 8.25 -3.0 8.7 -3.0 9.1 Q-13.05 16.5 -24.25 22.95 -31.7 30.65 -41.7 35.75 L-32.95 36.95 Q-27.0 38.2 -21.15 40.25 L-16.45 42.05 -12.7 43.55 -7.15 45.45 Q-1.55 47.15 4.25 48.3 10.55 49.55 17.0 50.05 22.2 50.4 27.55 50.25 L28.6 50.9 29.5 51.55 40.75 50.35" fill="#ffffff" fill-rule="evenodd" stroke="none"/>
    <path d="M-232.25 52.1 L-231.95 52.0 Q-233.2 55.15 -232.25 52.1" fill="url(#gradient2)" fill-rule="evenodd" stroke="none"/>
    <path d="M-49.45 35.45 Q-38.55 29.45 -26.7 20.7 -17.7 13.9 -8.0 8.5 -5.5 7.1 -2.65 7.4 L-4.2 8.25 -6.2 7.7 Q-24.35 21.35 -44.15 33.65 L-44.65 34.7 -47.1 35.45 -49.45 35.45" fill="url(#gradient3)" fill-rule="evenodd" stroke="none"/>
  </g>
  <defs>
    <linearGradient gradientTransform="matrix(0.103, 0.0257, -0.0154, 0.0617, -4.75, 48.95)" gradientUnits="userSpaceOnUse" id="gradient0" spreadMethod="pad" x1="-819.2" x2="819.2">
      <stop offset="0.0" stop-color="#669900"/>
      <stop offset="0.027450980392156862" stop-color="#537201"/>
      <stop offset="1.0" stop-color="#a7c91d"/>
    </linearGradient>
    <linearGradient gradientTransform="matrix(0.0886, 0.0221, -0.0058, 0.0232, 0.15, 41.65)" gradientUnits="userSpaceOnUse" id="gradient1" spreadMethod="pad" x1="-819.2" x2="819.2">
      <stop offset="0.0" stop-color="#669900"/>
      <stop offset="0.027450980392156862" stop-color="#537201"/>
      <stop offset="1.0" stop-color="#a7c91d"/>
    </linearGradient>
    <linearGradient gradientTransform="matrix(5.0E-4, -1.0E-4, 1.0E-4, 9.0E-4, -232.3, 52.8)" gradientUnits="userSpaceOnUse" id="gradient2" spreadMethod="pad" x1="-819.2" x2="819.2">
      <stop offset="0.0" stop-color="#669900"/>
      <stop offset="0.027450980392156862" stop-color="#537201"/>
      <stop offset="1.0" stop-color="#a7c91d"/>
    </linearGradient>
    <linearGradient gradientTransform="matrix(0.0238, 0.0059, -0.0059, 0.0237, -27.0, 21.85)" gradientUnits="userSpaceOnUse" id="gradient3" spreadMethod="pad" x1="-819.2" x2="819.2">
      <stop offset="0.0" stop-color="#669900"/>
      <stop offset="0.027450980392156862" stop-color="#537201"/>
      <stop offset="1.0" stop-color="#a7c91d"/>
    </linearGradient>
  </defs>
</svg>
