<?xml version="1.0" encoding="UTF-8" standalone="no"?>
<svg xmlns:ffdec="https://www.free-decompiler.com/flash" xmlns:xlink="http://www.w3.org/1999/xlink" ffdec:objectType="shape" height="110.25px" width="294.3px" xmlns="http://www.w3.org/2000/svg">
  <g transform="matrix(1.0, 0.0, 0.0, 1.0, 235.95, -84.6)">
    <path d="M58.15 98.25 Q58.45 101.0 58.35 103.85 58.4 104.15 58.05 104.4 36.8 142.6 5.25 172.35 1.0 176.25 -4.6 178.1 -49.85 192.7 -83.95 158.95 L-84.6 158.95 -85.35 158.25 Q-86.35 157.5 -86.55 156.15 L-87.1 155.75 -88.25 155.3 -88.4 155.0 Q-89.7 154.5 -89.35 152.95 L-90.4 152.3 -93.15 150.2 Q-94.5 153.1 -99.15 156.65 -102.85 159.4 -107.25 158.1 L-108.1 156.65 -108.3 155.3 Q-101.4 150.45 -95.4 144.95 -95.8 133.15 -93.2 122.05 -92.4 118.55 -90.35 115.7 L-89.95 115.7 -87.85 112.25 Q-86.35 109.55 -84.65 107.9 L-84.5 107.85 -84.55 107.55 -83.5 106.45 -80.75 103.45 -79.75 103.5 -79.5 102.5 Q-44.1 74.85 -0.15 89.95 19.9 96.9 40.5 101.5 47.95 103.15 53.6 98.85 L54.3 98.75 57.15 98.4 58.15 98.25 M14.15 128.05 L15.95 127.95 Q33.15 123.0 47.6 113.05 L47.9 112.35 Q49.55 108.3 49.55 105.25 L46.1 109.65 45.95 109.05 Q44.9 109.05 44.25 109.6 43.8 109.85 43.7 110.65 L43.65 111.5 Q41.1 113.3 38.55 114.45 28.25 119.05 17.85 123.2 L15.7 123.4 Q-13.5 125.8 -42.4 129.65 -48.4 129.25 -54.25 129.65 L-62.75 130.7 Q-54.7 123.6 -49.75 114.75 -41.05 106.1 -33.55 96.9 L-33.65 96.5 -34.9 96.4 -33.7 95.25 Q-36.4 95.65 -38.4 97.55 -46.0 104.9 -52.65 113.3 -61.4 124.2 -70.05 132.4 -80.4 135.25 -90.15 141.0 -90.45 141.15 -90.55 141.45 L-92.7 142.5 -93.5 143.15 Q-94.05 144.0 -93.85 145.1 L-93.65 145.8 Q-89.8 143.45 -85.75 141.4 L-65.55 134.45 -65.5 134.45 -64.55 134.05 -59.45 132.2 -47.85 131.4 Q-46.6 131.85 -45.4 132.55 -39.35 130.8 -33.4 133.1 L-32.45 133.5 Q-27.05 133.65 -21.6 133.25 -0.55 142.45 22.0 138.35 21.75 137.65 21.55 137.65 3.25 139.3 -12.8 132.4 -6.1 131.4 0.55 129.65 4.9 128.55 8.95 130.15 L14.15 128.05 M-4.4 128.85 Q-10.55 130.1 -16.75 130.55 L-18.5 129.6 -4.4 128.85 M-28.05 130.85 L-33.7 130.45 -29.75 130.2 -28.05 130.85 M-65.75 130.5 L-65.75 130.55 -66.15 131.4 -67.85 131.75 -65.75 130.5 M-58.45 131.85 L-57.8 131.65 Q-54.05 130.2 -50.55 130.75 L-56.65 131.6 -58.45 131.85" fill="url(#gradient0)" fill-rule="evenodd" stroke="none"/>
    <path d="M46.1 109.65 Q46.8 113.3 43.2 115.5 L40.6 116.8 14.15 128.05 8.95 130.15 Q4.9 128.55 0.55 129.65 -6.1 131.4 -12.8 132.4 L-21.6 133.25 Q-27.05 133.65 -32.45 133.5 L-33.4 133.1 Q-39.35 130.8 -45.4 132.55 -46.6 131.85 -47.85 131.4 L-50.55 130.75 Q-54.05 130.2 -57.8 131.65 L-58.45 131.85 -59.45 132.2 -64.55 134.05 -65.5 134.45 -65.55 134.45 -85.75 141.4 -90.05 142.8 Q-91.2 143.15 -90.6 141.55 L-90.55 141.45 Q-90.45 141.15 -90.15 141.0 -80.4 135.25 -70.05 132.4 L-67.85 131.75 -66.15 131.4 -65.75 130.55 -65.75 130.5 -65.55 129.4 Q-50.3 113.3 -36.9 96.4 L-34.9 96.4 -33.65 96.5 -33.55 96.9 Q-41.05 106.1 -49.75 114.75 -54.7 123.6 -62.75 130.7 L-54.25 129.65 Q-48.4 129.25 -42.4 129.65 L-37.6 130.1 -33.7 130.45 -28.05 130.85 Q-22.4 130.95 -16.75 130.55 -10.55 130.1 -4.4 128.85 L5.55 126.45 6.7 126.75 7.65 127.1 17.85 123.2 Q28.25 119.05 38.55 114.45 41.1 113.3 43.65 111.5 L43.7 110.65 Q43.8 109.85 44.25 109.6 44.9 109.05 45.95 109.05 L46.1 109.65" fill="#ffffff" fill-rule="evenodd" stroke="none"/>
    <path d="M14.15 128.05 L40.6 116.8 43.2 115.5 Q46.8 113.3 46.1 109.65 L49.55 105.25 Q49.55 108.3 47.9 112.35 L47.6 113.05 Q33.15 123.0 15.95 127.95 L14.15 128.05 M17.85 123.2 L7.65 127.1 6.7 126.75 5.55 126.45 -4.4 128.85 -18.5 129.6 -16.75 130.55 Q-22.4 130.95 -28.05 130.85 L-29.75 130.2 -33.7 130.45 -37.6 130.1 -42.4 129.65 Q-13.5 125.8 15.7 123.4 L17.85 123.2 M-90.55 141.45 L-90.6 141.55 Q-91.2 143.15 -90.05 142.8 L-85.75 141.4 Q-89.8 143.45 -93.65 145.8 L-93.85 145.1 Q-94.05 144.0 -93.5 143.15 L-92.7 142.5 -90.55 141.45 M-59.45 132.2 L-58.45 131.85 -56.65 131.6 -50.55 130.75 -47.85 131.4 -59.45 132.2 M-21.6 133.25 L-12.8 132.4 Q3.25 139.3 21.55 137.65 21.75 137.65 22.0 138.35 -0.55 142.45 -21.6 133.25" fill="url(#gradient1)" fill-rule="evenodd" stroke="none"/>
    <path d="M-34.9 96.4 L-36.9 96.4 Q-50.3 113.3 -65.55 129.4 L-65.75 130.5 -67.85 131.75 -70.05 132.4 Q-61.4 124.2 -52.65 113.3 -46.0 104.9 -38.4 97.55 -36.4 95.65 -33.7 95.25 L-34.9 96.4" fill="url(#gradient2)" fill-rule="evenodd" stroke="none"/>
    <path d="M-235.9 193.4 L-235.7 193.2 Q-236.05 196.4 -235.9 193.4" fill="url(#gradient3)" fill-rule="evenodd" stroke="none"/>
  </g>
  <defs>
    <linearGradient gradientTransform="matrix(0.1026, -0.0027, 0.0016, 0.0597, -24.9, 133.35)" gradientUnits="userSpaceOnUse" id="gradient0" spreadMethod="pad" x1="-819.2" x2="819.2">
      <stop offset="0.0" stop-color="#669900"/>
      <stop offset="0.027450980392156862" stop-color="#537201"/>
      <stop offset="1.0" stop-color="#a7c91d"/>
    </linearGradient>
    <linearGradient gradientTransform="matrix(0.0882, -0.0023, 6.0E-4, 0.0225, -22.25, 125.5)" gradientUnits="userSpaceOnUse" id="gradient1" spreadMethod="pad" x1="-819.2" x2="819.2">
      <stop offset="0.0" stop-color="#669900"/>
      <stop offset="0.027450980392156862" stop-color="#537201"/>
      <stop offset="1.0" stop-color="#a7c91d"/>
    </linearGradient>
    <linearGradient gradientTransform="matrix(0.0237, -6.0E-4, 6.0E-4, 0.0229, -52.6, 114.45)" gradientUnits="userSpaceOnUse" id="gradient2" spreadMethod="pad" x1="-819.2" x2="819.2">
      <stop offset="0.0" stop-color="#669900"/>
      <stop offset="0.027450980392156862" stop-color="#537201"/>
      <stop offset="1.0" stop-color="#a7c91d"/>
    </linearGradient>
    <linearGradient gradientTransform="matrix(5.0E-4, -2.0E-4, 4.0E-4, 8.0E-4, -235.85, 194.0)" gradientUnits="userSpaceOnUse" id="gradient3" spreadMethod="pad" x1="-819.2" x2="819.2">
      <stop offset="0.0" stop-color="#669900"/>
      <stop offset="0.027450980392156862" stop-color="#537201"/>
      <stop offset="1.0" stop-color="#a7c91d"/>
    </linearGradient>
  </defs>
</svg>
