<?xml version="1.0" encoding="UTF-8" standalone="no"?>
<svg xmlns:ffdec="https://www.free-decompiler.com/flash" xmlns:xlink="http://www.w3.org/1999/xlink" ffdec:objectType="shape" height="107.9px" width="320.65px" xmlns="http://www.w3.org/2000/svg">
  <g transform="matrix(1.0, 0.0, 0.0, 1.0, 245.35, -195.55)">
    <path d="M74.35 249.15 L75.3 249.4 73.25 255.0 72.75 255.45 Q37.0 284.7 -5.3 301.6 -10.9 303.8 -17.0 303.4 -66.3 300.0 -85.3 253.35 L-85.85 253.1 -86.35 252.15 Q-87.0 251.0 -86.65 249.6 L-87.0 249.0 -87.95 248.05 -87.95 247.75 Q-89.0 246.7 -88.0 245.35 L-88.75 244.3 -90.55 241.15 Q-93.05 243.5 -98.9 245.15 -103.55 246.4 -107.25 243.4 L-107.45 241.6 -107.15 240.25 Q-98.6 238.1 -90.6 235.05 -86.2 223.3 -79.2 213.4 -77.1 210.25 -73.9 208.25 L-73.55 208.4 -70.15 205.85 Q-67.6 203.75 -65.3 202.8 L-65.15 202.8 -65.05 202.5 -63.65 201.8 Q-61.55 201.0 -59.8 199.95 -59.35 200.15 -58.85 200.4 L-58.2 199.45 Q-13.15 186.15 22.85 218.35 39.25 233.05 57.1 245.65 63.6 250.2 70.7 248.2 L71.45 248.4 74.35 249.15 M26.65 258.15 L24.5 257.5 Q-4.4 248.4 -33.65 240.8 -39.25 238.05 -45.0 236.15 -49.25 234.75 -53.55 233.85 -43.0 230.0 -34.7 223.25 -22.85 218.15 -11.95 212.0 L-11.9 211.6 -13.05 211.0 -11.4 210.35 Q-14.2 209.7 -16.85 210.8 -27.1 215.05 -36.9 220.7 -49.65 228.0 -61.2 232.65 -72.3 231.4 -83.95 233.25 L-84.55 233.55 -87.05 233.7 Q-87.6 233.75 -88.0 234.05 -88.9 234.65 -89.2 235.85 L-89.2 236.6 -79.9 235.35 -57.7 236.45 -57.7 236.5 -56.65 236.5 -51.0 236.65 -39.55 240.4 -37.7 242.5 Q-31.2 243.15 -26.45 247.75 L-25.7 248.5 Q-20.5 250.8 -15.2 252.6 1.3 269.9 24.55 274.7 L24.4 273.85 Q6.2 268.3 -6.4 255.15 0.4 256.8 7.45 257.7 12.1 258.3 15.3 261.5 L21.15 261.45 22.9 262.1 Q41.35 263.95 59.25 259.85 L59.8 259.25 Q63.0 255.95 64.25 252.95 L59.15 255.95 59.25 255.25 57.45 255.1 Q56.9 255.25 56.5 255.95 L56.05 256.75 50.0 257.65 Q38.3 258.1 26.65 258.15 M-25.65 245.05 L-21.75 246.4 -20.35 247.6 -25.65 245.05 M-9.4 251.8 L-10.75 250.15 3.05 255.0 Q-3.3 253.75 -9.4 251.8 M-41.9 238.7 L-48.05 237.15 -49.9 236.7 -49.2 236.7 Q-45.05 236.8 -41.9 238.7 M-56.35 232.5 L-56.4 232.5 -57.1 233.2 -58.9 232.95 -56.35 232.5" fill="url(#gradient0)" fill-rule="evenodd" stroke="none"/>
    <path d="M-33.65 240.8 Q-4.4 248.4 24.5 257.5 L26.65 258.15 15.3 258.0 14.5 257.25 13.55 256.5 3.05 255.0 -10.75 250.15 -9.4 251.8 Q-15.0 250.0 -20.35 247.6 L-21.75 246.4 -25.65 245.05 -29.2 243.15 -33.65 240.8 M59.15 255.95 L64.25 252.95 Q63.0 255.95 59.8 259.25 L59.25 259.85 Q41.35 263.95 22.9 262.1 L21.15 261.45 51.0 260.8 54.05 260.5 Q58.45 259.75 59.15 255.95 M-6.4 255.15 Q6.2 268.3 24.4 273.85 L24.55 274.7 Q1.3 269.9 -15.2 252.6 L-6.4 255.15 M-39.55 240.4 L-51.0 236.65 -49.9 236.7 -48.05 237.15 -41.9 238.7 -39.55 240.4 M-79.9 235.35 L-89.2 236.6 -89.2 235.85 Q-88.9 234.65 -88.0 234.05 -87.6 233.75 -87.05 233.7 L-84.55 233.55 -84.6 233.6 Q-85.85 234.95 -84.6 235.05 L-79.9 235.35" fill="url(#gradient1)" fill-rule="evenodd" stroke="none"/>
    <path d="M26.65 258.15 Q38.3 258.1 50.0 257.65 L56.05 256.75 56.5 255.95 Q56.9 255.25 57.45 255.1 L59.25 255.25 59.15 255.95 Q58.45 259.75 54.05 260.5 L51.0 260.8 21.15 261.45 15.3 261.5 Q12.1 258.3 7.45 257.7 0.4 256.8 -6.4 255.15 L-15.2 252.6 Q-20.5 250.8 -25.7 248.5 L-26.45 247.75 Q-31.2 243.15 -37.7 242.5 L-39.55 240.4 -41.9 238.7 Q-45.05 236.8 -49.2 236.7 L-49.9 236.7 -51.0 236.65 -56.65 236.5 -57.7 236.5 -57.7 236.45 -79.9 235.35 -84.6 235.05 Q-85.85 234.95 -84.6 233.6 L-84.55 233.55 -83.95 233.25 Q-72.3 231.4 -61.2 232.65 L-58.9 232.95 -57.1 233.2 -56.4 232.5 -56.35 232.5 -55.7 231.5 Q-34.6 221.6 -14.95 210.25 L-13.05 211.0 -11.9 211.6 -11.95 212.0 Q-22.85 218.15 -34.7 223.25 -43.0 230.0 -53.55 233.85 -49.25 234.75 -45.0 236.15 -39.25 238.05 -33.65 240.8 L-29.2 243.15 -25.65 245.05 -20.35 247.6 Q-15.0 250.0 -9.4 251.8 -3.3 253.75 3.05 255.0 L13.55 256.5 14.5 257.25 15.3 258.0 26.65 258.15" fill="#ffffff" fill-rule="evenodd" stroke="none"/>
    <path d="M-244.75 227.6 L-244.45 227.5 Q-246.1 230.5 -244.75 227.6" fill="url(#gradient2)" fill-rule="evenodd" stroke="none"/>
    <path d="M-61.2 232.65 Q-49.65 228.0 -36.9 220.7 -27.1 215.05 -16.85 210.8 -14.2 209.7 -11.4 210.35 L-13.05 211.0 -14.95 210.25 Q-34.6 221.6 -55.7 231.5 L-56.35 232.5 -58.9 232.95 -61.2 232.65" fill="url(#gradient3)" fill-rule="evenodd" stroke="none"/>
  </g>
  <defs>
    <linearGradient gradientTransform="matrix(0.0993, 0.0377, -0.0226, 0.0594, -18.4, 251.4)" gradientUnits="userSpaceOnUse" id="gradient0" spreadMethod="pad" x1="-819.2" x2="819.2">
      <stop offset="0.0" stop-color="#669900"/>
      <stop offset="0.027450980392156862" stop-color="#537201"/>
      <stop offset="1.0" stop-color="#a7c91d"/>
    </linearGradient>
    <linearGradient gradientTransform="matrix(0.0854, 0.0324, -0.0085, 0.0224, -12.65, 244.7)" gradientUnits="userSpaceOnUse" id="gradient1" spreadMethod="pad" x1="-819.2" x2="819.2">
      <stop offset="0.0" stop-color="#669900"/>
      <stop offset="0.027450980392156862" stop-color="#537201"/>
      <stop offset="1.0" stop-color="#a7c91d"/>
    </linearGradient>
    <linearGradient gradientTransform="matrix(5.0E-4, 0.0, 0.0, 9.0E-4, -244.9, 228.25)" gradientUnits="userSpaceOnUse" id="gradient2" spreadMethod="pad" x1="-819.2" x2="819.2">
      <stop offset="0.0" stop-color="#669900"/>
      <stop offset="0.027450980392156862" stop-color="#537201"/>
      <stop offset="1.0" stop-color="#a7c91d"/>
    </linearGradient>
    <linearGradient gradientTransform="matrix(0.0229, 0.0087, -0.0087, 0.0228, -37.3, 221.85)" gradientUnits="userSpaceOnUse" id="gradient3" spreadMethod="pad" x1="-819.2" x2="819.2">
      <stop offset="0.0" stop-color="#669900"/>
      <stop offset="0.027450980392156862" stop-color="#537201"/>
      <stop offset="1.0" stop-color="#a7c91d"/>
    </linearGradient>
  </defs>
</svg>
