<?xml version="1.0" encoding="UTF-8" standalone="no"?>
<svg xmlns:ffdec="https://www.free-decompiler.com/flash" xmlns:xlink="http://www.w3.org/1999/xlink" ffdec:objectType="shape" height="104.9px" width="318.1px" xmlns="http://www.w3.org/2000/svg">
  <g transform="matrix(1.0, 0.0, 0.0, 1.0, 244.15, -234.65)">
    <path d="M23.3 290.0 L25.15 290.3 Q43.6 288.4 60.3 280.85 L60.7 280.1 Q63.2 276.3 63.8 273.1 L59.4 277.05 59.35 276.35 57.6 276.55 Q57.05 276.8 56.85 277.6 L56.55 278.4 Q53.65 279.85 50.8 280.55 L28.05 285.7 25.8 285.45 Q-4.3 282.35 -34.45 280.7 -40.5 279.15 -46.5 278.45 L-55.35 277.9 Q-45.8 272.05 -39.0 263.7 -28.45 256.35 -18.95 248.2 L-19.0 247.75 -20.25 247.4 -18.75 246.45 Q-21.65 246.4 -24.0 248.0 -33.2 254.2 -41.7 261.65 -52.7 271.35 -63.1 278.2 -74.2 279.2 -85.25 283.35 L-85.75 283.75 -88.2 284.4 Q-88.75 284.55 -89.0 284.95 -89.8 285.75 -89.85 286.95 L-89.7 287.7 Q-85.4 286.0 -80.85 284.6 L-58.9 281.25 -58.9 281.3 -57.85 281.1 -52.3 280.1 -40.35 281.5 -38.1 283.15 Q-31.6 282.5 -26.05 286.1 L-25.15 286.7 -14.05 288.6 Q5.55 302.25 29.3 302.3 L28.95 301.5 Q10.0 299.7 -4.9 289.35 2.05 289.55 9.15 289.05 13.8 288.75 17.6 291.2 L23.3 290.0 M72.95 267.35 L73.95 267.4 73.05 273.3 72.65 273.85 Q43.5 309.6 5.4 334.6 0.4 337.85 -5.7 338.7 -54.6 345.15 -82.55 303.3 L-83.1 303.15 -83.8 302.3 Q-84.7 301.35 -84.6 299.9 L-85.1 299.4 -86.2 298.65 -86.25 298.35 Q-87.5 297.55 -86.75 296.0 L-87.7 295.15 -90.1 292.4 Q-92.1 295.2 -97.5 298.0 -101.8 300.15 -106.0 297.95 L-106.55 296.25 -106.6 294.8 Q-98.6 291.0 -91.35 286.4 -89.4 274.05 -84.55 262.95 -83.1 259.5 -80.35 256.9 L-80.0 256.95 -77.2 253.8 Q-75.1 251.2 -73.05 249.8 L-72.9 249.8 -72.85 249.45 -71.65 248.5 -68.2 245.95 -67.25 246.2 -66.75 245.1 Q-25.3 223.1 16.4 247.45 35.4 258.55 55.35 267.35 62.65 270.5 69.2 267.15 L69.95 267.2 72.95 267.35 M-25.8 283.25 L-21.7 283.85 -20.1 284.7 -25.8 283.25 M-8.55 286.6 L-10.2 285.3 4.3 287.3 -8.55 286.6 M-58.4 277.15 L-58.45 277.15 -58.95 277.95 -60.8 278.05 -58.4 277.15 M-51.2 279.95 L-50.55 279.8 Q-46.4 279.1 -43.0 280.3 L-49.3 280.05 -51.2 279.95" fill="url(#gradient0)" fill-rule="evenodd" stroke="none"/>
    <path d="M59.4 277.05 L63.8 273.1 Q63.2 276.3 60.7 280.1 L60.3 280.85 Q43.6 288.4 25.15 290.3 L23.3 290.0 52.4 283.45 55.35 282.5 Q59.5 280.9 59.4 277.05 M-4.9 289.35 Q10.0 299.7 28.95 301.5 L29.3 302.3 Q5.55 302.25 -14.05 288.6 L-4.9 289.35 M-40.35 281.5 L-52.3 280.1 -51.2 279.95 -49.3 280.05 -43.0 280.3 Q-41.6 280.75 -40.35 281.5 M-80.85 284.6 Q-85.4 286.0 -89.7 287.7 L-89.85 286.95 Q-89.8 285.75 -89.0 284.95 -88.75 284.55 -88.2 284.4 L-85.75 283.75 -85.8 283.8 Q-86.75 285.35 -85.5 285.2 L-80.85 284.6 M-34.45 280.7 Q-4.3 282.35 25.8 285.45 L28.05 285.7 16.9 287.8 15.95 287.2 14.85 286.7 4.3 287.3 -10.2 285.3 -8.55 286.6 -20.1 284.7 -21.7 283.85 -25.8 283.25 -29.65 282.1 -34.45 280.7" fill="url(#gradient1)" fill-rule="evenodd" stroke="none"/>
    <path d="M23.3 290.0 L17.6 291.2 Q13.8 288.75 9.15 289.05 2.05 289.55 -4.9 289.35 L-14.05 288.6 -25.15 286.7 -26.05 286.1 Q-31.6 282.5 -38.1 283.15 L-40.35 281.5 Q-41.6 280.75 -43.0 280.3 -46.4 279.1 -50.55 279.8 L-51.2 279.95 -52.3 280.1 -57.85 281.1 -58.9 281.3 -58.9 281.25 -80.85 284.6 -85.5 285.2 Q-86.75 285.35 -85.8 283.8 L-85.75 283.75 -85.25 283.35 Q-74.2 279.2 -63.1 278.2 L-60.8 278.05 -58.95 277.95 -58.45 277.15 -58.4 277.15 Q-58.05 276.65 -57.95 276.0 -39.25 262.1 -22.25 247.1 L-20.25 247.4 -19.0 247.75 -18.95 248.2 Q-28.45 256.35 -39.0 263.7 -45.8 272.05 -55.35 277.9 L-46.5 278.45 Q-40.5 279.15 -34.45 280.7 L-29.65 282.1 -25.8 283.25 -20.1 284.7 -8.55 286.6 4.3 287.3 14.85 286.7 15.95 287.2 16.9 287.8 28.05 285.7 50.8 280.55 Q53.65 279.85 56.55 278.4 L56.85 277.6 Q57.05 276.8 57.6 276.55 L59.35 276.35 59.4 277.05 Q59.5 280.9 55.35 282.5 L52.4 283.45 23.3 290.0" fill="#ffffff" fill-rule="evenodd" stroke="none"/>
    <path d="M-243.8 309.9 L-243.6 309.75 Q-244.6 313.0 -243.8 309.9" fill="url(#gradient2)" fill-rule="evenodd" stroke="none"/>
    <path d="M-63.1 278.2 Q-52.7 271.35 -41.7 261.65 -33.2 254.2 -24.0 248.0 -21.65 246.4 -18.75 246.45 L-20.25 247.4 -22.25 247.1 Q-39.25 262.1 -57.95 276.0 -58.05 276.65 -58.4 277.15 L-60.8 278.05 -63.1 278.2" fill="url(#gradient3)" fill-rule="evenodd" stroke="none"/>
  </g>
  <defs>
    <linearGradient gradientTransform="matrix(0.1047, 0.0171, -0.0102, 0.0627, -17.4, 288.05)" gradientUnits="userSpaceOnUse" id="gradient0" spreadMethod="pad" x1="-819.2" x2="819.2">
      <stop offset="0.0" stop-color="#669900"/>
      <stop offset="0.027450980392156862" stop-color="#537201"/>
      <stop offset="1.0" stop-color="#a7c91d"/>
    </linearGradient>
    <linearGradient gradientTransform="matrix(0.09, 0.0147, -0.0039, 0.0236, -13.15, 280.3)" gradientUnits="userSpaceOnUse" id="gradient1" spreadMethod="pad" x1="-819.2" x2="819.2">
      <stop offset="0.0" stop-color="#669900"/>
      <stop offset="0.027450980392156862" stop-color="#537201"/>
      <stop offset="1.0" stop-color="#a7c91d"/>
    </linearGradient>
    <linearGradient gradientTransform="matrix(5.0E-4, -1.0E-4, 2.0E-4, 9.0E-4, -243.85, 310.55)" gradientUnits="userSpaceOnUse" id="gradient2" spreadMethod="pad" x1="-819.2" x2="819.2">
      <stop offset="0.0" stop-color="#669900"/>
      <stop offset="0.027450980392156862" stop-color="#537201"/>
      <stop offset="1.0" stop-color="#a7c91d"/>
    </linearGradient>
    <linearGradient gradientTransform="matrix(0.0242, 0.004, -0.0039, 0.024, -41.85, 262.9)" gradientUnits="userSpaceOnUse" id="gradient3" spreadMethod="pad" x1="-819.2" x2="819.2">
      <stop offset="0.0" stop-color="#669900"/>
      <stop offset="0.027450980392156862" stop-color="#537201"/>
      <stop offset="1.0" stop-color="#a7c91d"/>
    </linearGradient>
  </defs>
</svg>
