<?xml version="1.0" encoding="UTF-8" standalone="no"?>
<svg xmlns:ffdec="https://www.free-decompiler.com/flash" xmlns:xlink="http://www.w3.org/1999/xlink" ffdec:objectType="shape" height="97.8px" width="325.05px" xmlns="http://www.w3.org/2000/svg">
  <g transform="matrix(1.0, 0.0, 0.0, 1.0, 248.1, -311.55)">
    <path d="M3.7 367.05 L14.3 369.1 15.25 369.8 16.1 370.55 27.55 371.3 51.25 372.35 57.4 371.9 57.85 371.2 Q58.25 370.6 58.85 370.5 L60.65 370.75 60.55 371.35 Q59.8 374.75 55.35 375.15 L52.25 375.2 22.0 373.95 16.05 373.65 Q12.85 370.6 8.15 369.8 1.0 368.55 -5.9 366.6 L-14.8 363.8 Q-20.2 361.9 -25.45 359.5 L-26.2 358.8 Q-31.0 354.35 -37.6 353.4 L-39.45 351.4 Q-40.6 350.45 -41.8 349.75 -45.0 347.85 -49.2 347.5 L-49.95 347.45 -51.05 347.35 -56.75 346.85 -57.8 346.8 -57.85 346.75 -80.35 344.4 -85.1 343.85 Q-86.4 343.7 -85.1 342.6 L-85.05 342.55 Q-84.8 342.35 -84.4 342.3 -72.6 341.35 -61.35 343.15 L-59.05 343.55 -57.2 343.9 -56.5 343.3 -55.8 342.45 Q-34.35 334.9 -14.35 325.95 -13.35 326.3 -12.4 326.75 L-11.25 327.35 -11.3 327.7 Q-22.4 332.55 -34.45 336.4 -42.9 341.9 -53.6 344.7 -49.25 345.8 -44.95 347.3 -39.1 349.3 -33.45 352.15 -31.2 353.25 -28.95 354.5 L-25.4 356.45 -20.05 359.05 Q-14.6 361.5 -8.95 363.45 -2.8 365.55 3.7 367.05" fill="#ffffff" fill-rule="evenodd" stroke="none"/>
    <path d="M27.55 371.3 L16.1 370.55 15.25 369.8 14.3 369.1 3.7 367.05 -10.3 361.9 -8.95 363.45 Q-14.6 361.5 -20.05 359.05 L-21.45 357.85 -25.4 356.45 -28.95 354.5 Q-31.2 353.25 -33.45 352.15 -3.9 360.75 25.4 370.65 L27.55 371.3 M-5.9 366.6 Q6.8 379.15 25.2 385.25 L25.35 386.0 Q1.8 380.3 -14.8 363.8 L-5.9 366.6 M-39.45 351.4 L-51.05 347.35 -49.95 347.45 -48.05 348.0 -41.8 349.75 Q-40.6 350.45 -39.45 351.4 M-80.35 344.4 L-89.8 344.95 -89.8 344.3 Q-89.5 343.25 -88.55 342.75 L-87.55 342.5 -85.05 342.55 -85.1 342.6 Q-86.4 343.7 -85.1 343.85 L-80.35 344.4 M60.55 371.35 Q63.25 370.35 65.75 369.0 64.45 371.6 61.2 374.35 L60.6 374.9 Q42.45 377.45 23.75 374.65 L22.0 373.95 52.25 375.2 55.35 375.15 Q59.8 374.75 60.55 371.35" fill="url(#gradient0)" fill-rule="evenodd" stroke="none"/>
    <path d="M27.55 371.3 L25.4 370.65 Q-3.9 360.75 -33.45 352.15 -39.1 349.3 -44.95 347.3 -49.25 345.8 -53.6 344.7 -42.9 341.9 -34.45 336.4 -22.4 332.55 -11.3 327.7 L-11.25 327.35 -12.4 326.75 -10.75 326.25 Q-13.6 325.5 -16.25 326.3 -26.7 329.5 -36.65 333.95 -49.65 339.7 -61.35 343.15 -72.6 341.35 -84.4 342.3 -84.8 342.35 -85.05 342.55 L-87.55 342.5 -88.55 342.75 Q-89.5 343.25 -89.8 344.3 L-89.8 344.95 -80.35 344.4 -57.85 346.75 -57.8 346.8 -56.75 346.85 -51.05 347.35 -39.45 351.4 -37.6 353.4 Q-31.0 354.35 -26.2 358.8 L-25.45 359.5 Q-20.2 361.9 -14.8 363.8 1.8 380.3 25.35 386.0 L25.2 385.25 Q6.8 379.15 -5.9 366.6 1.0 368.55 8.15 369.8 12.85 370.6 16.05 373.65 L22.0 373.95 23.75 374.65 Q42.45 377.45 60.6 374.9 L61.2 374.35 Q64.45 371.6 65.75 369.0 63.25 370.35 60.55 371.35 L60.65 370.75 58.85 370.5 Q58.25 370.6 57.85 371.2 L57.4 371.9 51.25 372.35 27.55 371.3 M-25.4 356.45 L-21.45 357.85 -20.05 359.05 -25.4 356.45 M-8.95 363.45 L-10.3 361.9 3.7 367.05 Q-2.8 365.55 -8.95 363.45 M76.95 366.5 Q76.1 369.05 74.85 371.4 L74.3 371.75 Q37.9 395.75 -5.05 408.25 -10.75 409.85 -16.95 409.1 -66.9 403.1 -85.9 360.2 L-86.5 359.95 -86.95 359.05 Q-87.6 357.95 -87.3 356.75 L-87.65 356.2 -88.55 355.3 -88.55 355.0 Q-89.65 354.0 -88.6 352.85 L-89.35 351.9 -91.2 348.95 Q-93.75 350.9 -99.7 352.0 -104.4 352.85 -108.15 349.95 L-108.35 348.35 -108.0 347.1 Q-99.3 345.75 -91.2 343.5 -86.65 333.25 -79.55 324.8 -77.35 322.15 -74.1 320.55 L-73.75 320.7 -70.3 318.65 Q-67.75 316.95 -65.35 316.2 L-65.25 316.25 -65.1 315.95 Q-64.4 315.6 -63.7 315.4 -61.55 314.8 -59.8 314.0 -59.3 314.2 -58.85 314.45 L-58.15 313.65 Q-12.35 304.5 23.95 335.5 40.5 349.65 58.55 362.05 65.1 366.5 72.3 365.15 L73.05 365.4 76.0 366.25 76.95 366.5 M-59.05 343.55 L-56.5 343.3 -57.2 343.9 -59.05 343.55 M-49.95 347.45 L-49.2 347.5 Q-45.0 347.85 -41.8 349.75 L-48.05 348.0 -49.95 347.45" fill="url(#gradient1)" fill-rule="evenodd" stroke="none"/>
    <path d="M-247.15 327.3 Q-248.85 329.9 -247.45 327.4 L-247.15 327.3" fill="url(#gradient2)" fill-rule="evenodd" stroke="none"/>
    <path d="M-61.35 343.15 Q-49.65 339.7 -36.65 333.95 -26.7 329.5 -16.25 326.3 -13.6 325.5 -10.75 326.25 L-12.4 326.75 Q-13.35 326.3 -14.35 325.95 -34.35 334.9 -55.8 342.45 L-56.5 343.3 -59.05 343.55 -61.35 343.15" fill="url(#gradient3)" fill-rule="evenodd" stroke="none"/>
  </g>
  <defs>
    <linearGradient gradientTransform="matrix(0.0864, 0.0342, -0.0087, 0.0195, -12.2, 356.85)" gradientUnits="userSpaceOnUse" id="gradient0" spreadMethod="pad" x1="-819.2" x2="819.2">
      <stop offset="0.0" stop-color="#669900"/>
      <stop offset="0.027450980392156862" stop-color="#537201"/>
      <stop offset="1.0" stop-color="#a7c91d"/>
    </linearGradient>
    <linearGradient gradientTransform="matrix(0.1005, 0.0398, -0.0232, 0.0518, -18.05, 362.55)" gradientUnits="userSpaceOnUse" id="gradient1" spreadMethod="pad" x1="-819.2" x2="819.2">
      <stop offset="0.0" stop-color="#669900"/>
      <stop offset="0.027450980392156862" stop-color="#537201"/>
      <stop offset="1.0" stop-color="#a7c91d"/>
    </linearGradient>
    <linearGradient gradientTransform="matrix(5.0E-4, 0.0, 0.0, 9.0E-4, -247.65, 327.95)" gradientUnits="userSpaceOnUse" id="gradient2" spreadMethod="pad" x1="-819.2" x2="819.2">
      <stop offset="0.0" stop-color="#669900"/>
      <stop offset="0.027450980392156862" stop-color="#537201"/>
      <stop offset="1.0" stop-color="#a7c91d"/>
    </linearGradient>
    <linearGradient gradientTransform="matrix(0.0232, 0.0092, -0.0089, 0.0199, -37.1, 334.95)" gradientUnits="userSpaceOnUse" id="gradient3" spreadMethod="pad" x1="-819.2" x2="819.2">
      <stop offset="0.0" stop-color="#669900"/>
      <stop offset="0.027450980392156862" stop-color="#537201"/>
      <stop offset="1.0" stop-color="#a7c91d"/>
    </linearGradient>
  </defs>
</svg>
