<?xml version="1.0" encoding="UTF-8" standalone="no"?>
<svg xmlns:ffdec="https://www.free-decompiler.com/flash" xmlns:xlink="http://www.w3.org/1999/xlink" ffdec:objectType="shape" height="95.35px" width="317.35px" xmlns="http://www.w3.org/2000/svg">
  <g transform="matrix(1.0, 0.0, 0.0, 1.0, 228.75, -410.25)">
    <path d="M44.05 448.95 L33.05 452.25 32.0 451.85 30.9 451.55 20.25 453.35 5.35 453.4 7.2 454.4 Q1.2 454.55 -4.75 454.15 L-6.45 453.5 -10.65 453.6 -14.7 453.05 -19.7 452.4 41.8 449.1 44.05 448.95 M11.15 456.25 Q27.4 463.55 46.75 462.8 46.95 462.8 47.15 463.45 23.15 466.4 1.8 456.8 L11.15 456.25 M-25.6 453.8 L-37.85 454.1 -36.8 453.8 -34.8 453.65 -28.35 453.1 Q-27.0 453.3 -25.6 453.8 M-66.3 461.6 Q-70.75 463.35 -74.95 465.4 L-75.15 464.8 Q-75.3 463.7 -74.55 462.9 L-73.7 462.3 -71.35 461.5 -71.35 461.55 Q-72.25 463.05 -70.95 462.75 L-66.3 461.6 M74.95 437.45 L79.0 433.4 Q78.7 436.35 76.6 440.0 L76.25 440.8 Q60.15 449.5 41.65 453.45 L39.8 453.4 68.55 443.95 71.45 442.8 Q75.45 440.9 74.95 437.45" fill="url(#gradient0)" fill-rule="evenodd" stroke="none"/>
    <path d="M20.25 453.35 L30.9 451.55 32.0 451.85 33.05 452.25 44.05 448.95 66.6 441.65 Q69.4 440.65 72.2 439.05 L72.35 438.25 Q72.55 437.55 73.05 437.25 73.75 436.8 74.85 436.85 L74.95 437.45 Q75.45 440.9 71.45 442.8 L68.55 443.95 39.8 453.4 34.1 455.2 Q30.05 453.45 25.35 454.35 L11.15 456.25 1.8 456.8 -9.65 456.45 -10.6 456.1 Q-16.65 453.6 -23.2 455.0 -24.3 454.3 -25.6 453.8 -27.0 453.3 -28.35 453.1 -32.05 452.4 -36.1 453.6 L-36.8 453.8 -37.85 454.1 -43.4 455.6 -44.35 455.95 -44.4 455.9 -66.3 461.6 -70.95 462.75 Q-72.25 463.05 -71.35 461.55 L-71.35 461.5 -70.8 461.05 Q-60.1 456.05 -48.95 453.75 L-46.7 453.35 -44.8 453.0 -44.35 452.2 Q-44.1 451.75 -44.0 451.15 -26.6 436.6 -11.0 421.25 L-8.9 421.3 -7.6 421.45 -7.55 421.75 Q-16.25 430.2 -26.2 438.0 -32.15 446.1 -41.2 452.45 L-32.15 451.9 -19.7 452.4 -14.7 453.05 -10.65 453.6 -4.75 454.15 Q1.2 454.55 7.2 454.4 L20.25 453.35" fill="#ffffff" fill-rule="evenodd" stroke="none"/>
    <path d="M44.05 448.95 L41.8 449.1 -19.7 452.4 -32.15 451.9 -41.2 452.45 Q-32.15 446.1 -26.2 438.0 -16.25 430.2 -7.55 421.75 L-7.6 421.45 -8.9 421.3 -7.55 420.2 Q-10.45 420.5 -12.65 422.2 -21.35 428.85 -29.1 436.5 -39.25 446.45 -48.95 453.75 -60.1 456.05 -70.8 461.05 L-71.35 461.5 -73.7 462.3 -74.55 462.9 Q-75.3 463.7 -75.15 464.8 L-74.95 465.4 Q-70.75 463.35 -66.3 461.6 L-44.4 455.9 -44.35 455.95 -43.4 455.6 -37.85 454.1 -25.6 453.8 Q-24.3 454.3 -23.2 455.0 -16.65 453.6 -10.6 456.1 L-9.65 456.45 1.8 456.8 Q23.15 466.4 47.15 463.45 46.95 462.8 46.75 462.8 27.4 463.55 11.15 456.25 L25.35 454.35 Q30.05 453.45 34.1 455.2 L39.8 453.4 41.65 453.45 Q60.15 449.5 76.25 440.8 L76.6 440.0 Q78.7 436.35 79.0 433.4 L74.95 437.45 74.85 436.85 Q73.75 436.8 73.05 437.25 72.55 437.55 72.35 438.25 L72.2 439.05 Q69.4 440.65 66.6 441.65 L44.05 448.95 M-10.65 453.6 L-6.45 453.5 -4.75 454.15 -10.65 453.6 M7.2 454.4 L5.35 453.4 20.25 453.35 7.2 454.4 M84.55 427.5 L87.6 427.3 88.6 427.15 Q88.7 429.85 88.3 432.5 L87.95 433.05 Q62.3 468.25 26.55 494.9 21.75 498.4 15.65 499.9 -33.2 511.8 -65.95 478.3 L-66.6 478.3 -67.35 477.6 Q-68.35 476.8 -68.45 475.55 L-69.0 475.2 Q-69.6 474.85 -70.15 474.65 L-70.25 474.35 Q-71.6 473.8 -71.05 472.4 L-72.1 471.75 -74.85 469.65 Q-76.55 472.35 -81.7 475.45 -85.8 477.9 -90.4 476.55 L-91.1 475.1 -91.25 473.75 Q-83.55 469.5 -76.75 464.55 -76.1 453.35 -72.4 442.95 -71.3 439.75 -68.8 437.1 L-68.45 437.1 -65.9 433.95 Q-64.15 431.5 -62.15 429.95 L-62.05 429.95 -62.0 429.65 -60.9 428.6 Q-59.1 427.3 -57.75 425.95 L-56.65 426.0 -56.3 425.0 Q-16.65 400.45 28.15 416.7 48.6 424.15 69.8 429.45 77.5 431.3 83.8 427.55 L84.55 427.5 M-44.35 452.2 L-44.8 453.0 -46.7 453.35 -44.35 452.2 M-28.35 453.1 L-34.8 453.65 -36.8 453.8 -36.1 453.6 Q-32.05 452.4 -28.35 453.1" fill="url(#gradient1)" fill-rule="evenodd" stroke="none"/>
    <path d="M-228.3 504.0 Q-229.0 507.05 -228.6 504.2 L-228.3 504.0" fill="url(#gradient2)" fill-rule="evenodd" stroke="none"/>
    <path d="M-48.95 453.75 Q-39.25 446.45 -29.1 436.5 -21.35 428.85 -12.65 422.2 -10.45 420.5 -7.55 420.2 L-8.9 421.3 -11.0 421.25 Q-26.6 436.6 -44.0 451.15 -44.1 451.75 -44.35 452.2 L-46.7 453.35 -48.95 453.75" fill="url(#gradient3)" fill-rule="evenodd" stroke="none"/>
  </g>
  <defs>
    <linearGradient gradientTransform="matrix(0.0928, 0.0017, -0.0013, 0.0213, 1.85, 449.35)" gradientUnits="userSpaceOnUse" id="gradient0" spreadMethod="pad" x1="-819.2" x2="819.2">
      <stop offset="0.0" stop-color="#669900"/>
      <stop offset="0.027450980392156862" stop-color="#537201"/>
      <stop offset="1.0" stop-color="#a7c91d"/>
    </linearGradient>
    <linearGradient gradientTransform="matrix(0.1079, 0.002, -0.0036, 0.0566, -1.7, 456.7)" gradientUnits="userSpaceOnUse" id="gradient1" spreadMethod="pad" x1="-819.2" x2="819.2">
      <stop offset="0.0" stop-color="#669900"/>
      <stop offset="0.027450980392156862" stop-color="#537201"/>
      <stop offset="1.0" stop-color="#a7c91d"/>
    </linearGradient>
    <linearGradient gradientTransform="matrix(5.0E-4, -2.0E-4, 3.0E-4, 8.0E-4, -228.6, 504.8)" gradientUnits="userSpaceOnUse" id="gradient2" spreadMethod="pad" x1="-819.2" x2="819.2">
      <stop offset="0.0" stop-color="#669900"/>
      <stop offset="0.027450980392156862" stop-color="#537201"/>
      <stop offset="1.0" stop-color="#a7c91d"/>
    </linearGradient>
    <linearGradient gradientTransform="matrix(0.0249, 5.0E-4, -0.0014, 0.0217, -29.15, 437.6)" gradientUnits="userSpaceOnUse" id="gradient3" spreadMethod="pad" x1="-819.2" x2="819.2">
      <stop offset="0.0" stop-color="#669900"/>
      <stop offset="0.027450980392156862" stop-color="#537201"/>
      <stop offset="1.0" stop-color="#a7c91d"/>
    </linearGradient>
  </defs>
</svg>
