<?xml version="1.0" encoding="UTF-8" standalone="no"?>
<svg xmlns:ffdec="https://www.free-decompiler.com/flash" xmlns:xlink="http://www.w3.org/1999/xlink" ffdec:objectType="shape" height="96.5px" width="325.8px" xmlns="http://www.w3.org/2000/svg">
  <g transform="matrix(1.0, 0.0, 0.0, 1.0, 235.55, -484.65)">
    <path d="M74.15 539.7 Q73.55 543.1 69.15 543.7 L66.05 543.95 35.8 544.15 29.9 544.1 Q26.55 541.2 21.8 540.65 L7.65 538.15 -1.35 535.75 Q-6.8 534.1 -12.15 532.0 L-12.95 531.3 Q-17.95 527.15 -24.55 526.5 L-26.5 524.6 Q-27.65 523.7 -28.95 523.05 -32.2 521.3 -36.4 521.15 L-37.15 521.15 -38.25 521.1 -44.0 520.85 -45.05 520.9 -45.05 520.8 -67.6 519.55 -72.4 519.25 Q-73.65 519.15 -72.4 517.95 L-72.4 517.9 Q-72.15 517.7 -71.75 517.65 -60.0 516.15 -48.75 517.4 L-46.4 517.7 -44.55 517.95 -43.85 517.3 -43.2 516.45 Q-22.2 507.85 -2.65 498.0 L-0.7 498.7 0.5 499.25 0.45 499.6 Q-10.4 504.95 -22.2 509.35 -30.4 515.3 -40.95 518.55 L-32.2 520.75 Q-26.25 522.5 -20.5 525.05 -18.2 526.05 -15.9 527.2 L-12.2 528.9 -6.8 531.25 Q-1.25 533.45 4.5 535.15 10.75 536.95 17.25 538.15 L27.95 539.65 28.9 540.35 29.75 541.0 41.25 541.2 64.95 541.15 71.05 540.45 71.45 539.7 Q71.85 539.05 72.4 538.95 L74.2 539.1 74.15 539.7" fill="#ffffff" fill-rule="evenodd" stroke="none"/>
    <path d="M35.8 544.15 L66.05 543.95 69.15 543.7 Q73.55 543.1 74.15 539.7 L79.2 537.1 Q78.05 539.75 74.9 542.65 L74.35 543.2 Q56.4 546.65 37.65 544.75 L35.8 544.15 M41.25 541.2 L29.75 541.0 28.9 540.35 27.95 539.65 17.25 538.15 3.05 533.65 4.5 535.15 Q-1.25 533.45 -6.8 531.25 L-8.25 530.15 -12.2 528.9 -15.9 527.2 Q-18.2 526.05 -20.5 525.05 9.4 532.2 39.05 540.65 L41.25 541.2 M-72.4 517.9 L-72.4 517.95 Q-73.65 519.15 -72.4 519.25 L-67.6 519.55 -77.0 520.55 -77.0 519.9 Q-76.75 518.85 -75.85 518.3 L-74.85 518.0 -72.4 517.9 M-38.25 521.1 L-37.15 521.15 -35.25 521.6 -28.95 523.05 Q-27.65 523.7 -26.5 524.6 L-38.25 521.1 M-1.35 535.75 L7.65 538.15 Q20.9 550.05 39.6 555.25 L39.75 556.0 Q16.0 551.4 -1.35 535.75" fill="url(#gradient0)" fill-rule="evenodd" stroke="none"/>
    <path d="M35.8 544.15 L37.65 544.75 Q56.4 546.65 74.35 543.2 L74.9 542.65 Q78.05 539.75 79.2 537.1 L74.15 539.7 74.2 539.1 72.4 538.95 Q71.85 539.05 71.45 539.7 L71.05 540.45 64.95 541.15 41.25 541.2 39.05 540.65 Q9.4 532.2 -20.5 525.05 -26.25 522.5 -32.2 520.75 L-40.95 518.55 Q-30.4 515.3 -22.2 509.35 -10.4 504.95 0.45 499.6 L0.5 499.25 -0.7 498.7 0.95 498.1 Q-1.95 497.5 -4.55 498.45 -14.8 502.15 -24.55 507.0 -37.25 513.35 -48.75 517.4 -60.0 516.15 -71.75 517.65 -72.15 517.7 -72.4 517.9 L-74.85 518.0 -75.85 518.3 Q-76.75 518.85 -77.0 519.9 L-77.0 520.55 -67.6 519.55 -45.05 520.8 -45.05 520.9 -44.0 520.85 -38.25 521.1 -26.5 524.6 -24.55 526.5 Q-17.95 527.15 -12.95 531.3 L-12.15 532.0 Q-6.8 534.1 -1.35 535.75 16.0 551.4 39.75 556.0 L39.6 555.25 Q20.9 550.05 7.65 538.15 L21.8 540.65 Q26.55 541.2 29.9 544.1 L35.8 544.15 M17.25 538.15 Q10.75 536.95 4.5 535.15 L3.05 533.65 17.25 538.15 M-6.8 531.25 L-12.2 528.9 -8.25 530.15 -6.8 531.25 M-43.85 517.3 L-44.55 517.95 -46.4 517.7 -43.85 517.3 M-37.15 521.15 L-36.4 521.15 Q-32.2 521.3 -28.95 523.05 L-35.25 521.6 -37.15 521.15 M71.7 530.5 Q78.45 534.65 85.55 532.95 L86.3 533.2 89.3 533.9 90.25 534.1 88.4 539.1 87.9 539.45 Q52.75 565.1 10.5 579.6 4.9 581.5 -1.3 581.05 -51.4 577.4 -72.4 535.55 L-73.0 535.3 -73.5 534.45 Q-74.2 533.4 -73.95 532.15 L-74.3 531.65 -75.25 530.75 Q-75.2 530.55 -75.3 530.45 -76.4 529.5 -75.4 528.35 L-76.2 527.4 -78.2 524.6 Q-80.6 526.65 -86.5 528.05 -91.2 529.1 -95.05 526.35 L-95.3 524.8 -95.05 523.55 Q-86.45 521.8 -78.45 519.15 -74.45 508.7 -67.75 500.0 -65.7 497.2 -62.55 495.45 L-62.15 495.6 -58.8 493.35 Q-56.35 491.55 -54.0 490.7 L-53.85 490.75 -53.75 490.45 -52.35 489.85 Q-50.25 489.15 -48.55 488.25 L-47.55 488.65 -46.95 487.85 Q-1.7 476.5 35.95 505.7 53.15 519.0 71.7 530.5" fill="url(#gradient1)" fill-rule="evenodd" stroke="none"/>
    <path d="M-0.7 498.7 L-2.65 498.0 Q-22.2 507.85 -43.2 516.45 L-43.85 517.3 -46.4 517.7 -48.75 517.4 Q-37.25 513.35 -24.55 507.0 -14.8 502.15 -4.55 498.45 -1.95 497.5 0.95 498.1 L-0.7 498.7" fill="url(#gradient2)" fill-rule="evenodd" stroke="none"/>
    <path d="M-235.0 510.5 L-234.7 510.4 Q-236.25 513.05 -235.0 510.5" fill="url(#gradient3)" fill-rule="evenodd" stroke="none"/>
  </g>
  <defs>
    <linearGradient gradientTransform="matrix(0.0877, 0.03, -0.0078, 0.0199, 0.95, 528.7)" gradientUnits="userSpaceOnUse" id="gradient0" spreadMethod="pad" x1="-819.2" x2="819.2">
      <stop offset="0.0" stop-color="#669900"/>
      <stop offset="0.027450980392156862" stop-color="#537201"/>
      <stop offset="1.0" stop-color="#a7c91d"/>
    </linearGradient>
    <linearGradient gradientTransform="matrix(0.102, 0.0349, -0.0207, 0.0527, -4.65, 534.65)" gradientUnits="userSpaceOnUse" id="gradient1" spreadMethod="pad" x1="-819.2" x2="819.2">
      <stop offset="0.0" stop-color="#669900"/>
      <stop offset="0.027450980392156862" stop-color="#537201"/>
      <stop offset="1.0" stop-color="#a7c91d"/>
    </linearGradient>
    <linearGradient gradientTransform="matrix(0.0236, 0.0081, -0.0079, 0.0202, -24.95, 508.05)" gradientUnits="userSpaceOnUse" id="gradient2" spreadMethod="pad" x1="-819.2" x2="819.2">
      <stop offset="0.0" stop-color="#669900"/>
      <stop offset="0.027450980392156862" stop-color="#537201"/>
      <stop offset="1.0" stop-color="#a7c91d"/>
    </linearGradient>
    <linearGradient gradientTransform="matrix(5.0E-4, 0.0, 0.0, 8.0E-4, -235.15, 511.1)" gradientUnits="userSpaceOnUse" id="gradient3" spreadMethod="pad" x1="-819.2" x2="819.2">
      <stop offset="0.0" stop-color="#669900"/>
      <stop offset="0.027450980392156862" stop-color="#537201"/>
      <stop offset="1.0" stop-color="#a7c91d"/>
    </linearGradient>
  </defs>
</svg>
