<?xml version="1.0" encoding="UTF-8" standalone="no"?>
<svg xmlns:ffdec="https://www.free-decompiler.com/flash" xmlns:xlink="http://www.w3.org/1999/xlink" ffdec:objectType="shape" height="171.65px" width="152.8px" xmlns="http://www.w3.org/2000/svg">
  <g transform="matrix(1.0, 0.0, 0.0, 1.0, 24.05, 31.05)">
    <path d="M91.7 65.15 L91.4 69.6 Q90.6 71.0 90.95 72.4 89.75 78.65 86.8 84.55 84.0 90.15 80.25 94.15 76.8 94.05 75.45 96.1 L75.2 96.35 Q74.45 97.0 74.75 97.9 L74.6 98.85 Q70.15 101.75 64.75 103.05 L59.35 103.95 Q56.6 102.2 53.8 100.85 58.65 101.45 63.7 100.25 76.95 97.0 83.7 83.0 90.4 69.0 86.65 52.45 82.9 35.9 70.9 26.5 L67.95 24.4 Q57.25 17.45 45.6 20.3 32.35 23.55 25.65 37.55 24.2 40.45 23.3 43.5 L23.2 43.3 21.85 40.25 23.45 36.65 Q26.45 30.65 30.65 26.5 32.15 26.2 33.45 25.15 34.4 24.3 34.3 23.3 39.25 19.7 45.55 18.15 L51.95 17.25 52.1 17.25 52.45 17.65 Q53.35 18.9 55.35 18.0 L56.3 17.4 Q63.35 18.15 70.05 22.3 L73.25 24.5 78.0 28.65 78.2 29.45 Q79.35 32.9 82.2 33.6 87.95 41.4 90.35 52.0 91.85 58.75 91.7 65.15 M23.35 70.8 L22.95 70.65 20.2 70.2 20.0 69.2 Q17.45 58.1 19.5 48.15 L20.0 47.65 21.45 45.45 22.75 44.8 22.95 44.7 Q19.85 55.7 22.65 68.1 L23.35 70.8 M23.7 72.0 Q27.4 84.25 36.15 92.15 L38.45 94.05 Q45.55 99.65 53.15 100.8 51.95 101.25 51.4 102.75 51.25 103.05 51.25 103.4 43.95 101.9 37.05 96.7 L34.55 94.7 34.35 94.5 Q33.9 93.25 32.85 93.05 25.65 86.1 22.0 76.2 23.4 74.75 23.7 72.0" fill="#ffcc00" fill-rule="evenodd" stroke="none"/>
    <path d="M43.05 -30.9 L43.1 -31.0 43.15 -30.95 43.45 -31.05 Q45.4 -30.7 46.7 -29.4 49.1 -27.85 49.95 -24.65 L50.55 -24.75 50.55 -24.6 Q54.15 -7.05 57.0 10.35 75.1 4.8 94.0 4.45 100.6 4.3 103.7 10.15 104.3 11.35 103.4 12.2 95.65 19.15 86.95 24.3 L86.05 25.75 109.55 29.9 Q115.9 31.1 122.25 32.8 127.35 34.15 128.6 39.3 129.15 41.65 127.35 42.05 L126.35 43.75 Q125.35 45.2 123.8 46.1 108.0 54.9 95.4 69.25 99.45 71.6 103.3 75.05 109.65 80.75 115.25 87.45 118.4 91.25 121.8 94.75 126.6 99.65 121.9 102.65 118.25 104.95 113.8 104.5 L93.45 102.95 83.2 102.25 84.65 105.5 Q86.2 109.75 88.65 113.4 90.8 116.65 92.35 120.5 L91.75 120.65 Q93.35 122.9 94.2 126.3 95.7 132.1 91.1 132.85 89.3 133.15 87.5 132.05 L77.65 126.4 Q76.45 125.8 76.6 124.45 L76.05 124.55 Q66.2 118.85 57.75 110.95 L57.45 112.0 Q53.95 122.5 47.9 131.3 L47.9 131.35 Q47.7 132.9 46.4 135.1 44.9 137.65 42.95 139.7 41.3 141.4 39.9 139.9 36.85 138.05 36.65 134.0 L36.45 134.05 36.5 133.9 30.9 101.7 4.5 111.85 Q3.7 112.15 3.25 111.1 1.15 106.35 3.85 101.6 5.55 98.5 6.6 94.9 9.35 85.45 13.2 77.05 -1.0 75.15 -15.25 75.85 -20.85 76.1 -23.65 71.7 -24.6 70.15 -23.35 69.05 -5.25 52.5 15.65 42.25 L15.7 42.25 15.7 42.2 9.5 38.6 Q3.35 35.0 -6.7 24.55 -16.75 14.1 -17.9 9.1 -19.1 4.15 -17.85 3.15 L-16.85 2.45 Q-7.05 5.6 2.65 10.65 13.2 16.05 24.4 16.8 26.9 16.95 29.0 18.0 28.75 16.1 29.5 14.05 35.4 -3.7 40.35 -21.8 40.1 -26.2 41.8 -29.2 42.1 -30.45 43.05 -30.9 M91.4 69.6 L92.45 68.2 92.65 68.0 Q91.75 66.6 91.75 65.15 L91.7 65.15 Q91.85 58.75 90.35 52.0 87.95 41.4 82.2 33.6 79.35 32.9 78.2 29.45 L78.0 28.65 73.25 24.5 70.05 22.3 Q63.35 18.15 56.3 17.4 L55.35 18.0 Q53.35 18.9 52.45 17.65 L52.1 17.25 51.9 16.85 51.95 17.25 45.55 18.15 Q39.25 19.7 34.3 23.3 34.4 24.3 33.45 25.15 32.15 26.2 30.65 26.5 26.45 30.65 23.45 36.65 L21.85 40.25 23.2 43.3 23.3 43.5 Q23.5 44.25 22.95 44.7 L22.75 44.8 21.45 45.45 20.0 47.65 19.5 48.15 Q17.45 58.1 20.0 69.2 L20.2 70.2 22.95 70.65 23.35 70.8 Q23.75 71.1 23.7 71.95 L23.7 72.0 Q23.4 74.75 22.0 76.2 25.65 86.1 32.85 93.05 33.9 93.25 34.35 94.5 L34.55 94.7 37.05 96.7 Q43.95 101.9 51.25 103.4 51.25 103.05 51.4 102.75 51.95 101.25 53.15 100.8 L53.4 100.7 53.8 100.85 Q56.6 102.2 59.35 103.95 L64.75 103.05 Q70.15 101.75 74.6 98.85 L74.75 97.9 Q74.45 97.0 75.2 96.35 L75.45 96.1 Q76.8 94.05 80.25 94.15 84.0 90.15 86.8 84.55 89.75 78.65 90.95 72.4 90.6 71.0 91.4 69.6" fill="#ffff33" fill-rule="evenodd" stroke="none"/>
    <path d="M23.3 43.5 Q24.2 40.45 25.65 37.55 32.35 23.55 45.6 20.3 57.25 17.45 67.95 24.4 L70.9 26.5 Q82.9 35.9 86.65 52.45 90.4 69.0 83.7 83.0 76.95 97.0 63.7 100.25 58.65 101.45 53.8 100.85 L53.4 100.7 53.15 100.8 Q45.55 99.65 38.45 94.05 L36.15 92.15 Q27.4 84.25 23.7 72.0 L23.7 71.95 Q23.75 71.1 23.35 70.8 L22.65 68.1 Q19.85 55.7 22.95 44.7 23.5 44.25 23.3 43.5" fill="url(#gradient0)" fill-rule="evenodd" stroke="none"/>
  </g>
  <defs>
    <linearGradient gradientTransform="matrix(0.0391, -0.0095, 0.011, 0.0488, 54.65, 60.25)" gradientUnits="userSpaceOnUse" id="gradient0" spreadMethod="pad" x1="-819.2" x2="819.2">
      <stop offset="0.0" stop-color="#ffffd5"/>
      <stop offset="0.0" stop-color="#fefe38"/>
      <stop offset="0.0" stop-color="#fefe2f"/>
      <stop offset="0.0" stop-color="#ffff81"/>
      <stop offset="0.2823529411764706" stop-color="#fffff2"/>
      <stop offset="0.7647058823529411" stop-color="#fdfd99"/>
      <stop offset="1.0" stop-color="#fefe25"/>
      <stop offset="1.0" stop-color="#ffffce"/>
    </linearGradient>
  </defs>
</svg>
