<?xml version="1.0" encoding="UTF-8" standalone="no"?>
<svg xmlns:ffdec="https://www.free-decompiler.com/flash" xmlns:xlink="http://www.w3.org/1999/xlink" ffdec:objectType="shape" height="48.75px" width="124.25px" xmlns="http://www.w3.org/2000/svg">
  <g transform="matrix(1.0, 0.0, 0.0, 1.0, 73.2, 38.75)">
    <path d="M1.8 10.0 L1.7 10.0 1.8 9.85 1.8 10.0" fill="#ffffff" fill-rule="evenodd" stroke="none"/>
    <path d="M6.05 -24.4 L6.65 -25.0 Q21.9 -35.3 40.8 -38.75 58.7 -34.95 45.3 -24.15 43.45 -22.65 40.85 -22.0 19.05 -16.5 3.2 -2.15 3.25 -1.45 2.7 -0.55 L2.55 -0.35 0.8 1.8 Q-6.95 9.85 -19.1 3.35 -41.95 -8.9 -68.95 -7.65 -72.1 -7.5 -72.85 -10.9 -74.75 -19.9 -65.6 -21.3 -48.4 -23.25 -33.1 -20.0 L-28.55 -17.8 Q-23.6 -15.35 -18.3 -14.95 -17.6 -14.6 -16.85 -14.35 L-16.3 -13.6 Q-13.7 -10.3 -10.4 -11.7 L-9.35 -11.15 -7.7 -13.0 -7.1 -13.55 -6.05 -14.65 -4.3 -16.3 -4.05 -16.55 -2.1 -18.3 Q2.2 -20.6 6.05 -24.4" fill="#333333" fill-rule="evenodd" stroke="none"/>
  </g>
</svg>
