<?xml version="1.0" encoding="UTF-8" standalone="no"?>
<svg xmlns:ffdec="https://www.free-decompiler.com/flash" xmlns:xlink="http://www.w3.org/1999/xlink" ffdec:objectType="shape" height="346.6px" width="226.75px" xmlns="http://www.w3.org/2000/svg">
  <g transform="matrix(1.0, 0.0, 0.0, 1.0, 113.4, 173.3)">
    <path d="M97.5 -107.9 Q103.85 -95.6 111.7 -85.6 L111.7 -85.55 113.15 -85.05 Q113.55 -84.3 113.1 -83.55 L112.45 -82.5 111.05 -82.55 Q91.25 -48.3 69.85 -14.55 54.0 10.5 33.7 32.4 L29.15 37.2 29.0 37.35 Q20.85 51.8 11.2 65.3 L13.4 67.35 Q11.6 68.05 10.35 69.65 L19.8 69.8 21.0 70.0 21.75 70.35 Q23.75 70.9 24.8 72.2 L25.55 73.1 25.8 73.6 25.7 73.85 25.7 73.95 Q27.6 74.55 29.45 75.5 L30.2 76.0 Q31.9 78.45 33.2 81.0 L33.35 80.85 34.05 80.3 Q46.7 79.2 55.2 71.0 L54.45 70.5 Q53.15 66.35 53.15 61.75 L53.25 60.7 Q54.15 59.45 55.7 59.4 L55.7 59.35 Q56.65 59.75 57.6 60.3 L58.0 60.7 Q58.8 63.7 58.9 66.8 L60.45 64.65 61.2 64.35 62.05 64.15 Q64.0 64.3 64.55 66.05 L64.7 66.55 62.05 70.75 Q64.45 72.65 66.0 75.5 L66.1 76.0 Q65.75 77.2 64.65 77.8 L63.45 78.25 Q60.5 77.4 58.3 75.15 49.2 84.2 34.75 84.85 37.05 91.65 35.95 99.1 L34.85 104.15 Q34.3 105.85 32.95 106.6 L32.95 106.85 33.15 106.85 34.4 107.1 Q44.1 124.75 57.6 139.65 59.4 141.65 60.45 144.15 60.55 145.0 59.95 145.7 L59.05 146.55 55.5 148.05 Q60.4 152.9 63.4 158.7 64.2 160.25 63.65 162.05 L60.45 164.4 60.1 164.6 55.15 164.45 Q51.15 161.15 48.3 156.8 L46.9 155.15 46.2 152.2 Q42.45 153.95 38.8 155.85 L36.7 154.25 Q28.9 148.1 23.3 139.6 L22.6 138.5 Q22.55 143.15 20.55 147.55 L19.6 149.15 19.35 154.25 Q19.3 155.1 18.75 155.85 L17.8 156.1 15.6 156.2 12.15 156.35 13.1 162.2 13.25 163.25 Q14.7 164.1 15.6 165.2 17.35 167.2 17.3 169.95 L15.6 171.3 Q9.7 175.25 1.65 171.45 0.4 164.8 0.75 157.55 L0.8 156.75 -3.45 156.9 Q-4.9 158.4 -6.8 157.55 L-8.0 156.45 -8.2 156.0 -8.2 155.0 -8.2 153.45 Q0.25 131.55 4.9 108.5 L4.45 108.3 2.85 97.3 Q-7.65 106.7 -17.4 117.0 -16.15 118.95 -15.25 121.2 -15.1 121.65 -15.1 122.2 -15.55 124.05 -17.55 124.2 L-18.25 124.25 Q-20.4 123.45 -21.65 121.6 L-23.0 121.85 -24.1 120.7 -24.45 119.8 -23.5 118.4 Q-27.4 119.2 -30.05 116.2 L-30.05 115.65 Q-30.1 113.8 -28.3 113.15 L-27.45 112.9 Q-23.1 111.55 -20.5 114.15 -10.8 101.15 2.15 91.25 L1.85 88.15 Q-1.05 98.2 -15.4 97.65 -23.4 97.3 -28.5 91.3 -33.0 85.9 -31.3 78.9 -31.3 78.6 -31.45 78.55 L-32.1 78.2 Q-30.25 75.4 -29.75 73.15 L-26.0 72.4 Q-19.4 71.35 -13.7 72.4 -5.9 68.35 0.4 62.95 L0.6 62.35 0.1 62.4 -0.3 62.65 Q-0.75 63.7 -1.95 64.15 L-3.4 64.5 -4.0 64.85 -5.15 63.75 -5.35 63.45 Q-13.0 58.95 -19.3 52.8 L-19.85 52.3 -20.05 51.85 -34.6 37.2 -37.3 34.3 -39.05 32.4 -44.1 26.9 Q-61.65 7.25 -76.95 -14.35 -98.25 -44.25 -112.3 -77.3 -112.65 -78.0 -112.35 -78.7 L-112.15 -78.95 Q-113.55 -84.55 -113.4 -90.4 L-113.2 -93.65 -113.25 -93.65 Q-114.35 -108.9 -102.6 -121.35 L-95.7 -128.75 Q-57.5 -170.15 0.05 -172.15 23.35 -176.2 42.85 -165.7 49.35 -162.25 55.5 -158.25 69.5 -138.6 87.5 -121.35 93.55 -115.55 97.5 -107.9 M104.45 -87.65 Q102.95 -89.2 101.75 -91.0 97.85 -96.95 94.65 -103.3 91.1 -110.45 85.65 -116.15 68.6 -133.4 52.65 -152.0 42.95 -163.35 27.5 -165.5 7.6 -168.35 -12.15 -165.8 -72.9 -158.05 -104.15 -106.75 L-107.25 -102.3 -108.45 -100.7 -108.6 -100.2 -108.55 -97.65 Q-108.4 -96.25 -108.8 -95.0 L-108.7 -94.95 -108.3 -94.5 Q-107.7 -90.75 -107.9 -86.8 L-107.95 -85.25 Q-89.15 -94.75 -69.1 -89.55 -66.25 -88.8 -63.55 -87.0 -62.1 -86.05 -60.35 -85.75 -49.4 -97.8 -32.55 -95.55 -18.35 -90.8 -8.05 -80.1 2.25 -91.3 19.6 -86.75 27.8 -84.6 34.05 -79.6 43.65 -89.4 59.75 -85.25 63.45 -83.65 66.45 -80.95 69.45 -80.5 71.9 -78.7 86.2 -90.0 103.9 -87.3 L104.3 -87.65 104.45 -87.65 M105.8 -82.55 Q98.45 -76.35 90.75 -70.5 81.75 -67.8 72.6 -69.8 60.5 -33.3 45.6 3.0 L40.05 15.8 Q50.6 3.55 60.3 -9.55 71.1 -24.25 80.1 -40.15 92.2 -61.8 106.0 -82.55 L105.8 -82.55 M77.0 -75.95 L88.1 -75.65 97.0 -82.05 Q90.4 -81.45 83.9 -80.1 80.1 -78.45 77.0 -75.95 M-10.9 -73.25 Q-10.0 -74.6 -8.75 -75.0 -20.15 -84.55 -33.95 -90.4 -49.2 -92.55 -55.95 -81.35 -36.4 -80.05 -18.15 -72.25 -14.25 -70.65 -11.2 -72.7 L-10.9 -73.25 M-70.4 -72.9 L-93.55 -74.15 Q-100.9 -74.85 -107.05 -77.35 L-107.1 -77.3 Q-90.65 -41.4 -66.05 -9.55 -49.5 11.95 -32.2 32.4 L-28.1 37.2 -18.7 47.95 -18.45 47.85 -17.55 47.65 -14.95 49.7 Q-19.0 43.75 -22.15 37.2 L-24.35 32.4 -27.55 24.15 Q-40.6 -13.95 -55.1 -52.5 -59.45 -64.15 -60.05 -75.55 -64.25 -72.85 -70.4 -72.9 M-86.35 -85.8 Q-95.6 -84.8 -104.0 -80.9 -83.0 -74.5 -61.9 -80.9 -72.95 -87.3 -86.35 -85.8 M-55.1 -76.35 Q-46.2 -41.05 -32.95 -6.5 -25.45 13.15 -16.7 32.4 L-14.5 37.2 -13.55 39.2 Q-8.7 49.55 -2.95 58.75 L-2.1 58.0 Q-2.6 47.6 -2.45 37.2 L-2.3 32.4 Q-2.05 23.3 -1.25 14.2 L-1.25 13.95 -1.9 13.5 Q-1.65 -26.9 -6.65 -66.85 L-6.95 -69.45 -8.0 -68.2 Q-8.65 -67.35 -9.65 -66.85 -29.5 -69.4 -49.15 -74.95 L-55.1 -76.35 M67.7 -71.05 Q52.25 -71.0 36.85 -71.7 31.45 -34.85 24.0 1.95 21.25 15.55 17.1 28.7 L15.9 32.4 14.45 37.2 12.2 45.05 20.2 37.2 24.9 32.4 28.15 29.0 Q37.6 11.3 44.75 -7.85 56.45 -39.6 68.4 -71.1 L67.7 -71.05 M38.6 -76.6 L66.45 -75.75 Q54.25 -83.6 39.5 -78.2 L38.6 -76.6 M-1.35 -77.5 L-1.95 -77.05 -1.55 -76.95 Q3.75 -75.35 9.2 -74.6 L24.9 -73.55 29.0 -76.6 Q15.3 -87.65 -1.35 -77.5 M26.65 -68.4 Q10.45 -65.55 -2.35 -72.0 4.8 -34.2 3.35 5.25 3.2 8.6 2.45 11.75 L3.35 12.2 3.75 12.65 3.05 32.4 2.95 37.2 Q2.7 45.45 2.6 53.75 L2.95 53.55 3.6 53.0 8.55 37.2 10.05 32.4 13.8 20.2 Q25.05 -18.55 29.4 -58.65 30.1 -65.1 31.55 -71.4 L30.05 -70.45 26.65 -68.4 M3.8 65.9 L4.35 66.0 4.9 65.3 4.5 64.95 3.8 65.9 M8.1 60.95 L15.0 51.0 Q11.5 54.1 8.0 56.8 L6.2 60.25 6.5 60.7 8.1 60.95 M7.65 69.65 L9.5 69.65 8.65 68.75 7.65 69.65 M6.05 75.25 Q6.85 88.55 8.9 101.6 L9.05 103.15 15.6 102.5 Q20.25 102.65 24.8 104.45 L25.25 104.25 26.15 104.0 Q27.85 103.45 29.25 103.65 L29.5 103.15 Q30.15 101.7 31.25 100.55 L31.35 99.1 Q31.75 93.4 29.95 88.2 L28.4 82.5 Q27.35 81.8 26.8 80.8 26.35 79.9 25.45 79.45 L22.5 78.7 Q20.05 81.1 16.45 82.0 L15.3 80.9 15.05 80.45 15.05 79.95 15.05 78.75 14.45 79.55 Q13.7 80.2 12.75 80.3 8.35 79.2 7.35 75.6 L6.05 75.25 M0.0 70.85 L-0.6 70.7 Q-3.05 72.9 -5.95 74.85 -2.15 76.65 1.15 79.6 L0.85 74.8 0.95 72.5 0.9 71.7 0.95 71.2 Q0.45 70.9 0.0 70.85 M15.4 77.9 L17.4 75.6 14.4 76.05 15.3 77.6 15.4 77.9 M-59.45 39.4 L-57.45 38.9 -56.85 38.9 Q-51.85 41.55 -47.7 45.4 -47.2 45.9 -46.8 46.65 L-46.9 47.45 Q-47.2 48.85 -48.75 49.4 L-49.05 49.4 -50.4 49.35 -50.9 49.2 -59.25 43.35 -60.2 42.15 Q-60.55 41.1 -59.95 40.15 L-59.45 39.4 M-51.3 52.6 Q-50.7 53.2 -50.55 54.05 -50.85 56.5 -53.4 56.6 L-55.65 55.35 Q-59.3 53.15 -62.45 50.05 L-63.05 49.25 Q-63.25 47.7 -62.15 46.65 L-62.2 46.6 -60.2 46.05 -59.6 46.1 Q-55.6 48.8 -51.95 52.05 L-51.3 52.6 M-63.55 55.55 L-63.05 54.8 -61.0 54.3 -60.4 54.3 -59.5 55.1 -52.65 61.65 -50.95 63.3 -49.45 64.7 -48.55 66.0 Q-48.55 68.05 -50.5 68.7 L-52.1 68.7 -52.6 68.5 -55.75 65.95 Q-56.4 67.45 -57.3 68.45 -55.2 69.75 -53.05 71.1 -52.4 71.55 -52.25 72.4 -52.45 74.1 -53.7 74.7 L-55.1 74.95 Q-63.2 71.4 -70.65 66.55 L-71.4 65.85 -71.65 65.4 -71.65 65.2 Q-71.8 63.8 -70.75 62.8 L-70.8 62.75 -68.75 62.25 -68.35 62.2 -68.15 62.25 -67.7 62.5 Q-65.15 63.8 -62.7 65.2 L-62.55 65.3 Q-61.15 63.3 -59.1 62.85 L-62.9 58.9 -63.25 58.5 -63.75 57.55 Q-64.1 56.5 -63.55 55.55 M-72.05 77.1 Q-73.65 76.2 -73.85 74.7 L-73.85 74.0 Q-73.8 72.9 -73.2 72.3 -71.7 71.35 -69.8 71.7 L-68.95 71.7 Q-63.55 74.0 -59.25 77.7 -58.6 78.2 -58.55 79.15 -58.8 80.85 -60.55 81.3 L-61.4 81.45 -64.5 80.0 -65.05 81.25 Q-62.8 82.4 -60.7 84.1 L-60.35 84.55 Q-60.15 86.65 -61.75 87.4 L-63.1 87.7 -64.2 87.3 -75.85 83.05 -77.1 82.1 Q-77.85 80.4 -76.4 79.0 L-76.45 78.95 -70.4 79.4 -70.05 78.7 -69.5 77.85 -70.15 77.6 -71.45 77.2 -72.05 77.1 M-56.9 90.9 L-56.75 90.95 -56.55 91.1 Q-56.15 91.85 -56.2 92.8 -56.25 93.75 -56.9 94.5 L-63.75 96.35 -66.55 96.9 Q-65.95 98.85 -65.65 100.9 L-61.95 102.3 Q-58.0 103.6 -55.0 106.05 -54.45 106.95 -55.05 107.85 L-56.6 109.65 -65.55 106.9 Q-65.8 109.8 -66.65 112.85 L-67.1 114.0 Q-69.1 115.4 -70.7 113.95 -71.7 109.4 -71.55 104.65 L-78.9 101.5 Q-79.25 101.3 -79.55 101.15 -84.85 98.35 -83.5 93.75 L-69.0 91.6 -68.3 91.55 -58.35 90.95 -57.75 90.9 -56.9 90.9 M-38.8 52.4 L-39.35 53.45 Q-40.15 53.95 -40.8 54.1 -42.55 54.45 -43.55 52.6 -44.1 51.5 -43.45 50.45 L-42.95 49.7 Q-41.8 48.85 -40.6 49.15 L-39.8 49.45 -39.35 49.75 Q-38.75 50.4 -38.65 51.2 L-38.75 52.25 -38.8 52.4 M-42.55 58.55 L-43.05 59.65 Q-45.4 61.1 -46.75 59.5 L-47.25 58.8 Q-47.8 57.7 -47.15 56.6 L-46.65 55.85 Q-45.1 54.7 -43.55 55.65 L-43.05 55.9 -42.95 56.0 Q-42.05 57.1 -42.55 58.55 M-49.8 113.3 L-49.5 113.7 -49.2 114.75 -49.2 115.95 -49.25 116.3 Q-52.6 118.5 -56.6 119.75 -55.75 121.6 -55.2 123.6 L-54.15 123.8 Q-47.7 125.1 -43.65 128.55 L-43.65 129.15 -43.75 129.75 -43.9 130.1 -44.35 130.8 Q-49.35 131.35 -54.35 130.75 L-54.55 133.7 -54.95 134.8 Q-57.0 136.85 -59.05 135.25 L-60.0 129.65 -62.15 129.05 Q-67.55 127.35 -72.1 124.6 L-72.3 124.1 -72.2 122.85 -71.6 121.4 -71.6 121.35 Q-65.0 116.85 -57.45 114.05 L-56.25 113.5 Q-54.85 113.55 -53.65 112.95 -51.85 112.15 -50.25 113.0 L-49.8 113.3 M-36.65 134.35 L-36.6 135.45 -37.15 137.35 Q-43.15 140.05 -49.45 142.25 L-48.75 144.5 -48.55 145.8 -47.05 149.2 Q-41.45 150.85 -35.8 151.1 -35.15 151.7 -35.05 152.55 -34.85 153.85 -35.8 154.85 -40.5 155.4 -45.2 154.85 -44.4 157.9 -43.9 161.15 L-43.9 161.75 Q-44.95 163.8 -47.35 163.4 L-48.6 162.45 -49.6 161.3 Q-49.85 159.75 -50.4 158.5 L-50.85 157.5 -51.15 153.7 Q-54.65 152.8 -58.2 151.3 -63.2 149.1 -66.85 145.3 -68.35 143.75 -66.95 142.35 L-65.85 141.5 -64.75 140.85 -37.6 133.7 Q-36.95 133.5 -36.65 134.35 M-70.85 97.45 L-72.45 97.55 -70.95 98.4 -70.95 97.6 -70.85 97.45 M-61.2 121.35 L-63.2 122.35 -61.05 122.6 -61.2 121.35 M-57.45 144.75 L-53.95 146.6 -54.8 143.95 -56.55 144.5 -57.45 144.75 M30.6 109.1 L25.55 108.95 24.7 109.05 15.6 108.9 9.6 108.75 Q5.65 128.85 -0.25 148.9 L-0.65 150.5 14.35 150.75 14.35 150.5 15.6 146.3 Q17.5 139.35 18.15 132.0 18.2 131.45 18.55 130.95 19.95 129.55 21.75 130.45 L23.3 132.15 Q30.1 139.5 36.7 147.0 L39.15 149.85 Q45.8 146.95 51.8 143.5 43.6 133.0 36.7 121.55 L34.75 118.25 30.7 111.05 Q30.4 110.05 30.6 109.1 M6.05 156.6 Q6.4 160.55 6.25 164.6 L6.2 166.15 Q7.8 168.75 9.05 166.3 6.6 161.85 7.45 156.55 L6.05 156.6 M58.5 159.3 Q57.65 156.0 53.75 155.05 L53.75 155.15 Q55.4 157.5 57.8 159.1 L58.5 159.3" fill="#000000" fill-rule="evenodd" stroke="none"/>
    <path d="M104.45 -87.65 L104.3 -87.65 103.9 -87.3 Q86.2 -90.0 71.9 -78.7 69.45 -80.5 66.45 -80.95 63.45 -83.65 59.75 -85.25 43.65 -89.4 34.05 -79.6 27.8 -84.6 19.6 -86.75 2.25 -91.3 -8.05 -80.1 -18.35 -90.8 -32.55 -95.55 -49.4 -97.8 -60.35 -85.75 -62.1 -86.05 -63.55 -87.0 -66.25 -88.8 -69.1 -89.55 -89.15 -94.75 -107.95 -85.25 L-107.9 -86.8 Q-107.7 -90.75 -108.3 -94.5 L-108.7 -94.95 -108.8 -95.0 Q-108.4 -96.25 -108.55 -97.65 L-108.6 -100.2 -108.45 -100.7 -107.25 -102.3 -104.15 -106.75 Q-72.9 -158.05 -12.15 -165.8 7.6 -168.35 27.5 -165.5 42.95 -163.35 52.65 -152.0 68.6 -133.4 85.65 -116.15 91.1 -110.45 94.65 -103.3 97.85 -96.95 101.75 -91.0 102.95 -89.2 104.45 -87.65" fill="#339933" fill-rule="evenodd" stroke="none"/>
    <path d="M-10.9 -73.25 L-11.2 -72.7 Q-14.25 -70.65 -18.15 -72.25 -36.4 -80.05 -55.95 -81.35 -49.2 -92.55 -33.95 -90.4 -20.15 -84.55 -8.75 -75.0 -10.0 -74.6 -10.9 -73.25 M77.0 -75.95 Q80.1 -78.45 83.9 -80.1 90.4 -81.45 97.0 -82.05 L88.1 -75.65 77.0 -75.95 M-86.35 -85.8 Q-72.95 -87.3 -61.9 -80.9 -83.0 -74.5 -104.0 -80.9 -95.6 -84.8 -86.35 -85.8 M38.6 -76.6 L39.5 -78.2 Q54.25 -83.6 66.45 -75.75 L38.6 -76.6 M-1.55 -76.95 L-1.35 -77.5 Q15.3 -87.65 29.0 -76.6 L24.9 -73.55 9.2 -74.6 Q3.75 -75.35 -1.55 -76.95" fill="#1e5b1e" fill-rule="evenodd" stroke="none"/>
    <path d="M6.05 75.25 L7.35 75.6 Q8.35 79.2 12.75 80.3 13.7 80.2 14.45 79.55 L15.05 78.75 15.05 79.95 15.05 80.45 15.3 80.9 16.45 82.0 Q20.05 81.1 22.5 78.7 L25.45 79.45 Q26.35 79.9 26.8 80.8 27.35 81.8 28.4 82.5 L29.95 88.2 Q31.75 93.4 31.35 99.1 L31.25 100.55 Q30.15 101.7 29.5 103.15 L29.25 103.65 Q27.85 103.45 26.15 104.0 L25.25 104.25 24.8 104.45 Q20.25 102.65 15.6 102.5 L9.05 103.15 8.9 101.6 Q6.85 88.55 6.05 75.25" fill="#ffcc00" fill-rule="evenodd" stroke="none"/>
    <path d="M30.6 109.1 Q30.4 110.05 30.7 111.05 L34.75 118.25 36.7 121.55 Q43.6 133.0 51.8 143.5 45.8 146.95 39.15 149.85 L36.7 147.0 Q30.1 139.5 23.3 132.15 L21.75 130.45 Q19.95 129.55 18.55 130.95 18.2 131.45 18.15 132.0 17.5 139.35 15.6 146.3 L14.35 150.5 14.35 150.75 -0.65 150.5 -0.25 148.9 Q5.65 128.85 9.6 108.75 L15.6 108.9 24.7 109.05 25.55 108.95 30.6 109.1" fill="#990000" fill-rule="evenodd" stroke="none"/>
  </g>
</svg>
