<?xml version="1.0" encoding="UTF-8" standalone="no"?>
<svg xmlns:ffdec="https://www.free-decompiler.com/flash" xmlns:xlink="http://www.w3.org/1999/xlink" ffdec:objectType="shape" height="261.65px" width="425.8px" xmlns="http://www.w3.org/2000/svg">
  <g transform="matrix(1.0, 0.0, 0.0, 1.0, 257.95, 123.8)">
    <path d="M-133.2 1.85 Q-139.8 -1.05 -145.8 -6.6 -166.3 -25.55 -189.0 -41.85 -196.85 -47.5 -203.9 -53.85 L-204.65 -55.05 Q-204.8 -56.2 -204.45 -57.3 -204.05 -58.7 -202.9 -59.55 L-199.7 -60.65 -199.65 -60.8 Q-160.15 -35.45 -123.7 -4.75 L-122.9 -4.05 Q-120.7 -3.85 -118.8 -2.8 L-118.85 -3.55 -118.4 -6.55 -117.35 -8.05 Q-113.4 -13.35 -107.65 -14.8 -97.15 -17.25 -91.7 -12.95 -64.7 -60.1 -34.9 -105.95 L-23.4 -123.05 -22.15 -123.5 -20.65 -123.8 -18.7 -123.2 -17.4 -122.55 Q-16.55 -109.3 -26.7 -95.95 -39.85 -78.6 -51.2 -60.0 -67.25 -33.8 -83.35 -8.2 L-86.6 -3.0 Q-86.75 -1.45 -88.3 -0.35 L-89.15 0.95 Q-91.85 1.75 -93.9 -0.05 -95.5 -1.4 -95.65 -3.3 L-96.4 -4.05 -97.15 -4.3 -103.85 -3.85 -107.15 -3.55 -107.9 -2.95 -108.15 -2.6 Q-108.55 -1.55 -109.35 -0.5 L-110.4 0.95 -111.7 1.65 Q-114.4 2.95 -116.65 1.15 L-116.65 1.2 -117.0 2.65 -117.75 4.15 -118.4 4.95 Q-126.1 5.0 -133.2 1.85 M42.05 -25.5 L42.95 -26.6 52.15 -26.55 52.15 -26.25 52.0 -25.65 42.05 -25.1 42.05 -25.5" fill="#003366" fill-rule="evenodd" stroke="none"/>
    <path d="M-199.05 49.05 L-198.7 48.6 Q-186.8 31.4 -169.6 18.75 -167.05 16.9 -163.9 16.3 L-163.0 15.2 -160.9 12.55 -159.5 10.55 -158.7 9.35 -157.8 8.7 Q-155.6 7.4 -153.3 6.25 L-151.05 4.65 -149.5 4.3 -133.2 1.85 Q-126.1 5.0 -118.4 4.95 L-117.75 4.15 -117.0 2.65 -116.65 1.2 -116.65 1.15 Q-114.4 2.95 -111.7 1.65 L-110.4 0.95 -109.35 -0.5 Q-108.55 -1.55 -108.15 -2.6 L-107.9 -2.95 -103.85 -3.85 -97.15 -4.3 -96.4 -4.05 -95.65 -3.3 Q-95.5 -1.4 -93.9 -0.05 -91.85 1.75 -89.15 0.95 L-88.3 -0.35 Q-86.75 -1.45 -86.6 -3.0 L-83.35 -8.2 Q-54.35 -13.0 -25.4 -8.7 -20.7 -8.0 -17.2 -4.55 L-14.65 -4.0 Q-5.75 -1.6 0.25 5.75 3.0 9.2 6.3 11.95 L7.3 13.85 Q14.35 22.6 19.1 32.7 21.4 37.75 23.2 43.15 24.95 48.55 26.15 54.35 27.15 59.3 27.6 64.3 25.4 71.0 21.05 75.9 L20.5 76.45 19.9 75.9 Q17.05 73.5 13.45 75.15 L13.2 75.55 13.0 75.9 11.6 78.35 11.6 80.1 11.6 83.65 Q-7.35 85.75 -25.2 79.85 -106.85 68.85 -179.15 102.45 L-181.4 101.7 -182.85 100.9 -183.75 99.95 -184.3 98.95 -185.95 98.8 Q-188.75 98.55 -190.8 96.45 L-194.95 92.4 -195.45 91.35 Q-199.75 82.65 -200.8 72.5 -201.5 66.35 -201.1 60.5 -200.8 55.0 -199.55 49.75 L-199.05 49.05 M-37.0 1.6 L-100.15 6.75 Q-149.3 8.1 -180.6 43.45 -185.5 48.95 -190.0 55.35 L-190.85 56.5 -191.2 57.25 Q-191.65 58.4 -191.3 59.75 L-191.0 61.85 -189.45 75.75 Q-188.25 84.6 -182.15 91.2 -106.6 57.05 -22.3 69.2 L-21.0 70.15 -19.85 71.1 -19.15 71.8 Q-7.15 72.3 5.05 71.6 L18.5 70.05 Q17.3 54.15 12.2 41.5 9.9 35.85 6.85 30.85 -3.0 14.75 -20.95 5.15 -28.6 1.05 -37.0 1.6 M26.45 75.65 L26.8 76.1 26.35 76.65 26.05 76.45 26.35 75.9 26.45 75.65" fill="#000000" fill-rule="evenodd" stroke="none"/>
    <path d="M1.8 -3.85 L1.8 -4.4 1.7 -4.95 1.45 -5.55 Q-0.35 -7.85 -1.2 -10.65 -1.85 -12.6 -2.0 -14.75 -3.2 -28.4 -5.9 -41.4 -7.6 -43.1 -8.35 -45.5 -9.25 -48.1 -11.45 -47.3 -12.95 -44.95 -13.65 -41.75 L-14.8 -34.8 -18.95 -34.2 -19.25 -34.4 -20.0 -35.0 Q-21.7 -36.55 -22.15 -39.1 -22.9 -42.9 -22.8 -46.95 L-21.1 -49.65 -20.0 -51.7 Q-16.8 -57.3 -12.35 -61.55 -7.95 -63.55 -4.35 -62.7 L-4.35 -62.1 -4.5 -58.7 -4.7 -58.15 Q-6.4 -56.95 -7.7 -55.05 L-8.05 -54.5 -7.8 -52.35 -8.05 -51.85 -7.7 -51.0 Q-6.5 -49.55 -4.7 -49.2 -2.3 -45.4 -1.5 -40.8 -0.75 -36.15 -0.95 -31.65 -1.55 -19.85 2.15 -10.65 5.45 -2.4 12.2 3.75 19.05 3.75 25.3 5.1 L26.9 8.45 Q28.45 11.85 28.8 15.65 26.55 11.65 23.75 8.3 16.1 9.0 8.85 6.4 L6.2 2.9 1.8 -3.85 M105.8 -26.5 Q104.5 -27.55 103.95 -29.25 L103.65 -29.85 102.2 -30.7 101.65 -30.8 Q101.3 -30.75 101.1 -30.5 L98.75 -28.65 98.25 -28.15 Q98.25 -27.2 97.55 -26.6 92.0 -22.2 87.8 -15.2 86.7 -12.0 86.3 -8.45 85.55 -2.15 85.95 4.7 80.95 6.8 76.4 10.0 70.0 14.45 64.55 21.05 L65.4 18.0 Q66.0 15.2 67.2 12.7 72.15 12.25 76.2 9.45 80.2 6.65 83.35 1.5 84.15 -2.15 84.05 -5.9 83.6 -16.15 88.25 -23.6 L91.2 -24.05 91.95 -24.35 92.45 -24.9 92.55 -25.15 Q94.55 -25.05 96.7 -27.75 L96.95 -28.3 Q98.1 -30.8 97.3 -32.45 98.0 -34.4 97.5 -36.5 L97.1 -37.0 Q95.2 -38.85 95.65 -41.05 L98.0 -41.15 97.95 -42.15 Q99.3 -41.5 101.0 -41.6 102.0 -40.1 103.15 -38.75 L103.65 -38.2 103.75 -37.05 103.8 -36.5 104.65 -35.3 105.0 -34.8 Q105.25 -32.2 106.0 -29.9 106.5 -28.35 106.25 -26.45 L105.8 -26.5 M102.4 -38.95 L101.75 -39.45 99.8 -40.65 Q99.45 -40.6 99.4 -40.35 98.25 -36.2 102.55 -31.95 L103.45 -31.75 Q104.7 -31.75 105.0 -33.25 L104.85 -34.3 103.75 -36.5 102.4 -38.95 M-13.3 -56.5 L-15.75 -55.65 Q-18.85 -52.55 -20.0 -48.2 L-20.35 -46.75 -20.0 -46.25 Q-17.9 -43.55 -14.2 -45.6 L-11.9 -48.85 -11.75 -49.4 Q-10.85 -54.1 -13.3 -56.6 L-13.3 -56.5" fill="#3dfe72" fill-rule="evenodd" stroke="none"/>
    <path d="M19.1 32.7 L26.95 34.15 26.9 25.6 Q26.85 23.25 27.1 21.05 L27.55 20.5 27.5 20.25 Q27.0 16.95 24.5 15.9 L24.15 15.25 Q23.5 13.3 22.05 12.1 10.55 15.1 4.1 5.85 L3.95 5.7 2.55 4.7 Q0.5 0.35 -2.2 -3.55 -3.5 -5.45 -3.75 -7.8 L-4.35 -8.45 -4.85 -8.95 -5.05 -10.65 Q-6.55 -21.45 -7.2 -32.35 -7.5 -37.2 -10.05 -40.85 L-10.55 -39.35 Q-11.6 -36.3 -11.75 -33.05 L-12.05 -32.5 Q-12.7 -31.4 -13.6 -30.4 -16.3 -29.05 -19.4 -30.05 L-20.0 -30.3 -20.35 -30.4 Q-26.65 -34.8 -26.05 -43.55 L-25.9 -48.05 Q-23.55 -54.1 -20.0 -58.45 -15.05 -64.55 -7.75 -67.25 L-2.85 -67.1 -2.05 -66.85 Q-0.95 -65.5 -1.0 -63.45 L-1.45 -57.2 -1.65 -56.7 Q-2.55 -55.75 -2.85 -54.35 L-3.15 -53.95 -3.95 -53.1 -3.4 -52.85 -2.7 -52.45 Q4.6 -33.55 5.8 -12.05 L5.95 -10.65 Q6.5 -7.45 8.65 -5.05 L12.4 -0.6 Q18.65 0.9 25.6 0.7 31.25 6.5 31.85 15.3 L43.5 0.1 Q43.35 -6.2 44.05 -12.05 35.15 -13.2 29.6 -25.45 28.0 -28.95 27.7 -33.2 26.8 -47.05 34.15 -56.7 30.45 -64.85 30.05 -72.6 L29.75 -72.55 Q27.1 -71.6 25.3 -73.5 L25.0 -75.2 Q24.95 -77.1 25.6 -78.65 28.6 -81.85 32.35 -83.15 34.05 -83.75 35.9 -83.95 L38.35 -83.8 39.1 -83.55 Q40.3 -81.65 40.1 -78.95 40.0 -77.25 38.8 -76.15 L37.7 -75.75 37.3 -75.65 Q38.55 -73.0 39.3 -70.15 40.4 -66.05 40.35 -61.55 L42.05 -62.7 Q45.95 -62.6 49.65 -61.25 49.3 -65.7 50.7 -69.5 L50.95 -70.1 50.95 -70.15 Q50.55 -73.1 51.0 -75.6 L50.7 -75.85 Q49.3 -77.1 48.15 -78.65 L48.0 -79.25 Q47.85 -80.1 47.85 -80.9 L47.85 -82.6 48.7 -83.7 Q50.7 -86.15 53.1 -87.0 58.1 -88.8 61.5 -84.85 L61.85 -84.35 61.95 -83.75 62.05 -80.9 61.85 -79.2 61.65 -78.7 Q60.85 -77.45 59.8 -76.65 L59.25 -76.35 58.9 -76.55 Q59.45 -73.35 59.15 -70.15 58.6 -64.4 55.2 -58.45 L57.75 -56.6 58.45 -56.05 59.05 -54.85 59.25 -54.35 59.7 -53.2 Q68.0 -41.3 63.15 -25.75 61.5 -20.45 58.45 -16.15 54.9 -14.05 51.75 -13.0 52.7 -8.1 52.25 -2.7 56.2 4.7 61.7 11.15 L62.3 11.75 62.55 14.0 62.75 13.55 Q64.15 10.6 66.3 8.3 69.65 6.65 73.5 7.55 75.55 5.15 77.75 3.1 L80.3 0.15 Q81.9 -8.8 82.85 -17.9 83.25 -22.1 84.9 -26.05 89.6 -27.4 93.2 -31.0 L93.65 -31.55 93.85 -32.15 94.0 -33.25 94.1 -33.85 93.85 -34.95 Q93.15 -37.05 92.1 -38.95 L92.1 -39.5 92.1 -41.8 Q92.0 -42.75 92.25 -43.5 L92.8 -43.95 95.5 -45.2 96.05 -45.2 Q96.5 -45.95 97.35 -45.9 L97.35 -46.0 Q110.85 -42.15 109.2 -23.25 L109.0 -22.65 Q108.4 -22.2 107.75 -22.1 106.05 -21.9 104.4 -22.05 L103.95 -22.65 101.3 -25.85 100.85 -24.7 Q100.15 -22.6 99.0 -20.75 98.0 -20.05 96.85 -19.95 94.7 -19.8 93.95 -17.9 L93.6 -16.95 90.9 -13.7 Q88.95 -7.25 89.1 -0.05 L88.9 6.8 Q75.75 14.3 64.75 25.4 L63.95 24.85 63.8 24.75 65.65 40.2 Q65.9 42.2 65.55 44.05 66.0 44.55 66.2 45.55 87.55 55.05 90.6 68.45 95.45 90.5 47.95 110.25 L45.6 111.2 Q-1.3 130.15 -71.65 135.85 -143.65 141.75 -198.05 130.3 -252.55 118.9 -257.5 96.9 -262.45 74.8 -214.9 55.0 -207.3 51.85 -199.05 49.05 L-199.55 49.75 Q-200.8 55.0 -201.1 60.5 L-205.25 62.0 Q-249.45 78.25 -245.2 95.75 -240.9 113.2 -190.6 121.65 -140.45 130.05 -73.7 124.5 -6.95 118.95 37.25 102.7 L44.3 99.95 Q60.05 93.5 68.4 86.9 L67.7 86.7 67.35 84.45 Q67.15 81.6 68.45 79.3 L68.8 78.95 69.9 77.95 68.55 75.9 Q63.4 68.05 59.25 59.55 L58.95 58.3 57.6 56.95 57.4 57.25 57.1 57.65 Q54.65 58.05 53.8 60.65 L53.55 61.3 Q52.05 62.9 50.4 62.1 50.0 62.5 49.4 62.55 L48.8 62.6 38.75 52.6 Q38.55 56.4 36.65 61.0 33.8 67.8 31.6 74.75 L30.85 75.9 29.45 78.2 Q28.55 81.85 26.8 84.65 27.85 85.05 28.5 86.15 29.05 88.6 28.9 91.3 L28.5 93.0 Q24.3 97.35 18.35 94.1 14.7 91.45 11.75 87.5 L11.6 83.65 11.6 80.1 11.6 78.35 13.0 75.9 13.2 75.55 13.45 75.15 Q17.05 73.5 19.9 75.9 L20.5 76.45 21.05 75.9 Q25.4 71.0 27.6 64.3 28.9 60.2 29.45 55.4 31.0 52.45 31.8 49.1 L31.9 48.0 Q32.35 47.0 32.95 46.35 L31.45 44.65 23.2 43.15 Q21.4 37.75 19.1 32.7 M52.9 -59.85 Q54.2 -65.2 55.85 -70.15 L56.85 -73.1 57.1 -73.7 Q56.65 -76.15 58.0 -77.45 L57.8 -77.9 57.7 -78.45 57.8 -78.9 58.75 -80.8 58.9 -81.85 Q57.45 -85.6 53.15 -83.1 51.95 -82.5 51.1 -81.5 L51.3 -81.0 52.35 -79.35 52.45 -79.4 53.3 -77.85 53.9 -76.8 54.0 -76.35 53.9 -76.15 Q54.55 -73.5 54.15 -70.15 L54.05 -69.35 54.0 -68.75 53.1 -67.05 52.8 -66.5 Q53.0 -63.2 52.35 -60.1 L52.85 -59.8 52.9 -59.85 M51.25 -55.1 Q54.0 -53.4 51.75 -50.9 L51.25 -50.55 Q48.05 -53.05 51.2 -55.0 L51.25 -55.1 M42.5 -58.7 Q25.2 -45.0 34.7 -22.3 36.1 -19.05 39.2 -17.85 41.9 -16.8 44.75 -16.45 L44.75 -16.6 Q44.8 -16.95 45.1 -17.1 L45.35 -16.35 Q47.75 -16.1 50.25 -16.35 L50.3 -16.6 Q50.35 -16.95 50.65 -17.1 L50.85 -16.45 52.8 -16.75 55.0 -18.3 Q55.55 -18.75 56.15 -19.0 66.55 -35.35 56.8 -50.65 51.5 -58.95 42.5 -58.7 M31.25 -74.25 L31.25 -74.15 32.35 -72.05 33.25 -70.15 Q35.45 -65.0 36.55 -58.45 L37.55 -59.1 Q37.75 -63.9 36.5 -68.35 L36.05 -69.9 35.85 -70.15 Q33.0 -74.0 34.85 -77.55 34.95 -77.8 35.25 -77.85 L35.65 -77.65 36.65 -79.95 Q34.45 -79.55 32.35 -78.75 30.4 -78.0 28.5 -76.9 28.9 -76.35 30.45 -75.7 31.3 -75.35 31.25 -74.25 M39.55 -52.8 Q42.3 -51.1 40.1 -48.6 L39.55 -48.25 Q36.35 -50.75 39.55 -52.7 L39.55 -52.8 M39.25 -37.8 L39.25 -37.25 Q39.45 -35.2 40.5 -37.05 41.25 -41.8 39.5 -43.6 L39.4 -43.5 Q39.15 -40.7 39.25 -37.8 M38.35 -47.5 Q40.95 -47.7 43.4 -46.25 L43.85 -45.8 43.8 -36.7 Q43.7 -35.2 43.25 -33.85 40.35 -30.45 36.95 -33.25 35.2 -39.4 36.75 -45.85 37.1 -47.4 38.35 -47.5 M38.85 -27.55 Q40.45 -30.1 42.65 -30.8 49.1 -33.3 54.45 -29.6 L54.95 -29.1 55.15 -28.5 Q55.6 -24.9 54.25 -21.7 L54.0 -21.3 Q47.8 -18.4 40.85 -21.1 L39.4 -21.85 39.1 -22.5 Q38.4 -24.3 38.65 -26.45 L38.65 -27.0 38.85 -27.55 M1.8 -3.85 L6.2 2.9 8.85 6.4 Q16.1 9.0 23.75 8.3 26.55 11.65 28.8 15.65 28.45 11.85 26.9 8.45 L25.3 5.1 Q19.05 3.75 12.2 3.75 5.45 -2.4 2.15 -10.65 -1.55 -19.85 -0.95 -31.65 -0.75 -36.15 -1.5 -40.8 -2.3 -45.4 -4.7 -49.2 -6.5 -49.55 -7.7 -51.0 L-8.05 -51.85 -7.8 -52.35 -8.05 -54.5 -7.7 -55.05 Q-6.4 -56.95 -4.7 -58.15 L-4.5 -58.7 -4.35 -62.1 -4.35 -62.7 Q-7.95 -63.55 -12.35 -61.55 -16.8 -57.3 -20.0 -51.7 L-21.1 -49.65 -22.8 -46.95 Q-22.9 -42.9 -22.15 -39.1 -21.7 -36.55 -20.0 -35.0 L-19.25 -34.4 -18.95 -34.2 -14.8 -34.8 -13.65 -41.75 Q-12.95 -44.95 -11.45 -47.3 -9.25 -48.1 -8.35 -45.5 -7.6 -43.1 -5.9 -41.4 -3.2 -28.4 -2.0 -14.75 -1.85 -12.6 -1.2 -10.65 -0.35 -7.85 1.45 -5.55 L1.7 -4.95 1.8 -4.4 1.8 -3.85 M57.7 -42.95 L57.8 -37.25 57.55 -34.4 Q55.95 -31.55 53.1 -31.55 51.45 -32.35 50.3 -34.2 49.05 -41.45 50.65 -48.35 50.95 -49.7 51.85 -49.8 55.25 -47.4 57.4 -43.5 L57.7 -42.95 M42.05 -25.1 L52.0 -25.65 52.15 -26.25 52.15 -26.55 42.95 -26.6 42.05 -25.5 41.7 -25.1 42.05 -25.1 M53.55 -35.75 Q56.25 -40.05 52.8 -42.95 52.65 -39.4 53.4 -36.1 L53.55 -35.75 M49.7 59.4 Q53.6 55.95 57.1 51.85 60.05 48.45 62.7 44.6 L62.65 44.05 Q61.25 31.7 60.5 19.3 60.3 16.6 59.55 14.2 52.95 8.3 51.8 1.1 L51.45 2.95 51.25 3.2 Q49.65 3.75 49.1 1.85 48.75 -5.5 49.65 -12.4 L46.4 -12.0 Q47.55 -5.0 45.9 2.95 L45.7 3.2 45.2 3.3 30.05 23.3 Q30.05 29.0 30.35 34.65 L30.35 34.8 Q30.4 36.1 30.05 37.15 L37.4 45.95 49.5 59.7 49.7 59.9 49.7 59.4 M106.25 -26.45 Q106.5 -28.35 106.0 -29.9 105.25 -32.2 105.0 -34.8 L104.65 -35.3 103.8 -36.5 103.75 -37.05 103.65 -38.2 103.15 -38.75 Q102.0 -40.1 101.0 -41.6 99.3 -41.5 97.95 -42.15 L98.0 -41.15 95.65 -41.05 Q95.2 -38.85 97.1 -37.0 L97.5 -36.5 Q98.0 -34.4 97.3 -32.45 98.1 -30.8 96.95 -28.3 L96.7 -27.75 Q94.55 -25.05 92.55 -25.15 L92.45 -24.9 91.95 -24.35 91.2 -24.05 88.25 -23.6 Q83.6 -16.15 84.05 -5.9 84.15 -2.15 83.35 1.5 80.2 6.65 76.2 9.45 72.15 12.25 67.2 12.7 66.0 15.2 65.4 18.0 L64.55 21.05 Q70.0 14.45 76.4 10.0 80.95 6.8 85.95 4.7 85.55 -2.15 86.3 -8.45 86.7 -12.0 87.8 -15.2 92.0 -22.2 97.55 -26.6 98.25 -27.2 98.25 -28.15 L98.75 -28.65 101.1 -30.5 Q101.3 -30.75 101.65 -30.8 L102.2 -30.7 103.65 -29.85 103.95 -29.25 Q104.5 -27.55 105.8 -26.5 106.0 -26.35 106.25 -26.25 L106.25 -26.45 M102.4 -38.95 L103.75 -36.5 104.85 -34.3 105.0 -33.25 Q104.7 -31.75 103.45 -31.75 L102.55 -31.95 Q98.25 -36.2 99.4 -40.35 99.45 -40.6 99.8 -40.65 L101.75 -39.45 102.4 -38.95 M-13.3 -56.5 L-13.3 -56.6 Q-10.85 -54.1 -11.75 -49.4 L-11.9 -48.85 -14.2 -45.6 Q-17.9 -43.55 -20.0 -46.25 L-20.35 -46.75 -20.0 -48.2 Q-18.85 -52.55 -15.75 -55.65 L-13.3 -56.5 M-25.8 44.15 Q-24.25 41.75 -21.7 41.1 L-3.9 39.65 -2.05 39.75 -0.95 40.4 0.5 41.65 1.1 42.3 Q7.1 56.45 -6.1 61.75 -15.1 65.35 -22.65 62.2 L-23.55 60.75 Q-26.4 53.1 -26.1 44.8 L-25.8 44.15 M-36.7 38.35 L-36.05 38.95 Q-30.05 53.15 -43.25 58.45 -52.2 62.0 -59.8 58.85 L-60.7 57.4 Q-63.5 49.8 -63.25 41.5 L-62.95 40.8 Q-61.4 38.4 -58.85 37.75 L-41.05 36.3 -39.2 36.4 -38.1 37.1 -36.7 38.35 M-76.55 40.95 Q-70.6 55.15 -83.75 60.45 -92.75 64.0 -100.3 60.85 L-101.2 59.45 Q-104.05 51.8 -103.8 43.5 L-103.45 42.8 Q-101.9 40.45 -99.35 39.8 L-81.55 38.35 -79.7 38.45 -78.6 39.15 -77.2 40.35 -76.55 40.95 M-112.95 47.2 Q-106.95 61.4 -120.15 66.7 -129.15 70.25 -136.7 67.1 L-137.55 65.7 Q-140.4 58.05 -140.15 49.75 L-139.85 49.05 Q-138.3 46.7 -135.75 46.05 L-117.9 44.6 -116.1 44.7 Q-115.55 44.95 -115.0 45.35 L-113.55 46.6 -112.95 47.2 M-160.0 76.05 Q-169.0 79.65 -176.55 76.5 L-177.4 75.05 Q-180.25 67.4 -180.0 59.1 L-179.7 58.45 Q-178.15 56.05 -175.6 55.4 L-157.75 53.95 -155.95 54.05 -154.85 54.7 -153.4 55.95 -152.8 56.6 Q-146.8 70.75 -160.0 76.05 M26.8 76.1 L26.95 75.9 27.3 75.5 27.95 74.1 Q31.95 65.0 34.95 55.35 L34.95 55.3 36.45 50.15 35.65 49.3 Q35.6 51.85 34.45 55.1 L27.95 72.0 26.45 75.65 26.35 75.9 26.05 76.45 Q24.0 80.55 19.9 80.85 18.85 80.6 18.2 79.5 L18.05 79.3 Q16.2 78.0 14.85 79.5 14.6 81.35 14.65 83.25 L14.65 83.5 14.7 85.2 Q16.45 88.75 19.75 90.5 L25.75 89.75 24.9 87.15 23.6 88.45 Q22.0 88.15 22.05 86.35 L26.2 78.35 26.25 78.15 26.35 77.8 26.35 76.65 26.8 76.1 M60.45 53.5 Q62.1 54.15 62.05 56.1 L62.5 56.65 62.6 57.1 62.3 57.95 Q66.85 67.15 72.1 75.9 L72.95 77.3 73.05 77.6 Q73.95 78.4 73.5 79.7 L73.15 80.1 Q71.2 81.15 70.6 83.3 L72.3 83.35 Q75.95 83.05 79.2 79.9 L79.2 79.3 79.2 76.45 79.2 75.9 79.2 75.35 77.3 74.7 77.05 74.65 77.1 74.7 77.2 75.15 77.15 75.9 76.7 76.6 76.45 76.85 Q75.0 77.35 74.4 75.9 L74.3 75.5 Q70.7 65.35 65.7 56.0 L62.5 50.35 60.3 53.2 60.25 53.25 59.9 53.7 60.0 53.8 Q60.15 53.6 60.45 53.5 M77.55 71.05 L77.2 68.95 Q76.0 64.0 71.15 59.85 73.95 65.15 75.95 71.1 L76.45 71.05 76.45 70.95 77.55 71.05" fill="#000033" fill-rule="evenodd" stroke="none"/>
    <path d="M158.45 -8.55 L158.75 -7.8 Q141.35 14.9 119.05 35.75 111.35 42.95 108.75 52.95 106.1 55.0 103.5 52.7 104.55 33.85 121.55 19.7 130.75 12.05 139.3 3.5 147.25 -4.45 155.25 -10.55 157.45 -10.4 158.45 -8.55 M167.45 29.45 L167.75 30.2 Q151.7 49.75 127.55 63.35 118.95 68.25 111.25 73.95 107.3 73.4 107.5 69.7 134.15 47.9 163.15 27.9 163.65 27.55 164.25 27.45 166.45 27.6 167.45 29.45 M167.45 72.5 L167.75 73.2 167.8 74.65 Q167.6 75.9 166.75 76.95 131.95 86.75 103.05 106.35 102.5 106.7 102.25 107.45 101.0 108.75 99.25 108.7 L97.5 108.45 96.6 107.6 95.5 106.2 95.5 105.45 95.5 103.95 95.5 102.45 Q125.35 80.55 162.25 70.55 L162.25 70.45 Q165.65 69.8 167.45 72.5" fill="#333333" fill-rule="evenodd" stroke="none"/>
    <path d="M52.35 -60.1 Q53.0 -63.2 52.8 -66.5 L53.1 -67.05 54.0 -68.75 54.05 -69.35 54.15 -70.15 Q54.55 -73.5 53.9 -76.15 L54.0 -76.35 53.9 -76.8 53.3 -77.85 52.45 -79.4 52.35 -79.35 51.3 -81.0 51.1 -81.5 Q51.95 -82.5 53.15 -83.1 57.45 -85.6 58.9 -81.85 L58.75 -80.8 57.8 -78.9 57.7 -78.45 57.8 -77.9 58.0 -77.45 Q56.65 -76.15 57.1 -73.7 L56.85 -73.1 55.85 -70.15 Q54.2 -65.2 52.9 -59.85 L52.35 -60.1 M31.25 -74.25 Q31.3 -75.35 30.45 -75.7 28.9 -76.35 28.5 -76.9 30.4 -78.0 32.35 -78.75 34.45 -79.55 36.65 -79.95 L35.65 -77.65 35.25 -77.85 Q34.95 -77.8 34.85 -77.55 33.0 -74.0 35.85 -70.15 L36.05 -69.9 36.5 -68.35 Q37.75 -63.9 37.55 -59.1 L36.55 -58.45 Q35.45 -65.0 33.25 -70.15 L32.35 -72.05 31.25 -74.15 31.25 -74.25" fill="#ccff00" fill-rule="evenodd" stroke="none"/>
    <path d="M42.5 -58.7 Q51.5 -58.95 56.8 -50.65 66.55 -35.35 56.15 -19.0 55.55 -18.75 55.0 -18.3 L52.8 -16.75 50.85 -16.45 50.65 -17.1 Q50.35 -16.95 50.3 -16.6 L50.25 -16.35 Q47.75 -16.1 45.35 -16.35 L45.1 -17.1 Q44.8 -16.95 44.75 -16.6 L44.75 -16.45 Q41.9 -16.8 39.2 -17.85 36.1 -19.05 34.7 -22.3 25.2 -45.0 42.5 -58.7 M51.25 -55.1 L51.2 -55.0 Q48.05 -53.05 51.25 -50.55 L51.75 -50.9 Q54.0 -53.4 51.25 -55.1 M39.55 -52.8 L39.55 -52.7 Q36.35 -50.75 39.55 -48.25 L40.1 -48.6 Q42.3 -51.1 39.55 -52.8 M38.85 -27.55 L38.65 -27.0 38.65 -26.45 Q38.4 -24.3 39.1 -22.5 L39.4 -21.85 40.85 -21.1 Q47.8 -18.4 54.0 -21.3 L54.25 -21.7 Q55.6 -24.9 55.15 -28.5 L54.95 -29.1 54.45 -29.6 Q49.1 -33.3 42.65 -30.8 40.45 -30.1 38.85 -27.55 M38.35 -47.5 Q37.1 -47.4 36.75 -45.85 35.2 -39.4 36.95 -33.25 40.35 -30.45 43.25 -33.85 43.7 -35.2 43.8 -36.7 L43.85 -45.8 43.4 -46.25 Q40.95 -47.7 38.35 -47.5 M57.7 -42.95 L57.4 -43.5 Q55.25 -47.4 51.85 -49.8 50.95 -49.7 50.65 -48.35 49.05 -41.45 50.3 -34.2 51.45 -32.35 53.1 -31.55 55.95 -31.55 57.55 -34.4 L57.8 -37.25 57.7 -42.95" fill="#01b432" fill-rule="evenodd" stroke="none"/>
    <path d="M49.5 59.7 L37.4 45.95 30.05 37.15 Q30.4 36.1 30.35 34.8 L30.35 34.65 Q30.05 29.0 30.05 23.3 L45.2 3.3 45.7 3.2 45.9 2.95 Q47.55 -5.0 46.4 -12.0 L49.65 -12.4 Q48.75 -5.5 49.1 1.85 49.65 3.75 51.25 3.2 L51.45 2.95 51.8 1.1 Q52.95 8.3 59.55 14.2 60.3 16.6 60.5 19.3 61.25 31.7 62.65 44.05 L62.7 44.6 Q60.05 48.45 57.1 51.85 53.6 55.95 49.7 59.4 L49.5 59.7 M34.95 55.35 Q31.95 65.0 27.95 74.1 L27.3 75.5 26.95 75.9 26.8 76.1 26.45 75.65 27.95 72.0 34.45 55.1 34.95 55.35 M26.35 76.65 L26.35 77.8 26.25 78.15 26.2 78.35 22.05 86.35 Q22.0 88.15 23.6 88.45 L24.9 87.15 25.75 89.75 19.75 90.5 Q16.45 88.75 14.7 85.2 L14.65 83.5 14.65 83.25 Q14.6 81.35 14.85 79.5 16.2 78.0 18.05 79.3 L18.2 79.5 Q18.85 80.6 19.9 80.85 24.0 80.55 26.05 76.45 L26.35 76.65 M60.25 53.25 L60.3 53.2 62.5 50.35 65.7 56.0 Q70.7 65.35 74.3 75.5 L74.4 75.9 Q75.0 77.35 76.45 76.85 L76.7 76.6 77.15 75.9 77.2 75.15 77.1 74.7 77.05 74.65 77.3 74.7 79.2 75.35 79.2 75.9 79.2 76.45 79.2 79.3 79.2 79.9 Q75.95 83.05 72.3 83.35 L70.6 83.3 Q71.2 81.15 73.15 80.1 L73.5 79.7 Q73.95 78.4 73.05 77.6 L72.95 77.3 72.1 75.9 Q66.85 67.15 62.3 57.95 L62.6 57.1 62.5 56.65 62.05 56.1 Q62.1 54.15 60.45 53.5 L60.25 53.25" fill="#009933" fill-rule="evenodd" stroke="none"/>
    <path d="M-37.0 1.6 Q-28.6 1.05 -20.95 5.15 -3.0 14.75 6.85 30.85 9.9 35.85 12.2 41.5 17.3 54.15 18.5 70.05 L5.05 71.6 Q-7.15 72.3 -19.15 71.8 L-19.85 71.1 -21.0 70.15 -22.3 69.2 Q-106.6 57.05 -182.15 91.2 -188.25 84.6 -189.45 75.75 L-191.0 61.85 -191.3 59.75 Q-191.65 58.4 -191.2 57.25 L-190.85 56.5 -190.0 55.35 Q-185.5 48.95 -180.6 43.45 -149.3 8.1 -100.15 6.75 L-37.0 1.6 M-160.0 76.05 Q-146.8 70.75 -152.8 56.6 L-153.4 55.95 -154.85 54.7 -155.95 54.05 -157.75 53.95 -175.6 55.4 Q-178.15 56.05 -179.7 58.45 L-180.0 59.1 Q-180.25 67.4 -177.4 75.05 L-176.55 76.5 Q-169.0 79.65 -160.0 76.05 M-112.95 47.2 L-113.55 46.6 -115.0 45.35 Q-115.55 44.95 -116.1 44.7 L-117.9 44.6 -135.75 46.05 Q-138.3 46.7 -139.85 49.05 L-140.15 49.75 Q-140.4 58.05 -137.55 65.7 L-136.7 67.1 Q-129.15 70.25 -120.15 66.7 -106.95 61.4 -112.95 47.2 M-76.55 40.95 L-77.2 40.35 -78.6 39.15 -79.7 38.45 -81.55 38.35 -99.35 39.8 Q-101.9 40.45 -103.45 42.8 L-103.8 43.5 Q-104.05 51.8 -101.2 59.45 L-100.3 60.85 Q-92.75 64.0 -83.75 60.45 -70.6 55.15 -76.55 40.95 M-36.7 38.35 L-38.1 37.1 -39.2 36.4 -41.05 36.3 -58.85 37.75 Q-61.4 38.4 -62.95 40.8 L-63.25 41.5 Q-63.5 49.8 -60.7 57.4 L-59.8 58.85 Q-52.2 62.0 -43.25 58.45 -30.05 53.15 -36.05 38.95 L-36.7 38.35 M-25.8 44.15 L-26.1 44.8 Q-26.4 53.1 -23.55 60.75 L-22.65 62.2 Q-15.1 65.35 -6.1 61.75 7.1 56.45 1.1 42.3 L0.5 41.65 -0.95 40.4 -2.05 39.75 -3.9 39.65 -21.7 41.1 Q-24.25 41.75 -25.8 44.15" fill="#ffffcc" fill-rule="evenodd" stroke="none"/>
    <path d="M23.2 43.15 L31.45 44.65 32.95 46.35 Q32.35 47.0 31.9 48.0 L31.8 49.1 Q31.0 52.45 29.45 55.4 28.9 60.2 27.6 64.3 27.15 59.3 26.15 54.35 24.95 48.55 23.2 43.15 M11.6 83.65 L11.75 87.5 Q14.7 91.45 18.35 94.1 24.3 97.35 28.5 93.0 L28.9 91.3 Q29.05 88.6 28.5 86.15 27.85 85.05 26.8 84.65 28.55 81.85 29.45 78.2 L30.85 75.9 31.6 74.75 Q33.8 67.8 36.65 61.0 38.55 56.4 38.75 52.6 L48.8 62.6 49.4 62.55 Q50.0 62.5 50.4 62.1 52.05 62.9 53.55 61.3 L53.8 60.65 Q54.65 58.05 57.1 57.65 L57.4 57.25 57.6 56.95 58.95 58.3 59.25 59.55 Q63.4 68.05 68.55 75.9 L69.9 77.95 68.8 78.95 68.45 79.3 Q67.15 81.6 67.35 84.45 L67.7 86.7 68.4 86.9 Q60.05 93.5 44.3 99.95 L37.25 102.7 Q-6.95 118.95 -73.7 124.5 -140.45 130.05 -190.6 121.65 -240.9 113.2 -245.2 95.75 -249.45 78.25 -205.25 62.0 L-201.1 60.5 Q-201.5 66.35 -200.8 72.5 -199.75 82.65 -195.45 91.35 L-194.95 92.4 -190.8 96.45 Q-188.75 98.55 -185.95 98.8 L-184.3 98.95 -183.75 99.95 -182.85 100.9 -181.4 101.7 -179.15 102.45 Q-106.85 68.85 -25.2 79.85 -7.35 85.75 11.6 83.65 M49.5 59.7 L49.7 59.4 49.7 59.9 49.5 59.7 M34.95 55.35 L34.45 55.1 Q35.6 51.85 35.65 49.3 L36.45 50.15 34.95 55.3 34.95 55.35 M60.25 53.25 L60.45 53.5 Q60.15 53.6 60.0 53.8 L59.9 53.7 60.25 53.25 M77.55 71.05 L76.45 70.95 76.45 71.05 75.95 71.1 Q73.95 65.15 71.15 59.85 76.0 64.0 77.2 68.95 L77.55 71.05" fill="url(#gradient0)" fill-rule="evenodd" stroke="none"/>
  </g>
  <defs>
    <linearGradient gradientTransform="matrix(0.0041, 0.0522, -0.1971, 0.0159, -84.05, 82.35)" gradientUnits="userSpaceOnUse" id="gradient0" spreadMethod="pad" x1="-819.2" x2="819.2">
      <stop offset="0.0" stop-color="#050505"/>
      <stop offset="1.0" stop-color="#888888"/>
      <stop offset="1.0" stop-color="#666666"/>
    </linearGradient>
  </defs>
</svg>
