<?xml version="1.0" encoding="UTF-8" standalone="no"?>
<svg xmlns:ffdec="https://www.free-decompiler.com/flash" xmlns:xlink="http://www.w3.org/1999/xlink" ffdec:objectType="shape" height="102.2px" width="130.95px" xmlns="http://www.w3.org/2000/svg">
  <g transform="matrix(1.0, 0.0, 0.0, 1.0, 65.45, 51.1)">
    <path d="M-48.95 -28.6 Q-47.75 -26.55 -46.2 -24.85 -42.45 -26.05 -38.95 -24.35 -37.7 -21.15 -36.1 -18.25 -35.95 -18.0 -35.95 -17.6 -36.5 -14.9 -38.45 -16.85 -39.5 -19.5 -41.15 -22.1 L-41.45 -22.6 Q-44.4 -22.7 -44.95 -20.1 L-45.05 -14.85 -45.2 -13.35 Q-48.8 -14.9 -47.5 -21.35 L-47.45 -22.1 -51.45 -27.35 Q-51.85 -30.6 -51.35 -32.95 L-50.7 -33.1 Q-48.55 -31.85 -48.9 -29.35 L-48.95 -28.6 M-51.7 -21.1 Q-50.45 -18.85 -50.9 -15.85 L-50.95 -15.1 Q-52.45 -12.4 -55.45 -14.6 -59.6 -12.8 -61.2 -8.35 -63.2 -6.95 -64.45 -8.85 L-65.35 -14.85 -65.45 -15.6 Q-63.0 -16.5 -61.7 -13.1 -59.85 -14.85 -58.95 -17.1 -54.35 -15.75 -53.45 -18.1 -53.75 -19.8 -52.65 -20.8 L-51.7 -21.1 M-24.95 -26.35 L-24.9 -25.6 Q-24.75 -22.55 -25.2 -19.6 -25.7 -19.25 -26.2 -19.25 L-33.7 -19.85 -34.25 -21.4 Q-35.2 -25.45 -33.2 -27.35 L-25.7 -26.8 -24.95 -26.35 M-27.45 -23.35 Q-27.1 -26.95 -31.95 -24.35 -32.0 -19.3 -27.6 -22.85 -27.45 -23.0 -27.45 -23.35 M-34.95 -3.45 Q-31.05 -0.1 -33.75 5.55 L-34.2 6.4 -34.7 7.15 -39.95 7.9 -41.8 5.55 Q-44.55 1.15 -42.2 -3.35 -40.5 -2.4 -40.8 -0.35 L-40.95 1.15 -39.55 3.45 -38.95 4.9 -38.2 5.55 Q-37.5 6.0 -37.05 5.55 L-36.45 4.4 Q-35.05 3.25 -35.3 1.4 L-35.45 -0.1 Q-37.1 -1.65 -36.8 -3.45 L-36.75 -3.75 -36.2 -4.35 -34.95 -3.45 M-25.85 -3.45 Q-26.05 -1.05 -25.85 1.4 -25.8 2.55 -26.2 3.65 -29.1 1.65 -28.75 -3.45 L-28.35 -6.6 -27.95 -8.1 Q-22.65 -6.5 -18.2 -6.85 -17.05 -8.55 -16.85 -10.55 -16.8 -11.4 -15.7 -11.1 -11.65 -8.05 -11.1 -3.45 L-11.05 -1.35 Q-11.05 -1.0 -11.2 -0.6 -13.3 -0.75 -14.3 -3.45 -14.7 -4.45 -14.9 -5.8 L-15.2 -6.35 Q-16.9 -5.3 -17.1 -3.45 L-17.1 -3.35 -17.45 -2.1 Q-19.55 -2.6 -21.65 -3.45 -23.65 -4.25 -25.7 -5.35 L-25.85 -3.45 M-35.1 16.55 Q-34.35 15.3 -33.2 14.65 -31.05 15.15 -29.1 16.0 L-29.2 16.4 -29.25 16.55 -29.45 16.7 Q-31.55 17.05 -32.95 18.4 -32.95 19.15 -33.25 19.75 -34.05 21.2 -33.95 22.9 L-33.9 23.65 Q-33.7 24.8 -32.95 25.9 -27.7 28.7 -26.95 23.9 -24.45 23.65 -24.7 26.15 -24.8 27.3 -25.2 28.4 -28.15 31.55 -33.95 28.9 L-34.7 28.15 -36.2 26.65 Q-37.1 22.25 -35.85 18.25 L-35.1 16.55 M-51.7 -2.1 Q-48.15 1.3 -46.8 5.55 -46.2 7.6 -46.05 9.9 L-46.2 10.65 Q-48.6 8.55 -49.95 6.1 -50.35 8.3 -55.55 9.55 -55.25 11.05 -55.1 12.65 L-55.2 13.4 Q-56.9 12.0 -58.0 10.1 L-61.0 10.5 -61.45 10.15 Q-60.4 8.9 -59.0 8.0 L-59.75 5.55 Q-60.35 3.0 -60.3 -0.1 L-59.7 -0.1 Q-57.85 2.55 -56.7 5.55 L-56.35 6.65 Q-54.85 6.05 -53.15 5.8 L-52.1 5.55 -50.55 4.9 Q-52.05 1.7 -51.95 -2.1 L-51.7 -2.1 M-35.45 39.3 Q-35.45 38.8 -35.05 38.5 L-34.65 38.25 -31.65 37.15 Q-29.7 37.15 -30.1 38.85 L-30.3 39.25 Q-31.95 40.8 -33.55 40.6 L-33.6 40.85 -33.8 41.25 Q-33.15 42.55 -32.95 43.9 L-32.9 44.6 Q-31.65 43.65 -30.15 43.2 L-30.15 43.15 Q-28.2 43.15 -28.6 44.85 L-28.8 45.25 -31.3 46.65 Q-30.7 47.2 -30.9 48.25 L-30.9 48.5 -25.9 48.65 Q-28.2 52.35 -32.8 50.5 -33.4 49.65 -33.45 48.6 -34.1 48.5 -34.4 47.65 -36.55 43.5 -35.6 39.45 L-35.45 39.3 M-25.15 34.15 L-24.15 34.2 -23.55 34.4 -18.05 38.5 -17.55 38.9 Q-15.8 39.1 -15.05 40.55 L-14.9 40.9 -15.25 41.6 -16.15 42.15 Q-18.25 41.55 -20.1 40.35 L-20.2 40.6 -20.4 40.9 -21.15 41.15 -21.9 41.4 Q-22.0 42.3 -22.8 42.5 L-22.75 42.55 Q-21.75 44.75 -22.3 46.75 L-23.15 46.9 -24.3 46.5 Q-26.0 42.7 -26.6 38.65 -27.1 35.45 -25.15 34.15 M23.8 -30.35 Q27.95 -28.95 23.15 -26.15 L23.05 -25.85 Q25.95 -26.35 28.05 -24.35 L28.0 -22.1 27.8 -20.6 Q23.3 -17.45 21.55 -21.6 22.2 -22.15 22.95 -22.45 20.9 -22.75 19.55 -24.6 19.8 -28.6 23.75 -30.2 L23.8 -30.35 M16.8 -14.6 Q8.75 -16.7 1.55 -22.1 4.8 -23.1 9.3 -21.1 11.65 -19.15 14.3 -17.85 14.8 -23.55 12.55 -28.1 L12.8 -28.35 Q18.65 -24.05 17.0 -15.35 L16.8 -14.6 M51.35 -19.35 Q58.25 -18.4 56.65 -10.85 L56.6 -10.5 56.45 -10.1 56.2 -9.75 55.6 -9.0 55.7 -7.9 Q56.05 -6.55 55.95 -5.25 L55.8 -4.9 Q55.6 -4.65 55.3 -4.65 L54.1 -4.6 Q53.15 -5.6 53.15 -6.85 L53.1 -9.85 53.25 -10.2 53.6 -10.6 53.95 -11.0 54.2 -12.85 53.95 -15.85 Q50.2 -17.65 47.6 -13.6 L47.6 -12.85 47.4 -11.4 46.95 -10.6 46.4 -10.55 Q45.8 -10.65 45.3 -11.05 L45.1 -11.35 45.1 -12.1 45.1 -13.6 45.1 -14.35 46.3 -15.9 Q47.25 -16.65 47.7 -17.75 48.75 -18.55 50.05 -19.0 L51.35 -19.35 M43.35 -8.85 Q45.25 -9.15 45.5 -7.45 L45.45 -7.1 43.95 -5.95 43.9 -5.1 43.7 -4.75 Q45.8 -4.75 47.55 -3.45 L48.95 -2.1 49.2 0.9 Q49.2 1.75 48.6 2.4 45.2 4.75 43.6 1.75 45.05 0.35 46.6 -0.35 45.15 -2.55 41.2 -2.5 L41.1 -3.45 Q41.0 -4.45 41.05 -5.5 L41.2 -6.1 Q40.95 -7.65 42.6 -8.55 L43.35 -8.85 M-12.7 -51.1 Q-10.25 -42.9 -8.55 -34.45 L-8.0 -31.6 -7.95 -30.85 Q-9.4 -32.2 -10.7 -34.45 -12.85 -38.15 -14.45 -44.35 -14.8 -47.95 -13.4 -50.85 L-12.7 -51.1 M-16.95 -32.35 Q-15.75 -31.15 -15.45 -29.35 L-14.95 -29.0 Q-10.9 -29.3 -11.2 -26.6 -12.75 -24.75 -15.75 -24.25 -15.95 -24.25 -15.95 -23.1 -20.05 -20.05 -24.2 -24.35 -24.6 -27.3 -24.4 -30.35 -24.2 -32.8 -22.2 -33.35 L-17.7 -33.1 -16.95 -32.35 M-18.45 -29.35 Q-18.1 -31.95 -21.2 -30.35 -23.35 -27.05 -19.7 -25.0 L-18.45 -24.85 -18.45 -28.6 -18.45 -29.35 M-4.7 -18.1 Q-0.3 -14.85 2.55 -10.45 L3.05 -9.1 Q0.15 -8.6 -2.75 -12.0 -3.2 -9.7 -5.75 -8.6 L-5.75 -8.35 Q-5.45 -5.6 -6.5 -3.45 L-6.7 -3.1 -6.95 -3.45 Q-9.6 -7.05 -9.3 -13.65 -9.15 -17.05 -7.2 -18.35 L-4.7 -18.1 M-5.7 -15.6 L-5.9 -12.1 -4.0 -13.65 -4.2 -13.95 -5.7 -15.6 M1.3 -20.1 L2.1 -19.7 4.3 -19.1 Q6.5 -16.45 7.8 -13.1 8.2 -12.0 8.05 -10.85 5.4 -9.2 4.7 -13.1 L4.3 -14.6 Q-0.95 -17.25 1.0 -20.0 L1.3 -20.1 M-3.2 -25.6 Q-5.7 -23.15 -8.45 -25.85 -7.15 -29.0 -4.7 -30.1 L-3.15 -26.25 -3.2 -25.6 M1.3 4.7 L2.2 5.55 2.8 6.15 2.95 6.9 2.95 10.65 2.8 11.4 Q0.85 12.65 0.85 10.65 0.85 8.5 -0.45 6.9 L-0.45 6.65 -3.95 7.4 -3.8 9.65 Q-3.45 12.65 -4.7 14.9 L-5.55 14.6 Q-6.6 13.15 -6.7 11.15 -7.05 10.75 -7.4 10.8 -11.35 11.35 -11.45 8.4 -6.75 8.55 -5.8 5.6 L-5.75 5.55 Q-5.3 4.05 -4.2 3.65 L0.3 3.9 1.3 4.7 M-0.15 21.15 L0.0 20.75 0.15 20.05 0.35 19.65 0.85 19.3 2.35 18.65 Q3.85 18.2 4.8 19.3 L5.1 19.65 5.05 20.0 Q4.95 20.7 4.35 21.0 L3.85 21.15 2.6 21.4 Q2.2 22.45 1.4 23.35 L0.6 24.4 0.55 25.15 Q0.45 26.0 0.85 26.65 2.25 28.8 5.85 26.9 6.85 25.2 8.8 25.4 L9.85 25.75 10.0 26.15 Q10.15 26.8 9.7 27.25 5.6 31.2 -0.4 29.4 L-0.75 29.0 -1.9 27.9 -1.9 25.25 -1.9 23.4 -1.1 22.25 Q-0.8 21.6 -0.15 21.15 M8.35 16.65 Q11.15 19.15 12.9 22.45 15.15 20.15 18.3 18.7 L18.35 18.65 Q20.3 18.65 19.9 20.35 L19.7 20.75 Q17.2 21.85 15.25 23.9 L14.85 24.15 13.55 24.15 Q13.05 25.55 11.6 24.9 6.4 20.5 8.3 16.75 L8.35 16.65 M-16.7 11.9 Q-13.45 12.8 -12.65 15.55 L-12.2 16.15 Q-10.05 15.95 -9.05 16.55 -8.15 17.1 -8.2 18.4 -10.15 20.65 -13.95 18.9 L-14.8 17.6 Q-14.75 19.65 -16.05 21.6 L-17.2 23.15 Q-20.65 25.5 -23.45 23.15 -23.45 20.5 -23.6 17.9 L-23.55 16.55 Q-23.4 15.65 -22.95 14.9 L-22.4 15.05 -21.75 13.4 -21.2 12.65 -20.35 13.0 -20.2 11.9 -20.2 11.65 Q-19.1 11.85 -18.15 12.35 -18.05 11.8 -16.7 11.9 M-20.6 17.5 Q-20.5 18.35 -20.75 19.45 L-20.95 21.4 Q-18.25 21.4 -17.55 18.85 L-17.45 18.15 -18.8 16.55 -19.5 15.5 -19.95 16.55 -20.4 17.25 -20.6 17.5 M-12.15 27.15 Q-10.75 29.45 -13.1 31.2 -11.45 33.9 -11.0 37.4 L-11.05 37.75 Q-11.25 38.6 -12.15 38.55 L-12.9 38.4 Q-15.05 35.3 -14.9 32.2 L-15.65 32.5 -16.4 32.75 Q-16.9 33.8 -17.7 34.45 L-18.15 34.65 Q-19.75 34.25 -19.45 32.5 L-19.4 32.15 Q-16.4 28.85 -12.2 27.2 L-12.15 27.15 M-23.65 37.5 L-23.65 39.6 -22.3 38.6 -22.6 38.35 -23.65 37.5 M55.7 -1.5 Q55.2 -2.65 56.35 -3.2 L56.85 -3.35 Q59.45 -1.2 56.1 -1.3 L55.7 -1.5 M39.45 -1.6 L39.95 -1.2 40.95 -0.1 41.3 2.85 Q41.45 4.35 41.1 5.55 L40.35 7.0 39.85 7.1 39.55 7.05 39.45 7.4 Q39.15 8.1 38.35 8.05 L37.6 7.9 36.35 5.55 34.8 3.25 34.1 2.25 Q32.9 2.15 32.65 1.15 L32.6 0.75 33.05 0.15 33.1 0.1 33.15 -0.45 33.35 -0.85 33.6 -1.1 Q34.4 -1.65 35.35 -1.8 L35.35 -1.85 38.85 -1.75 39.45 -1.6 M38.45 1.05 L36.5 0.95 38.6 4.75 38.6 1.25 38.45 1.05 M29.85 2.15 Q32.4 3.1 33.1 5.55 L33.1 5.65 33.2 6.0 Q35.2 8.35 34.75 11.65 34.65 12.3 34.2 12.75 32.15 14.8 29.1 13.4 28.3 12.35 27.1 11.9 L24.7 8.5 Q24.5 7.6 24.75 6.7 L25.1 5.9 Q28.05 7.05 29.95 10.75 31.6 11.95 32.1 10.5 32.35 8.25 30.8 6.6 L30.6 6.0 30.3 5.55 29.6 5.25 29.2 5.0 Q28.1 3.65 29.2 2.5 29.45 2.25 29.85 2.15 M24.85 10.25 L25.0 10.65 25.0 14.4 24.85 15.15 Q23.55 16.2 22.2 16.55 20.75 16.95 19.2 16.55 17.95 16.25 16.7 15.5 L16.4 14.05 Q15.9 10.65 17.85 9.15 21.45 8.15 24.45 9.95 L24.85 10.25 M22.6 12.65 Q22.5 10.25 19.1 11.9 18.75 15.25 22.5 12.9 L22.6 12.65 M59.45 -22.75 L63.45 -13.7 63.6 -13.0 63.95 -12.6 64.35 -12.25 Q64.75 -11.4 64.4 -10.4 L63.95 -9.6 Q62.15 -9.4 61.2 -11.5 58.6 -17.5 57.95 -23.15 L58.35 -23.35 58.95 -23.05 59.45 -22.75 M63.85 -7.7 L64.35 -7.85 Q66.95 -5.7 63.6 -5.8 L63.2 -6.0 Q62.7 -7.15 63.85 -7.7" fill="#333333" fill-rule="evenodd" stroke="none"/>
  </g>
</svg>
