<?xml version="1.0" encoding="UTF-8" standalone="no"?>
<svg xmlns:ffdec="https://www.free-decompiler.com/flash" xmlns:xlink="http://www.w3.org/1999/xlink" ffdec:objectType="shape" height="130.95px" width="278.85px" xmlns="http://www.w3.org/2000/svg">
  <g transform="matrix(1.0, 0.0, 0.0, 1.0, 191.85, 107.55)">
    <path d="M66.2 -66.5 Q88.0 -59.7 86.95 -37.15 86.5 -27.45 80.65 -20.35 68.1 -5.15 48.5 -9.0 42.05 8.65 23.9 13.05 -1.6 19.25 -20.5 2.0 -39.2 30.65 -76.05 20.95 -92.85 16.5 -105.75 4.75 -144.05 31.55 -178.95 -1.85 -204.5 -26.25 -179.4 -49.05 -171.5 -56.2 -161.0 -57.25 -159.3 -87.05 -125.7 -92.25 -99.65 -96.3 -77.0 -83.0 -72.1 -86.4 -68.5 -91.5 -61.55 -101.4 -50.7 -105.05 L-47.0 -106.0 Q-14.15 -112.65 7.75 -90.5 L8.25 -90.0 Q41.2 -98.3 61.35 -73.5 64.0 -70.2 66.2 -66.5 M35.5 -70.25 Q16.8 -68.55 -0.45 -71.6 -3.3 -72.1 -5.4 -74.9 -11.45 -83.1 -21.45 -84.25 L-46.25 -85.5 Q-58.95 -69.95 -74.45 -59.65 -77.35 -57.7 -80.35 -60.25 -109.25 -85.15 -140.75 -62.75 -138.8 -51.25 -147.75 -45.5 -149.95 -44.1 -152.75 -43.75 -160.7 -35.4 -171.75 -30.25 -172.2 -28.05 -172.15 -25.75 -172.15 -24.6 -171.75 -23.5 -153.35 3.4 -123.7 -8.85 -117.6 -11.4 -112.95 -16.25 -101.8 -27.95 -95.25 -13.5 -74.95 10.25 -44.5 0.0 -35.95 -17.6 -19.25 -19.95 -14.55 -20.6 -10.8 -17.0 -4.9 -11.3 2.0 -6.75 13.9 -4.45 25.0 -9.0 30.9 -25.65 45.55 -30.2 L52.9 -30.0 Q59.45 -27.8 64.95 -31.0 L65.2 -40.75 Q65.3 -42.8 64.45 -44.5 49.8 -49.0 41.45 -64.3 39.95 -67.0 37.1 -68.95 36.25 -69.5 35.5 -70.25" fill="url(#gradient0)" fill-rule="evenodd" stroke="none"/>
    <path d="M35.5 -70.25 Q36.25 -69.5 37.1 -68.95 39.95 -67.0 41.45 -64.3 49.8 -49.0 64.45 -44.5 65.3 -42.8 65.2 -40.75 L64.95 -31.0 Q59.45 -27.8 52.9 -30.0 L45.55 -30.2 Q30.9 -25.65 25.0 -9.0 13.9 -4.45 2.0 -6.75 -4.9 -11.3 -10.8 -17.0 -14.55 -20.6 -19.25 -19.95 -35.95 -17.6 -44.5 0.0 -74.95 10.25 -95.25 -13.5 -101.8 -27.95 -112.95 -16.25 -117.6 -11.4 -123.7 -8.85 -153.35 3.4 -171.75 -23.5 -172.15 -24.6 -172.15 -25.75 -172.2 -28.05 -171.75 -30.25 -160.7 -35.4 -152.75 -43.75 -149.95 -44.1 -147.75 -45.5 -138.8 -51.25 -140.75 -62.75 -109.25 -85.15 -80.35 -60.25 -77.35 -57.7 -74.45 -59.65 -58.95 -69.95 -46.25 -85.5 L-21.45 -84.25 Q-11.45 -83.1 -5.4 -74.9 -3.3 -72.1 -0.45 -71.6 16.8 -68.55 35.5 -70.25" fill="url(#gradient1)" fill-rule="evenodd" stroke="none"/>
  </g>
  <defs>
    <radialGradient cx="0" cy="0" gradientTransform="matrix(0.1723, 0.0, 0.0, 0.1723, -52.4, -42.05)" gradientUnits="userSpaceOnUse" id="gradient0" r="819.2" spreadMethod="pad">
      <stop offset="0.0" stop-color="#bbffff"/>
      <stop offset="1.0" stop-color="#ffffff"/>
    </radialGradient>
    <radialGradient cx="0" cy="0" gradientTransform="matrix(0.2, 0.0, 0.0, 0.2, -9.0, -19.0)" gradientUnits="userSpaceOnUse" id="gradient1" r="819.2" spreadMethod="pad">
      <stop offset="0.0" stop-color="#bbffff"/>
      <stop offset="1.0" stop-color="#ffffff"/>
    </radialGradient>
  </defs>
</svg>
