<?xml version="1.0" encoding="UTF-8" standalone="no"?>
<svg xmlns:ffdec="https://www.free-decompiler.com/flash" xmlns:xlink="http://www.w3.org/1999/xlink" ffdec:objectType="shape" height="400.05px" width="601.35px" xmlns="http://www.w3.org/2000/svg">
  <g transform="matrix(1.0, 0.0, 0.0, 1.0, 1.35, 0.0)">
    <path d="M596.75 2.35 Q600.0 4.75 600.0 8.1 L600.0 391.95 Q600.0 395.3 596.75 397.65 593.55 400.05 589.0 400.05 L9.65 400.05 Q5.1 400.05 1.85 397.65 -1.35 395.3 -1.35 391.95 L-1.35 8.1 Q-1.35 4.75 1.85 2.35 5.1 0.0 9.65 0.0 L589.0 0.0 Q593.55 0.0 596.75 2.35 M581.6 17.1 Q578.4 13.9 573.85 13.9 L22.1 13.9 Q17.55 13.9 14.3 17.1 11.1 20.35 11.1 24.9 L11.1 374.75 Q11.1 379.3 14.3 382.5 17.55 385.75 22.1 385.75 L573.85 385.75 Q578.4 385.75 581.6 382.5 584.85 379.3 584.85 374.75 L584.85 24.9 Q584.85 20.35 581.6 17.1" fill="#660033" fill-rule="evenodd" stroke="none"/>
    <path d="M581.6 17.1 Q584.85 20.35 584.85 24.9 L584.85 374.75 Q584.85 379.3 581.6 382.5 578.4 385.75 573.85 385.75 L22.1 385.75 Q17.55 385.75 14.3 382.5 11.1 379.3 11.1 374.75 L11.1 24.9 Q11.1 20.35 14.3 17.1 17.55 13.9 22.1 13.9 L573.85 13.9 Q578.4 13.9 581.6 17.1 M570.5 29.65 Q567.3 26.45 562.75 26.45 L31.85 26.45 Q27.3 26.45 24.05 29.65 20.85 32.9 20.85 37.45 L20.85 362.2 Q20.85 366.75 24.05 369.95 27.3 373.2 31.85 373.2 L562.75 373.2 Q567.3 373.2 570.5 369.95 573.75 366.75 573.75 362.2 L573.75 37.45 Q573.75 32.9 570.5 29.65" fill="#ffffff" fill-rule="evenodd" stroke="none"/>
    <path d="M570.5 29.65 Q573.75 32.9 573.75 37.45 L573.75 362.2 Q573.75 366.75 570.5 369.95 567.3 373.2 562.75 373.2 L31.85 373.2 Q27.3 373.2 24.05 369.95 20.85 366.75 20.85 362.2 L20.85 37.45 Q20.85 32.9 24.05 29.65 27.3 26.45 31.85 26.45 L562.75 26.45 Q567.3 26.45 570.5 29.65" fill="#97617c" fill-rule="evenodd" stroke="none"/>
  </g>
</svg>
