<?xml version="1.0" encoding="UTF-8" standalone="no"?>
<svg xmlns:ffdec="https://www.free-decompiler.com/flash" xmlns:xlink="http://www.w3.org/1999/xlink" ffdec:objectType="shape" height="64.65px" width="101.25px" xmlns="http://www.w3.org/2000/svg">
  <g transform="matrix(1.0, 0.0, 0.0, 1.0, -34.4, 37.7)">
    <path d="M75.9 -30.05 L76.8 -30.4 Q82.3 -30.8 86.05 -26.85 L86.55 -26.15 86.7 -24.75 86.95 -22.7 87.3 -21.95 Q87.7 -20.75 89.15 -20.65 91.4 -20.55 91.6 -18.4 90.3 -15.5 86.8 -14.75 L84.45 -14.4 Q78.05 -12.25 73.7 -15.6 73.25 -19.1 73.25 -22.65 73.25 -25.5 73.7 -28.3 L74.4 -29.0 75.9 -30.05 M65.15 -37.7 Q68.9 -28.35 66.6 -16.1 L66.6 -15.4 68.25 -11.8 68.25 -11.15 Q66.8 -8.5 63.7 -10.0 59.65 -23.4 64.5 -36.95 64.65 -37.5 65.15 -37.7 M44.1 -34.35 Q46.35 -36.95 49.3 -37.7 L56.0 -37.7 Q59.4 -36.2 59.5 -32.3 L59.1 -25.95 Q57.5 -23.55 55.15 -22.15 53.7 -21.4 52.35 -21.45 53.15 -15.85 52.8 -9.8 L52.4 -9.05 Q49.8 -7.9 48.85 -10.45 45.45 -20.6 46.8 -29.05 L45.5 -28.3 Q44.75 -28.55 44.25 -29.0 42.6 -30.6 43.1 -33.0 L44.1 -34.35 M49.65 -31.95 L51.25 -26.85 Q53.65 -28.4 54.55 -30.2 L54.6 -30.9 Q55.1 -34.5 50.5 -32.55 L49.65 -31.95 M50.25 -7.5 L53.45 -7.5 Q61.7 1.3 69.65 10.65 L70.0 11.3 72.0 12.85 72.35 13.4 Q72.75 15.8 72.75 18.35 72.7 19.5 71.9 20.45 70.45 21.7 68.85 20.6 L68.1 20.0 Q67.7 18.95 67.8 17.9 L67.85 16.45 64.2 11.5 50.8 11.0 Q47.85 16.05 43.7 21.25 42.5 22.7 40.65 23.05 38.7 22.85 38.3 21.1 L38.25 20.45 Q41.6 16.4 44.4 11.95 L40.65 12.95 Q39.9 13.25 39.55 13.85 37.9 16.2 35.4 15.05 L34.8 14.25 Q34.25 13.0 34.45 11.55 L34.95 10.95 Q38.8 7.8 43.5 7.05 L47.15 7.15 48.2 5.15 49.7 2.15 Q49.7 -2.5 50.2 -7.0 L50.25 -7.5 M78.0 -2.55 Q80.65 -3.25 82.8 -1.75 L83.95 -1.15 84.85 0.35 Q85.2 1.55 86.6 2.35 87.4 5.0 87.4 8.0 L87.2 10.2 Q87.95 16.6 86.75 23.95 L86.6 24.7 Q76.8 29.9 72.75 23.05 75.75 18.6 82.3 19.75 81.85 16.65 81.8 13.8 L78.5 12.95 76.2 10.95 73.95 9.4 Q73.5 7.35 73.6 5.2 L73.7 0.95 Q74.45 -0.25 75.5 -1.25 76.75 -2.45 78.0 -2.55 M78.2 -20.3 Q80.1 -17.35 82.05 -20.3 L82.05 -23.1 82.05 -23.8 Q80.6 -26.0 78.2 -25.25 L78.2 -21.0 78.2 -20.3 M103.5 -36.2 Q107.5 -28.9 103.05 -19.1 100.8 -14.3 99.2 -9.45 L98.65 -7.65 97.9 -5.1 97.25 -2.75 97.05 -1.9 Q94.75 -0.9 93.75 -2.75 L93.5 -3.35 93.65 -5.1 93.95 -7.65 94.2 -9.45 Q95.25 -16.15 97.3 -22.3 L96.85 -22.3 95.4 -22.6 Q88.55 -27.8 90.55 -33.0 90.6 -33.3 91.1 -33.4 96.4 -31.1 98.5 -25.75 100.55 -31.15 103.45 -36.05 L103.5 -36.2 M110.3 -1.6 Q109.75 -2.85 110.2 -3.75 110.5 -4.4 111.5 -4.85 L112.45 -5.15 113.95 -3.75 Q116.15 -1.2 111.0 -1.3 110.65 -1.3 110.3 -1.6 M122.95 -0.8 L123.75 -0.2 131.65 0.05 Q133.55 2.7 133.1 6.35 132.8 9.2 132.85 12.0 L135.5 14.7 135.6 15.25 135.45 16.0 Q133.3 18.55 130.0 16.8 L129.25 16.25 Q127.4 14.2 127.75 11.25 L128.05 5.65 Q127.9 3.05 125.9 5.45 124.8 7.65 125.3 10.3 125.8 13.4 123.75 15.3 121.25 16.0 120.45 13.65 120.6 8.2 119.5 3.05 118.75 -0.7 121.85 -1.4 L122.95 -0.8 M114.0 1.3 L115.5 4.5 Q117.45 9.3 118.55 15.05 L118.35 15.65 Q116.2 17.3 114.35 16.05 L113.4 15.15 Q108.65 6.75 113.9 1.45 L114.0 1.3 M105.3 12.3 Q108.85 11.6 111.3 13.95 L111.9 14.6 111.85 15.25 Q111.65 16.55 110.45 17.2 105.5 19.05 103.1 17.3 98.5 19.2 94.0 16.25 92.1 14.2 92.45 11.25 L92.8 4.95 93.2 4.2 Q94.5 1.35 97.05 0.6 L97.1 0.5 103.95 1.25 Q104.35 1.25 104.7 1.65 L105.3 10.15 105.3 12.3 M98.5 5.65 Q96.95 8.1 97.45 11.3 L97.55 12.0 Q99.8 13.9 100.45 11.55 101.5 6.3 98.7 5.55 L98.5 5.65 M82.3 4.0 Q81.55 2.45 78.95 2.9 L78.5 3.05 Q78.3 4.85 78.9 6.5 L79.45 7.3 Q81.15 9.55 82.3 7.55 L82.3 4.7 82.3 4.0 M55.2 1.65 Q54.15 4.5 52.7 7.4 L61.2 7.9 55.7 2.3 55.2 1.65" fill="#ffffff" fill-rule="evenodd" stroke="none"/>
  </g>
</svg>
