<?xml version="1.0" encoding="UTF-8" standalone="no"?>
<svg xmlns:ffdec="https://www.free-decompiler.com/flash" xmlns:xlink="http://www.w3.org/1999/xlink" ffdec:objectType="shape" height="48.75px" width="72.25px" xmlns="http://www.w3.org/2000/svg">
  <g transform="matrix(1.0, 0.0, 0.0, 1.0, -25.4, 29.85)">
    <path d="M31.5 -27.4 Q33.1 -29.3 35.2 -29.85 L40.0 -29.85 Q42.45 -28.75 42.5 -25.85 L42.2 -21.15 Q41.1 -19.35 39.4 -18.35 38.35 -17.75 37.4 -17.8 37.95 -13.65 37.7 -9.15 L37.45 -8.6 Q35.55 -7.75 34.9 -9.65 32.45 -17.2 33.45 -23.45 L32.5 -22.9 Q31.95 -23.1 31.6 -23.4 30.4 -24.6 30.8 -26.4 L31.5 -27.4 M36.1 -26.05 L35.45 -25.6 36.6 -21.8 Q38.3 -22.95 38.95 -24.3 L39.0 -24.8 Q39.35 -27.5 36.1 -26.05 M39.0 -6.6 Q44.9 -0.1 50.55 6.85 L50.8 7.35 52.25 8.5 52.5 8.9 52.8 12.55 Q52.75 13.4 52.15 14.15 L50.0 14.25 49.45 13.75 Q49.15 13.0 49.25 12.2 L49.25 11.15 46.7 7.45 37.1 7.1 Q35.0 10.85 32.05 14.7 31.2 15.8 29.85 16.05 28.45 15.9 28.2 14.6 L28.15 14.15 Q30.55 11.15 32.55 7.8 L29.85 8.55 29.05 9.2 Q27.9 10.95 26.1 10.1 L25.7 9.55 Q25.3 8.6 25.45 7.5 L25.8 7.05 Q28.55 4.75 31.9 4.2 L34.5 4.25 35.25 2.75 36.35 0.55 Q36.3 -2.9 36.65 -6.25 L36.7 -6.6 39.0 -6.6 M74.7 -27.9 Q77.55 -22.45 74.4 -15.2 72.8 -11.65 71.65 -8.05 L71.25 -6.7 70.75 -4.85 70.25 -3.1 70.1 -2.45 Q68.45 -1.75 67.75 -3.1 L67.55 -3.5 67.7 -4.85 67.9 -6.7 68.1 -8.05 Q68.8 -13.05 70.3 -17.6 L69.95 -17.6 68.95 -17.8 Q64.05 -21.7 65.45 -25.55 L65.9 -25.8 Q69.65 -24.1 71.15 -20.15 72.6 -24.15 74.7 -27.75 L74.7 -27.9 M48.15 -29.85 Q50.85 -22.95 49.2 -13.85 L49.2 -13.3 50.35 -10.65 50.35 -10.2 Q49.35 -8.2 47.15 -9.3 44.25 -19.25 47.7 -29.3 L48.15 -29.85 M56.65 -19.75 L56.65 -16.65 56.65 -16.1 Q58.0 -13.9 59.4 -16.1 L59.4 -18.2 59.4 -18.7 Q58.35 -20.35 56.65 -19.75 M55.65 -23.6 Q59.6 -23.9 62.25 -20.95 L62.65 -20.45 62.75 -19.4 62.9 -17.85 63.15 -17.3 Q63.45 -16.45 64.45 -16.35 66.1 -16.25 66.2 -14.7 65.3 -12.55 62.8 -12.0 L61.1 -11.75 Q56.55 -10.15 53.45 -12.6 53.1 -15.2 53.15 -17.85 53.1 -19.95 53.45 -22.0 L53.95 -22.55 55.0 -23.35 55.65 -23.6 M59.95 -2.35 L60.75 -1.9 61.4 -0.8 Q61.65 0.1 62.65 0.7 63.2 2.65 63.25 4.9 L63.1 6.5 Q63.6 11.25 62.75 16.7 L62.65 17.25 Q55.65 21.1 52.8 16.05 54.9 12.75 59.6 13.6 59.25 11.3 59.25 9.2 L56.85 8.55 55.2 7.1 53.6 5.95 Q53.3 4.4 53.4 2.8 L53.45 -0.35 54.75 -1.95 Q55.6 -2.85 56.55 -2.95 58.4 -3.45 59.95 -2.35 M70.15 -0.7 L75.05 -0.15 75.6 0.2 76.0 6.45 76.0 8.05 Q78.55 7.55 80.3 9.3 L80.7 9.75 80.65 10.25 Q80.5 11.2 79.65 11.7 76.15 13.05 74.45 11.75 71.15 13.2 67.95 11.0 66.6 9.5 66.85 7.3 L67.05 2.65 67.35 2.1 Q68.3 -0.05 70.1 -0.6 L70.15 -0.7 M79.5 -3.8 Q79.7 -4.35 80.4 -4.65 L81.1 -4.85 82.2 -3.8 Q83.75 -1.95 80.1 -2.0 79.8 -2.0 79.6 -2.25 79.15 -3.2 79.5 -3.8 M94.8 -1.0 Q96.15 0.95 95.85 3.65 L95.65 7.85 Q96.7 8.7 97.55 9.85 L97.6 10.25 97.5 10.85 Q95.95 12.7 93.65 11.4 L93.1 11.0 Q91.75 9.5 92.0 7.3 L92.25 3.15 Q92.15 1.25 90.7 3.0 89.9 4.65 90.25 6.6 90.65 8.9 89.2 10.3 87.35 10.8 86.8 9.1 86.9 5.05 86.15 1.2 85.6 -1.55 87.8 -2.1 L88.6 -1.65 89.2 -1.2 94.8 -1.0 M85.45 10.1 L85.3 10.55 Q83.8 11.8 82.45 10.85 L81.75 10.2 Q78.4 3.95 82.15 0.05 L82.2 -0.1 83.25 2.3 Q84.7 5.85 85.45 10.1 M71.3 3.1 L71.15 3.15 Q70.05 4.95 70.4 7.35 L70.5 7.85 Q72.1 9.25 72.55 7.5 73.3 3.65 71.3 3.1 M56.85 1.2 Q56.7 2.55 57.15 3.8 L57.55 4.4 Q58.8 6.05 59.6 4.55 L59.6 2.45 59.6 1.95 Q59.05 0.75 57.2 1.1 L56.85 1.2 M40.6 0.65 L40.25 0.2 38.45 4.45 44.5 4.8 40.6 0.65" fill="#ffff66" fill-rule="evenodd" stroke="none"/>
  </g>
</svg>
