<?xml version="1.0" encoding="UTF-8" standalone="no"?>
<svg xmlns:ffdec="https://www.free-decompiler.com/flash" xmlns:xlink="http://www.w3.org/1999/xlink" ffdec:objectType="shape" height="401.95px" width="600.95px" xmlns="http://www.w3.org/2000/svg">
  <g transform="matrix(1.0, 0.0, 0.0, 1.0, 0.0, 1.0)">
    <path d="M11.05 -1.0 L589.95 -1.0 Q594.5 -1.0 597.7 2.0 600.95 5.0 600.95 9.3 L600.95 390.65 Q600.95 394.9 597.7 397.95 594.5 400.95 589.95 400.95 L11.05 400.95 Q6.45 400.95 3.2 397.95 0.0 394.9 0.0 390.65 L0.0 9.3 Q0.0 5.0 3.2 2.0 6.45 -1.0 11.05 -1.0 M580.85 15.15 Q577.65 11.95 573.1 11.95 L26.9 11.95 Q22.35 11.95 19.1 15.15 15.9 18.4 15.9 22.95 L15.9 373.15 Q15.9 377.7 19.1 380.9 22.35 384.15 26.9 384.15 L573.1 384.15 Q577.65 384.15 580.85 380.9 584.1 377.7 584.1 373.15 L584.1 22.95 Q584.1 18.4 580.85 15.15" fill="#333366" fill-rule="evenodd" stroke="none"/>
    <path d="M580.85 15.15 Q584.1 18.4 584.1 22.95 L584.1 373.15 Q584.1 377.7 580.85 380.9 577.65 384.15 573.1 384.15 L26.9 384.15 Q22.35 384.15 19.1 380.9 15.9 377.7 15.9 373.15 L15.9 22.95 Q15.9 18.4 19.1 15.15 22.35 11.95 26.9 11.95 L573.1 11.95 Q577.65 11.95 580.85 15.15 M570.25 23.05 Q567.05 19.85 562.5 19.85 L34.85 19.85 Q30.3 19.85 27.05 23.05 23.85 26.3 23.85 30.85 L23.85 363.8 Q23.85 368.35 27.05 371.55 30.3 374.8 34.85 374.8 L562.5 374.8 Q567.05 374.8 570.25 371.55 573.5 368.35 573.5 363.8 L573.5 30.85 Q573.5 26.3 570.25 23.05" fill="#ffffff" fill-rule="evenodd" stroke="none"/>
    <path d="M570.25 23.05 Q573.5 26.3 573.5 30.85 L573.5 363.8 Q573.5 368.35 570.25 371.55 567.05 374.8 562.5 374.8 L34.85 374.8 Q30.3 374.8 27.05 371.55 23.85 368.35 23.85 363.8 L23.85 30.85 Q23.85 26.3 27.05 23.05 30.3 19.85 34.85 19.85 L562.5 19.85 Q567.05 19.85 570.25 23.05" fill="#55557d" fill-rule="evenodd" stroke="none"/>
  </g>
</svg>
