<?xml version="1.0" encoding="UTF-8" standalone="no"?>
<svg xmlns:ffdec="https://www.free-decompiler.com/flash" xmlns:xlink="http://www.w3.org/1999/xlink" ffdec:objectType="shape" height="296.55px" width="302.5px" xmlns="http://www.w3.org/2000/svg">
  <g transform="matrix(1.0, 0.0, 0.0, 1.0, 143.25, 94.35)">
    <path d="M75.0 -87.75 L75.35 -87.7 76.1 -91.45 Q76.15 -91.85 76.5 -92.2 L77.4 -93.0 Q78.7 -94.15 80.2 -94.35 L97.5 -94.15 99.1 -93.8 100.3 -93.0 102.8 -90.65 102.9 -89.85 Q103.1 -87.45 102.75 -85.15 L102.25 -83.7 112.55 -82.9 Q116.4 -82.5 119.85 -80.35 L120.2 -79.5 Q121.3 -74.9 121.9 -70.2 123.15 -68.85 122.3 -66.6 L122.25 -66.55 122.45 -59.4 151.1 -58.55 152.4 -58.1 152.95 -57.3 Q154.3 -52.7 153.6 -47.9 L153.3 -47.05 153.0 -46.65 Q156.05 -46.3 158.25 -44.4 L158.6 -43.6 159.25 -19.8 Q159.3 -17.65 157.95 -15.85 L156.95 -15.45 Q148.4 -13.15 140.25 -15.6 L139.3 -16.35 136.9 -17.9 Q137.4 -14.95 136.55 -11.35 L136.35 -10.85 132.05 -11.85 125.45 -10.0 125.45 -10.6 99.8 -12.0 101.15 -6.85 Q103.25 2.55 103.25 13.25 L103.4 14.0 Q106.85 19.5 110.75 24.85 119.35 27.05 126.7 31.25 126.95 31.35 127.0 31.85 L125.6 33.35 123.35 34.5 121.5 34.4 118.25 34.15 Q119.65 34.8 121.4 35.15 L122.8 37.3 Q131.8 39.15 136.65 45.15 L136.75 45.85 Q135.75 47.5 133.5 47.6 L132.05 47.65 127.85 46.2 130.25 51.35 130.55 51.25 Q131.45 51.5 132.35 51.9 L133.85 52.7 Q136.0 55.4 137.8 58.2 L138.55 59.9 Q138.6 61.55 136.65 62.45 L134.9 63.15 134.1 62.85 134.2 63.25 135.6 70.2 Q139.35 74.8 140.95 81.1 141.1 81.45 140.75 81.95 139.25 83.1 137.75 83.4 L136.4 83.45 136.4 84.65 136.8 83.9 Q137.1 83.55 137.8 83.45 144.85 90.65 139.7 100.6 L139.25 101.05 137.35 101.25 Q137.1 103.35 136.05 105.7 L135.35 106.65 135.95 107.4 136.4 107.3 Q142.35 113.8 135.7 123.0 L134.9 123.7 Q130.05 124.55 129.85 120.75 129.95 117.95 130.75 115.4 L129.85 115.05 129.8 115.35 128.8 120.65 128.8 120.75 Q116.05 138.05 95.75 139.45 98.55 147.2 97.0 156.95 L96.9 157.75 97.0 158.4 127.55 159.9 Q133.2 161.85 137.2 165.95 138.25 174.45 137.65 183.4 L137.45 184.95 Q132.15 189.85 124.8 192.1 107.4 194.0 94.0 190.5 93.15 194.4 90.7 197.9 86.55 201.0 81.3 201.25 58.15 202.4 34.95 202.15 26.75 187.1 29.2 168.75 30.0 162.5 30.0 156.2 20.95 157.05 13.0 152.75 12.4 148.85 12.6 144.85 L12.65 141.65 Q13.2 139.7 15.4 138.35 L16.35 137.65 28.8 135.8 28.4 123.45 Q19.3 126.8 12.6 123.8 L11.95 124.1 10.8 124.45 Q-21.15 123.85 -44.8 110.2 -44.0 111.3 -44.7 113.1 L-45.0 113.9 -46.85 115.5 -47.75 116.3 Q-51.95 139.6 -51.0 163.95 L-50.8 167.5 -50.7 169.4 -50.55 172.55 Q-35.7 170.15 -21.3 176.8 -19.5 177.65 -17.7 178.65 -15.3 184.6 -15.6 191.35 -15.65 192.55 -16.15 193.7 -36.25 200.35 -59.2 196.9 L-63.05 194.5 Q-62.85 196.0 -63.15 197.6 L-63.55 199.25 Q-64.85 199.9 -66.05 199.9 -93.65 200.3 -121.1 198.4 -125.95 198.0 -128.4 194.15 -129.25 192.75 -130.8 191.85 -131.2 179.7 -130.6 167.5 L-130.4 163.95 -129.95 157.85 Q-129.75 155.45 -127.4 153.8 -125.05 149.55 -123.2 145.35 -126.75 146.15 -128.55 143.95 L-128.8 145.55 -129.25 146.4 Q-132.45 148.55 -136.1 146.15 -137.4 145.15 -137.9 143.8 L-138.55 143.0 -141.95 141.15 Q-146.55 123.25 -135.15 110.2 -132.45 88.5 -131.0 66.15 -131.35 63.85 -131.15 61.6 L-131.15 60.0 Q-119.75 52.45 -111.6 42.8 -109.0 26.25 -109.95 8.7 L-110.05 7.15 Q-99.2 -3.3 -81.85 0.3 -70.0 8.45 -59.2 17.7 -50.05 20.95 -39.4 19.3 -37.4 17.3 -34.75 16.1 L-34.5 15.35 -34.15 13.75 -33.25 12.95 -32.25 12.15 -32.1 11.4 -31.95 9.75 -31.05 9.0 Q-30.45 8.55 -29.8 8.2 -29.3 4.65 -29.5 1.05 L-29.5 -0.55 Q-22.55 -10.6 -9.75 -10.2 L-2.55 -9.25 -0.15 -6.85 Q17.4 10.55 34.35 28.3 41.9 31.6 48.25 28.0 52.7 23.5 52.3 17.7 L52.3 16.9 Q50.05 16.8 47.2 15.65 51.7 11.95 50.9 8.65 L51.7 8.2 Q51.8 0.6 52.35 -6.85 52.8 -12.45 53.5 -17.95 L53.55 -18.75 59.1 -22.7 Q59.9 -37.25 61.15 -51.85 L59.05 -51.6 Q51.35 -51.25 43.6 -51.55 L42.75 -52.35 Q40.85 -54.6 38.05 -56.25 36.95 -61.25 36.8 -66.6 36.65 -73.35 38.1 -79.4 38.8 -82.05 40.85 -84.05 L41.75 -84.5 Q47.95 -87.3 54.2 -89.05 L72.75 -88.8 74.3 -88.5 75.0 -87.75 M102.8 -55.8 L102.75 -55.75 Q101.95 -54.3 100.05 -54.15 91.75 -51.75 86.05 -55.5 85.5 -59.05 85.6 -62.65 L85.8 -72.9 86.8 -74.4 90.05 -78.0 Q83.35 -78.7 77.2 -80.25 74.6 -78.7 72.45 -80.85 L72.0 -81.5 70.9 -81.5 Q70.4 -81.6 70.0 -81.95 69.5 -82.85 69.6 -83.55 56.6 -85.7 46.6 -79.9 L45.2 -79.25 44.3 -77.0 Q42.95 -72.8 43.4 -68.15 L43.6 -64.2 43.6 -60.25 43.8 -59.75 47.05 -57.1 Q52.75 -57.0 58.4 -57.4 63.0 -57.8 65.95 -61.05 L67.8 -61.5 Q72.3 -62.6 74.6 -59.45 L74.55 -58.65 Q74.3 -57.2 72.75 -56.55 L71.5 -56.25 69.35 -55.75 Q66.95 -53.45 63.6 -52.4 70.85 -34.8 60.9 -17.3 L60.05 -16.4 58.9 -6.85 Q57.6 7.2 58.4 21.65 L58.5 24.85 Q54.6 29.1 52.3 34.1 40.8 36.9 30.0 33.05 12.1 15.0 -4.7 -3.95 -12.3 -4.9 -19.6 -2.9 -23.0 6.85 -28.25 16.1 L-28.4 16.85 -28.9 18.5 Q-32.5 21.35 -35.7 24.6 -65.85 27.35 -82.2 6.35 -93.6 3.75 -103.55 8.45 -95.75 42.4 -124.3 62.1 -125.1 64.3 -125.5 66.8 L-125.55 67.1 Q-124.0 68.8 -123.75 71.35 L-123.7 72.15 -122.75 72.95 -121.85 73.7 Q-120.9 81.45 -114.75 87.25 -114.35 87.55 -114.05 88.0 -104.0 127.9 -122.4 163.95 L-123.2 165.55 -124.05 167.5 Q-125.1 170.0 -125.5 172.75 -127.2 184.65 -120.55 194.2 L-71.6 194.35 -71.6 194.0 -75.3 190.65 Q-90.15 194.25 -96.8 186.75 L-95.75 185.3 -95.0 184.8 -93.8 184.5 Q-87.7 183.7 -82.45 184.4 L-87.7 179.95 Q-95.6 181.85 -101.5 179.3 -104.2 179.65 -105.1 177.3 L-106.15 167.5 -106.35 163.95 Q-106.6 158.4 -106.4 152.75 L-106.3 151.15 Q-95.55 140.2 -81.85 131.6 -79.65 128.6 -76.85 126.05 -66.9 105.75 -61.6 84.4 L-58.45 72.3 Q-58.3 71.9 -57.35 71.65 -48.35 82.5 -56.3 96.6 -28.5 116.7 8.4 120.15 16.6 116.1 28.0 116.0 L28.05 114.6 Q25.15 111.55 25.1 108.7 L25.05 108.6 Q23.85 104.35 28.1 103.4 L28.1 103.35 Q30.05 104.05 30.8 105.15 34.6 107.85 34.2 113.05 L34.35 113.1 Q35.35 122.4 35.5 132.1 35.55 137.05 34.0 141.65 25.7 143.75 18.85 143.75 L18.85 146.95 18.85 148.5 Q27.45 147.3 35.6 151.15 36.6 166.8 35.75 182.85 35.3 189.9 37.4 196.35 L38.05 196.75 Q59.4 197.0 80.8 196.9 85.5 194.2 87.55 190.35 78.1 192.1 72.15 187.9 L72.2 187.1 Q72.9 184.15 76.4 183.8 L76.5 183.65 Q83.5 181.25 89.05 182.45 L88.75 180.1 Q88.25 177.4 88.25 174.7 82.7 170.25 74.9 174.4 73.0 175.0 72.75 176.75 L72.45 177.6 Q64.35 186.8 52.3 187.35 47.85 175.1 44.9 162.15 43.55 156.5 45.45 150.9 51.15 148.45 57.25 148.5 56.8 146.35 55.1 144.5 L54.5 143.75 Q49.7 142.0 45.2 140.05 44.6 136.5 44.8 132.9 L44.9 130.55 Q47.4 128.5 48.25 125.8 L48.6 125.0 Q62.55 114.35 77.7 106.5 82.55 106.55 81.55 110.15 L81.1 111.0 Q72.8 115.3 65.05 120.35 68.2 124.5 70.4 129.95 L70.9 130.8 70.9 132.4 70.9 132.9 Q76.35 133.0 80.55 135.5 L81.4 134.9 82.05 134.5 Q122.75 133.65 129.35 102.4 128.8 98.3 130.35 95.35 132.85 67.25 119.85 42.3 117.7 42.25 115.7 41.3 L114.7 41.7 Q110.75 40.4 108.15 37.5 104.15 32.8 103.3 28.4 102.15 27.8 102.4 26.45 102.65 25.95 103.05 25.55 94.65 10.5 96.25 -6.85 L97.0 -12.15 93.2 -12.45 89.5 -15.6 89.5 -16.4 89.5 -17.95 88.25 -18.8 87.3 -19.55 Q85.9 -24.3 88.75 -28.0 89.2 -28.55 90.1 -28.8 93.55 -28.05 93.2 -25.1 L93.2 -24.3 94.7 -22.7 95.35 -21.95 Q95.85 -20.8 95.95 -19.55 L96.3 -17.95 127.2 -16.6 Q128.55 -16.55 129.95 -15.9 130.0 -18.9 131.1 -21.4 L127.55 -23.25 Q115.0 -23.45 102.5 -23.8 L100.6 -24.05 99.75 -24.9 Q98.0 -26.8 97.25 -29.05 L97.25 -29.15 96.9 -30.4 Q96.9 -30.85 97.05 -31.15 97.35 -31.95 98.1 -32.4 99.1 -34.4 101.25 -36.2 L102.2 -37.0 104.9 -38.15 104.95 -38.3 Q109.05 -37.2 107.8 -33.8 L107.45 -33.05 Q105.55 -31.9 104.75 -30.1 122.35 -32.5 137.45 -25.1 140.95 -23.4 142.8 -20.85 L143.0 -20.8 152.7 -21.65 152.7 -22.45 152.7 -35.95 152.7 -39.1 152.7 -39.55 152.6 -39.5 Q138.95 -36.0 129.5 -41.75 L129.25 -42.55 Q129.1 -44.15 129.25 -45.7 L129.5 -46.5 130.45 -47.2 Q139.1 -51.85 147.4 -52.05 L147.75 -52.05 Q147.55 -52.85 147.3 -52.85 L115.55 -55.45 Q113.95 -55.6 114.25 -57.1 L114.45 -57.8 115.35 -58.8 Q115.9 -59.2 116.6 -59.3 L116.25 -61.2 114.45 -59.6 Q110.05 -56.1 103.8 -55.55 L103.5 -55.9 102.8 -55.8 M75.95 -78.1 L75.95 -77.35 75.85 -75.85 75.6 -74.35 75.1 -74.05 69.8 -72.6 69.25 -72.5 Q70.9 -71.75 73.05 -71.1 L73.05 -70.35 73.05 -69.6 73.05 -68.85 73.05 -68.1 72.5 -67.55 Q69.65 -66.1 67.3 -64.35 64.25 -62.55 60.0 -62.0 56.0 -61.45 53.55 -63.6 L53.3 -65.1 Q52.35 -68.9 55.35 -71.1 L56.35 -70.25 Q57.35 -68.55 57.15 -66.6 L57.15 -65.85 58.6 -65.8 Q64.25 -65.4 67.65 -68.1 L68.15 -68.5 Q65.6 -69.0 65.15 -72.1 65.1 -72.5 65.35 -72.75 67.45 -75.45 72.0 -76.35 59.35 -75.8 60.5 -79.8 L61.15 -80.1 Q68.2 -80.5 74.75 -78.65 L75.95 -78.1 M102.5 -75.55 L101.2 -75.35 95.7 -74.8 Q91.6 -72.0 91.8 -67.65 L91.95 -60.5 97.25 -60.2 Q98.2 -61.5 100.05 -61.45 L100.05 -61.6 102.95 -61.95 104.65 -62.9 Q110.3 -66.0 115.45 -69.3 L115.45 -71.85 115.5 -74.25 115.05 -75.0 111.5 -78.25 104.3 -77.7 Q104.05 -76.2 102.5 -75.55 M81.55 -84.7 L97.25 -84.0 97.25 -84.05 Q97.05 -84.45 97.0 -84.8 L96.7 -87.15 96.3 -88.0 95.95 -88.25 Q89.0 -88.55 82.3 -87.35 82.05 -87.35 82.05 -86.15 L81.6 -85.45 80.9 -84.75 81.55 -84.7 M95.9 -70.6 Q97.25 -72.9 100.05 -73.2 L104.9 -73.0 106.55 -72.7 Q108.1 -71.8 108.2 -70.3 108.25 -68.3 107.8 -66.35 L103.95 -63.45 Q102.25 -62.4 100.05 -62.65 97.45 -62.8 96.4 -64.55 95.5 -66.15 95.7 -67.9 95.2 -69.45 95.9 -70.6 M51.05 133.95 Q54.55 137.8 59.75 141.6 L59.75 138.45 59.75 136.9 63.75 132.1 Q60.0 127.25 61.8 122.5 58.05 124.95 54.5 127.65 L51.25 133.3 51.05 133.95 M64.9 142.65 Q70.15 143.2 75.4 144.3 75.95 144.4 76.5 144.85 L77.0 146.4 77.1 147.2 77.1 149.55 Q80.8 155.0 81.4 161.4 81.65 164.8 80.3 167.6 86.05 167.45 92.9 170.2 94.9 177.3 94.6 184.85 L94.9 185.1 95.35 185.4 122.95 186.3 Q125.75 184.8 128.75 183.55 124.75 181.0 121.4 177.6 111.45 178.1 103.55 175.65 L103.1 175.2 103.15 174.4 Q103.65 172.3 106.2 171.3 L107.45 171.0 Q122.0 170.1 131.75 177.7 132.05 172.9 130.35 168.35 L129.75 167.0 Q111.95 161.5 91.05 163.3 90.5 151.4 90.2 139.5 L82.8 138.8 Q82.0 140.15 80.2 140.3 73.05 140.2 68.35 136.7 66.05 139.4 64.9 142.65 M74.05 158.2 Q73.0 154.1 70.9 150.35 68.8 148.6 63.6 147.85 63.55 150.1 62.65 152.25 62.1 153.6 60.7 154.6 54.25 155.1 51.05 156.45 L55.1 173.05 Q55.9 176.5 56.35 180.25 59.5 180.05 63.15 177.3 68.05 170.4 74.9 168.4 L74.6 167.8 Q75.2 162.75 74.05 158.2 M-6.85 19.0 Q-0.5 24.45 -4.25 32.9 L-5.05 33.95 Q-9.05 35.45 -10.45 32.15 -12.75 23.45 -7.0 19.2 L-6.85 19.0 M-37.95 44.05 Q-39.9 47.3 -43.75 45.85 -58.0 40.9 -50.3 34.75 L-50.25 34.5 Q-43.4 38.2 -38.25 43.35 L-37.95 44.05 M-26.75 36.0 L-27.1 36.9 Q-31.4 41.1 -36.15 37.8 -37.4 35.65 -35.5 34.15 L-34.3 33.35 Q-34.5 28.8 -30.1 27.55 L-30.0 27.35 Q-24.4 30.1 -26.75 36.0 M-16.95 26.15 Q-10.1 31.0 -16.1 38.3 L-16.95 39.0 Q-20.8 39.9 -22.05 36.9 -22.5 30.75 -18.15 26.7 -17.7 26.3 -16.95 26.15 M-64.4 45.15 Q-64.25 45.35 -64.4 45.85 -65.4 47.45 -67.6 47.6 L-69.05 47.65 Q-85.4 41.85 -79.25 34.75 L-79.2 34.5 Q-69.75 37.9 -64.4 45.15 M-99.45 45.55 L-97.65 44.95 Q-96.35 38.05 -93.15 32.6 -92.95 32.25 -92.2 32.15 -85.25 39.0 -90.95 48.7 L-91.85 49.75 Q-97.8 53.4 -101.6 48.85 -102.2 46.5 -99.45 45.55 M-124.95 90.6 Q-125.95 98.8 -128.3 106.55 -127.15 107.85 -127.6 110.0 L-127.65 110.9 Q-127.15 112.5 -123.75 113.05 -123.2 113.1 -122.6 113.55 -121.05 118.75 -122.8 124.2 -123.15 125.2 -124.05 126.1 -125.6 127.75 -122.4 128.5 -121.75 128.6 -121.15 129.1 -120.25 133.4 -120.35 137.9 -111.3 110.35 -124.55 82.75 -124.5 86.55 -124.95 90.6 M-136.1 119.7 L-135.85 134.75 -135.45 136.1 Q-132.55 138.4 -130.15 140.85 -129.25 141.6 -128.85 142.5 -127.5 139.0 -127.95 135.05 -128.05 134.25 -128.4 133.55 -133.95 130.6 -132.15 123.95 L-132.0 123.1 Q-131.95 121.25 -129.65 120.15 L-129.1 119.55 Q-130.65 118.2 -133.2 117.1 L-136.1 119.7 M-73.45 182.65 L-74.1 181.55 -74.3 167.5 -74.3 163.95 Q-74.05 146.95 -72.35 130.3 -84.85 142.25 -99.8 152.2 -100.1 158.1 -100.05 163.95 L-100.0 167.5 -99.75 174.25 -85.55 174.7 Q-79.4 178.55 -73.95 183.1 L-70.2 186.45 Q-69.9 185.8 -69.05 185.4 -68.25 184.95 -67.3 184.7 -61.85 188.2 -56.45 191.85 -40.05 194.35 -27.25 190.55 -31.25 190.4 -34.95 189.0 -37.1 188.2 -38.75 186.75 -46.15 188.6 -50.9 184.9 -51.45 184.5 -51.55 183.75 L-51.35 183.05 Q-50.45 181.55 -48.55 181.6 L-48.55 181.5 Q-33.85 181.2 -22.0 187.75 -22.05 185.25 -23.25 183.05 L-23.95 181.55 Q-40.55 179.0 -57.65 178.1 L-57.65 167.5 -57.6 163.95 Q-57.15 140.15 -54.4 117.05 L-54.3 114.7 Q-51.5 110.7 -47.5 108.75 L-47.45 108.6 Q-53.3 104.9 -58.65 100.45 -66.45 113.0 -69.9 126.4 -65.7 138.45 -66.1 153.25 -66.25 158.7 -66.7 163.95 L-67.05 167.5 Q-68.0 175.65 -69.75 183.4 -72.25 183.95 -73.45 182.65 M-47.45 108.6 L-47.4 108.65 -47.45 108.6" fill="#000000" fill-rule="evenodd" stroke="none"/>
    <path d="M102.5 -75.55 Q104.05 -76.2 104.3 -77.7 L111.5 -78.25 115.05 -75.0 115.5 -74.25 115.45 -71.85 115.45 -69.3 Q110.3 -66.0 104.65 -62.9 L102.95 -61.95 100.05 -61.6 100.05 -61.45 Q98.2 -61.5 97.25 -60.2 L91.95 -60.5 91.8 -67.65 Q91.6 -72.0 95.7 -74.8 L101.2 -75.35 102.5 -75.55 M95.9 -70.6 Q95.2 -69.45 95.7 -67.9 95.5 -66.15 96.4 -64.55 97.45 -62.8 100.05 -62.65 102.25 -62.4 103.95 -63.45 L107.8 -66.35 Q108.25 -68.3 108.2 -70.3 108.1 -71.8 106.55 -72.7 L104.9 -73.0 100.05 -73.2 Q97.25 -72.9 95.9 -70.6" fill="#ffffff" fill-rule="evenodd" stroke="none"/>
    <path d="M-135.35 -25.6 L-134.55 -24.1 -133.95 -25.25 -133.6 -25.35 -134.5 -24.0 Q-134.8 -23.6 -134.55 -24.1 L-135.3 -25.4 -135.35 -25.6 M-132.95 -25.6 L-132.8 -25.0 Q-131.5 -21.05 -132.85 -24.9 L-132.95 -25.35 -132.95 -25.6" fill="#663d25" fill-rule="evenodd" stroke="none"/>
    <path d="M152.7 -39.1 L152.7 -35.95 152.7 -22.45 152.7 -21.65 143.0 -20.8 142.8 -20.85 Q140.95 -23.4 137.45 -25.1 122.35 -32.5 104.75 -30.1 105.55 -31.9 107.45 -33.05 L107.8 -33.8 Q109.05 -37.2 104.95 -38.3 L104.9 -38.15 102.2 -37.0 101.25 -36.2 Q99.1 -34.4 98.1 -32.4 97.35 -31.95 97.05 -31.15 96.9 -30.85 96.9 -30.4 L97.25 -29.15 97.25 -29.05 Q98.0 -26.8 99.75 -24.9 L100.6 -24.05 102.5 -23.8 Q115.0 -23.45 127.55 -23.25 L131.1 -21.4 Q130.0 -18.9 129.95 -15.9 128.55 -16.55 127.2 -16.6 L96.3 -17.95 95.95 -19.55 Q95.85 -20.8 95.35 -21.95 L94.7 -22.7 93.2 -24.3 93.2 -25.1 Q93.55 -28.05 90.1 -28.8 89.2 -28.55 88.75 -28.0 85.9 -24.3 87.3 -19.55 L88.25 -18.8 89.5 -17.95 89.5 -16.4 89.5 -15.6 93.2 -12.45 97.0 -12.15 96.25 -6.85 Q94.65 10.5 103.05 25.55 102.65 25.95 102.4 26.45 102.15 27.8 103.3 28.4 104.15 32.8 108.15 37.5 110.75 40.4 114.7 41.7 L115.7 41.3 Q117.7 42.25 119.85 42.3 132.85 67.25 130.35 95.35 128.8 98.3 129.35 102.4 122.75 133.65 82.05 134.5 L81.4 134.9 80.55 135.5 Q76.35 133.0 70.9 132.9 L70.9 132.4 70.9 130.8 70.4 129.95 Q68.2 124.5 65.05 120.35 72.8 115.3 81.1 111.0 L81.55 110.15 Q82.55 106.55 77.7 106.5 62.55 114.35 48.6 125.0 L48.25 125.8 Q47.4 128.5 44.9 130.55 L44.8 132.9 Q44.6 136.5 45.2 140.05 49.7 142.0 54.5 143.75 L55.1 144.5 Q56.8 146.35 57.25 148.5 51.15 148.45 45.45 150.9 43.55 156.5 44.9 162.15 47.85 175.1 52.3 187.35 64.35 186.8 72.45 177.6 L72.75 176.75 Q73.0 175.0 74.9 174.4 82.7 170.25 88.25 174.7 88.25 177.4 88.75 180.1 L89.05 182.45 Q83.5 181.25 76.5 183.65 L76.4 183.8 Q72.9 184.15 72.2 187.1 L72.15 187.9 Q78.1 192.1 87.55 190.35 85.5 194.2 80.8 196.9 59.4 197.0 38.05 196.75 L37.4 196.35 Q35.3 189.9 35.75 182.85 36.6 166.8 35.6 151.15 27.45 147.3 18.85 148.5 L18.85 146.95 18.85 143.75 Q25.7 143.75 34.0 141.65 35.55 137.05 35.5 132.1 35.35 122.4 34.35 113.1 L34.2 113.05 Q34.6 107.85 30.8 105.15 30.05 104.05 28.1 103.35 L28.1 103.4 Q23.85 104.35 25.05 108.6 L25.1 108.7 Q25.15 111.55 28.05 114.6 L28.0 116.0 Q16.6 116.1 8.4 120.15 -28.5 116.7 -56.3 96.6 -48.35 82.5 -57.35 71.65 -58.3 71.9 -58.45 72.3 L-61.6 84.4 Q-66.9 105.75 -76.85 126.05 -79.65 128.6 -81.85 131.6 -95.55 140.2 -106.3 151.15 L-106.4 152.75 Q-106.6 158.4 -106.35 163.95 L-106.15 167.5 -105.1 177.3 Q-104.2 179.65 -101.5 179.3 -95.6 181.85 -87.7 179.95 L-82.45 184.4 Q-87.7 183.7 -93.8 184.5 L-95.0 184.8 -95.75 185.3 -96.8 186.75 Q-90.15 194.25 -75.3 190.65 L-71.6 194.0 -71.6 194.35 -120.55 194.2 Q-127.2 184.65 -125.5 172.75 -125.1 170.0 -124.05 167.5 L-123.2 165.55 -122.4 163.95 Q-104.0 127.9 -114.05 88.0 -114.35 87.55 -114.75 87.25 -120.9 81.45 -121.85 73.7 L-122.75 72.95 -123.7 72.15 -123.75 71.35 Q-124.0 68.8 -125.55 67.1 L-125.5 66.8 Q-125.1 64.3 -124.3 62.1 -95.75 42.4 -103.55 8.45 -93.6 3.75 -82.2 6.35 -65.85 27.35 -35.7 24.6 -32.5 21.35 -28.9 18.5 L-28.4 16.85 -28.25 16.1 Q-23.0 6.85 -19.6 -2.9 -12.3 -4.9 -4.7 -3.95 12.1 15.0 30.0 33.05 40.8 36.9 52.3 34.1 54.6 29.1 58.5 24.85 L58.4 21.65 Q57.6 7.2 58.9 -6.85 L60.05 -16.4 60.9 -17.3 Q70.85 -34.8 63.6 -52.4 66.95 -53.45 69.35 -55.75 L71.5 -56.25 72.75 -56.55 Q74.3 -57.2 74.55 -58.65 L74.6 -59.45 Q72.3 -62.6 67.8 -61.5 L65.95 -61.05 Q63.0 -57.8 58.4 -57.4 52.75 -57.0 47.05 -57.1 L43.8 -59.75 43.6 -60.25 43.6 -64.2 43.4 -68.15 Q42.95 -72.8 44.3 -77.0 L45.2 -79.25 46.6 -79.9 Q56.6 -85.7 69.6 -83.55 69.5 -82.85 70.0 -81.95 70.4 -81.6 70.9 -81.5 L72.0 -81.5 72.45 -80.85 Q74.6 -78.7 77.2 -80.25 83.35 -78.7 90.05 -78.0 L86.8 -74.4 85.8 -72.9 85.6 -62.65 Q85.5 -59.05 86.05 -55.5 91.75 -51.75 100.05 -54.15 101.95 -54.3 102.75 -55.75 L102.8 -55.8 103.8 -55.55 Q110.05 -56.1 114.45 -59.6 L115.35 -58.8 114.45 -57.8 114.25 -57.1 Q113.95 -55.6 115.55 -55.45 L147.3 -52.85 147.4 -52.05 Q139.1 -51.85 130.45 -47.2 L129.5 -46.5 129.25 -45.7 Q129.1 -44.15 129.25 -42.55 L129.5 -41.75 Q138.95 -36.0 152.6 -39.5 L152.7 -39.1 M75.95 -78.1 L74.75 -78.65 Q68.2 -80.5 61.15 -80.1 L60.5 -79.8 Q59.35 -75.8 72.0 -76.35 67.45 -75.45 65.35 -72.75 65.1 -72.5 65.15 -72.1 65.6 -69.0 68.15 -68.5 L67.65 -68.1 Q64.25 -65.4 58.6 -65.8 L57.15 -65.85 57.15 -66.6 Q57.35 -68.55 56.35 -70.25 L55.35 -71.1 Q52.35 -68.9 53.3 -65.1 L53.55 -63.6 Q56.0 -61.45 60.0 -62.0 64.25 -62.55 67.3 -64.35 69.65 -66.1 72.5 -67.55 L73.05 -68.1 73.05 -68.85 73.05 -69.6 73.05 -70.35 73.05 -71.1 Q70.9 -71.75 69.25 -72.5 L69.8 -72.6 75.1 -74.05 75.6 -74.35 75.85 -75.85 75.95 -77.35 75.95 -78.1 M-99.45 45.55 Q-102.2 46.5 -101.6 48.85 -97.8 53.4 -91.85 49.75 L-90.95 48.7 Q-85.25 39.0 -92.2 32.15 -92.95 32.25 -93.15 32.6 -96.35 38.05 -97.65 44.95 L-99.45 45.55 M-64.4 45.15 Q-69.75 37.9 -79.2 34.5 L-79.25 34.75 Q-85.4 41.85 -69.05 47.65 L-67.6 47.6 Q-65.4 47.45 -64.4 45.85 -64.25 45.35 -64.4 45.15 M-16.95 26.15 Q-17.7 26.3 -18.15 26.7 -22.5 30.75 -22.05 36.9 -20.8 39.9 -16.95 39.0 L-16.1 38.3 Q-10.1 31.0 -16.95 26.15 M-26.75 36.0 Q-24.4 30.1 -30.0 27.35 L-30.1 27.55 Q-34.5 28.8 -34.3 33.35 L-35.5 34.15 Q-37.4 35.65 -36.15 37.8 -31.4 41.1 -27.1 36.9 L-26.75 36.0 M-37.95 44.05 L-38.25 43.35 Q-43.4 38.2 -50.25 34.5 L-50.3 34.75 Q-58.0 40.9 -43.75 45.85 -39.9 47.3 -37.95 44.05 M-6.85 19.0 L-7.0 19.2 Q-12.75 23.45 -10.45 32.15 -9.05 35.45 -5.05 33.95 L-4.25 32.9 Q-0.5 24.45 -6.85 19.0" fill="url(#gradient0)" fill-rule="evenodd" stroke="none"/>
    <path d="M81.6 -85.45 L82.05 -86.15 Q82.05 -87.35 82.3 -87.35 89.0 -88.55 95.95 -88.25 L96.3 -88.0 96.7 -87.15 97.0 -84.8 Q97.05 -84.45 97.25 -84.05 L97.25 -84.0 81.55 -84.7 81.6 -85.45" fill="url(#gradient1)" fill-rule="evenodd" stroke="none"/>
    <path d="M64.9 142.65 Q66.05 139.4 68.35 136.7 73.05 140.2 80.2 140.3 82.0 140.15 82.8 138.8 L90.2 139.5 Q90.5 151.4 91.05 163.3 111.95 161.5 129.75 167.0 L130.35 168.35 Q132.05 172.9 131.75 177.7 122.0 170.1 107.45 171.0 L106.2 171.3 Q103.65 172.3 103.15 174.4 L103.1 175.2 103.55 175.65 Q111.45 178.1 121.4 177.6 124.75 181.0 128.75 183.55 125.75 184.8 122.95 186.3 L95.35 185.4 94.9 185.1 94.6 184.85 Q94.9 177.3 92.9 170.2 86.05 167.45 80.3 167.6 81.65 164.8 81.4 161.4 80.8 155.0 77.1 149.55 L77.1 147.2 77.0 146.4 76.5 144.85 Q75.95 144.4 75.4 144.3 70.15 143.2 64.9 142.65" fill="url(#gradient2)" fill-rule="evenodd" stroke="none"/>
    <path d="M-73.95 183.1 L-73.45 182.65 Q-72.25 183.95 -69.75 183.4 -68.0 175.65 -67.05 167.5 L-66.7 163.95 Q-66.25 158.7 -66.1 153.25 -65.7 138.45 -69.9 126.4 -66.45 113.0 -58.65 100.45 -53.3 104.9 -47.45 108.6 L-47.5 108.75 Q-51.5 110.7 -54.3 114.7 L-54.4 117.05 Q-57.15 140.15 -57.6 163.95 L-57.65 167.5 -57.65 178.1 Q-40.55 179.0 -23.95 181.55 L-23.25 183.05 Q-22.05 185.25 -22.0 187.75 -33.85 181.2 -48.55 181.5 L-48.55 181.6 Q-50.45 181.55 -51.35 183.05 L-51.55 183.75 Q-51.45 184.5 -50.9 184.9 -46.15 188.6 -38.75 186.75 -37.1 188.2 -34.95 189.0 -31.25 190.4 -27.25 190.55 -40.05 194.35 -56.45 191.85 -61.85 188.2 -67.3 184.7 -68.25 184.95 -69.05 185.4 -69.9 185.8 -70.2 186.45 L-73.95 183.1" fill="url(#gradient3)" fill-rule="evenodd" stroke="none"/>
  </g>
  <defs>
    <radialGradient cx="0" cy="0" gradientTransform="matrix(0.3441, 0.0, 0.0, 0.2838, 111.75, 62.55)" gradientUnits="userSpaceOnUse" id="gradient0" r="819.2" spreadMethod="pad">
      <stop offset="0.0" stop-color="#ffcc66"/>
      <stop offset="1.0" stop-color="#acacac"/>
    </radialGradient>
    <radialGradient cx="0" cy="0" gradientTransform="matrix(0.0146, 0.0, 0.0, 0.012, 92.95, -87.8)" gradientUnits="userSpaceOnUse" id="gradient1" r="819.2" spreadMethod="pad">
      <stop offset="0.0" stop-color="#ffcc66"/>
      <stop offset="1.0" stop-color="#acacac"/>
    </radialGradient>
    <radialGradient cx="0" cy="0" gradientTransform="matrix(0.0752, 0.0, 0.0, 0.062, 82.8, 149.65)" gradientUnits="userSpaceOnUse" id="gradient2" r="819.2" spreadMethod="pad">
      <stop offset="0.0" stop-color="#ffcc66"/>
      <stop offset="1.0" stop-color="#acacac"/>
    </radialGradient>
    <radialGradient cx="0" cy="0" gradientTransform="matrix(0.0952, 0.0, 0.0, 0.0785, -57.5, 131.75)" gradientUnits="userSpaceOnUse" id="gradient3" r="819.2" spreadMethod="pad">
      <stop offset="0.0" stop-color="#ffcc66"/>
      <stop offset="1.0" stop-color="#acacac"/>
    </radialGradient>
  </defs>
</svg>
