<?xml version="1.0" encoding="UTF-8" standalone="no"?>
<svg xmlns:ffdec="https://www.free-decompiler.com/flash" xmlns:xlink="http://www.w3.org/1999/xlink" ffdec:objectType="shape" height="281.5px" width="204.5px" xmlns="http://www.w3.org/2000/svg">
  <g transform="matrix(1.0, 0.0, 0.0, 1.0, 16.25, -48.3)">
    <path d="M101.2 84.5 Q102.0 87.9 101.5 91.9 L101.65 92.1 101.65 92.15 101.7 92.05 Q105.2 86.7 111.8 84.2 L116.85 82.2 123.85 82.2 Q127.45 84.65 130.35 88.25 132.45 90.75 132.55 94.15 L133.1 94.7 Q151.2 85.3 159.55 66.8 161.15 63.2 162.4 59.3 L162.5 59.0 Q162.85 57.85 163.8 57.75 L164.85 58.25 Q165.3 53.55 167.1 49.4 L168.9 48.85 170.15 48.3 Q170.6 50.7 170.25 53.5 L170.25 54.25 Q172.4 54.15 174.5 52.5 L175.3 50.3 175.55 49.85 Q177.45 50.9 180.25 50.7 180.2 53.5 177.5 55.0 180.9 54.5 185.25 55.75 L185.0 60.25 184.75 61.0 Q185.05 61.5 188.25 62.75 L188.15 65.75 188.0 66.5 Q186.15 66.85 185.45 67.9 181.85 69.75 180.5 73.05 L179.25 72.75 175.4 77.2 176.0 79.0 176.15 79.8 176.05 80.4 Q158.45 99.85 135.75 112.05 137.35 129.0 139.25 146.05 139.7 150.2 139.1 154.15 L139.3 154.4 139.35 154.7 Q142.35 156.7 141.4 161.05 L141.3 161.8 145.05 167.15 Q152.3 195.35 153.45 225.15 153.5 226.7 153.05 228.2 141.1 235.0 127.6 231.5 127.15 229.6 127.3 227.65 L127.35 226.15 Q120.75 208.6 103.1 201.75 96.75 199.3 92.35 200.45 91.85 231.7 81.95 261.3 79.55 268.45 77.85 276.15 75.8 285.15 69.1 291.25 L62.7 291.35 62.65 295.85 62.45 305.4 Q62.35 306.35 63.25 307.1 L85.8 310.1 93.0 310.9 Q93.9 329.25 67.7 329.8 L64.65 329.8 62.25 329.7 Q44.0 328.9 27.75 324.1 27.55 317.8 28.6 311.7 30.0 303.65 33.5 295.85 34.5 293.65 35.65 291.55 L27.85 291.55 Q25.8 291.55 25.35 289.75 29.15 280.15 30.25 269.85 L30.35 268.35 Q42.35 229.25 42.7 187.5 42.75 177.55 44.1 168.4 45.1 167.6 46.0 167.7 L50.15 147.65 Q49.65 147.15 49.35 146.3 L49.35 143.3 Q39.95 150.05 30.45 158.05 L22.15 165.4 Q12.7 174.2 1.65 176.25 L1.75 175.5 1.55 175.55 0.15 176.7 Q-0.25 176.45 -0.75 176.3 L-0.25 175.5 -1.7 176.05 -2.95 176.25 Q-3.55 176.4 -4.05 176.7 -8.05 177.15 -11.25 178.85 -12.6 179.1 -13.8 179.75 -14.35 179.3 -15.15 179.75 L-15.05 180.1 -14.9 180.5 -15.15 180.7 -15.2 180.2 -16.25 179.0 Q-16.1 177.05 -14.85 175.4 -13.75 174.0 -12.25 173.0 L-13.0 171.4 -13.25 169.25 Q-9.5 163.0 -2.25 160.25 L-1.0 159.75 0.1 160.15 0.35 160.25 0.35 159.5 Q24.45 137.5 47.5 113.7 47.95 112.05 49.35 110.8 L49.35 106.6 Q56.65 96.55 68.85 93.4 L69.1 93.5 69.2 93.55 69.2 93.35 Q68.2 86.9 70.35 82.55 L70.4 82.95 Q70.9 85.0 72.35 86.75 L74.6 87.8 Q74.8 91.15 73.6 95.05 L73.4 95.5 Q75.05 96.5 75.85 99.5 88.4 101.85 96.45 94.25 96.0 91.2 96.15 88.4 L98.1 87.8 99.05 86.95 99.85 86.3 Q100.95 85.45 101.2 84.5 M166.9 60.3 Q169.05 63.45 170.85 66.8 172.85 70.6 174.45 74.55 176.9 68.45 184.0 64.75 L177.3 63.7 176.75 63.25 Q180.2 60.95 182.75 58.0 177.4 59.5 173.75 56.5 170.15 57.6 167.25 59.75 L166.9 60.3 M164.9 68.35 L162.4 73.05 Q159.05 78.85 154.8 83.65 L155.15 84.05 155.65 84.8 Q156.4 88.15 156.5 91.6 163.7 86.55 169.65 79.8 L171.3 77.85 165.7 68.75 165.05 67.95 164.9 68.35 M100.4 82.0 Q98.85 80.65 97.35 81.7 97.7 80.6 98.2 79.55 98.35 79.2 98.85 79.15 99.8 80.5 100.4 82.0 M122.1 87.7 L116.1 88.55 Q115.9 89.5 115.05 89.9 L114.5 89.85 111.4 91.15 Q109.45 91.9 107.6 92.85 L107.45 93.25 103.85 95.35 Q102.55 95.2 101.95 94.55 101.6 96.0 100.2 97.8 99.95 98.05 99.85 98.45 89.3 109.75 73.35 105.1 70.1 102.65 69.6 99.1 60.15 100.85 54.35 108.4 54.35 121.8 54.9 135.25 L55.8 135.4 Q55.7 137.25 56.2 138.55 L55.05 139.35 Q55.05 143.4 53.6 146.65 55.7 155.25 52.1 166.1 L51.85 166.9 52.1 166.9 81.85 167.15 Q107.55 155.25 134.35 154.1 132.0 131.65 130.4 108.95 L129.3 98.2 128.75 97.55 Q127.05 96.3 127.3 94.4 L127.35 93.65 127.15 93.0 Q125.2 90.45 122.85 88.3 L122.35 87.8 Q122.2 87.6 122.1 87.7 M151.95 95.3 Q149.75 89.75 150.1 85.7 148.75 87.55 148.45 89.75 142.2 94.85 134.45 98.3 L135.35 108.15 Q143.5 103.4 149.9 96.5 150.85 97.7 152.7 97.25 L152.85 96.75 151.95 95.3 M42.3 142.4 L49.35 137.75 49.35 118.15 Q48.15 121.8 43.05 125.95 L36.9 131.25 Q35.95 130.5 34.85 130.0 34.35 130.25 33.8 130.9 33.05 131.8 32.8 132.7 37.6 137.9 39.35 145.0 L39.85 145.05 Q41.65 145.15 42.1 143.5 L42.3 142.4 M30.85 137.25 L25.9 142.75 Q16.75 153.65 5.35 161.3 L5.35 167.4 5.35 170.45 Q19.55 158.35 34.9 147.5 30.55 141.95 30.85 137.25 M0.3 161.85 Q-5.9 163.45 -9.25 169.1 L-9.0 169.25 Q-6.3 167.8 -5.85 170.5 L-5.75 171.25 Q-8.85 173.35 -11.8 175.75 L-12.75 176.5 -12.15 176.8 -12.35 177.05 -12.5 177.25 Q-9.35 175.75 -5.75 175.0 L-5.05 174.2 Q-4.0 173.05 -3.0 172.75 -1.1 173.2 0.7 173.95 -0.25 169.65 0.1 164.8 L0.3 161.85 M136.85 157.4 L136.85 157.35 136.55 157.35 Q108.85 160.85 83.35 172.2 L48.0 172.55 Q49.3 219.7 37.5 265.0 34.8 275.35 32.35 285.65 L32.2 286.0 32.35 286.0 Q50.2 285.9 68.1 285.4 78.45 250.4 85.9 214.9 87.35 207.95 87.2 200.7 87.15 197.95 87.6 195.35 121.1 194.3 132.3 226.4 140.35 228.1 148.3 224.35 147.35 197.7 140.55 172.5 140.15 171.0 140.3 169.45 L136.3 164.1 Q135.85 160.45 136.85 157.4 M41.9 290.8 L41.8 291.5 41.65 292.35 41.55 292.8 40.45 295.85 39.5 297.75 39.5 298.25 39.75 299.0 Q44.45 303.55 50.0 307.25 L57.2 308.5 57.05 295.85 56.95 292.8 56.9 291.85 56.85 291.4 56.85 290.8 56.85 290.7 Q56.8 290.2 57.0 289.8 L41.95 289.8 41.9 290.8 M71.4 313.2 L72.25 313.75 69.75 317.1 Q69.25 317.85 69.25 319.0 69.55 320.6 68.05 320.45 L66.75 319.75 66.95 315.8 67.0 315.25 Q67.25 313.2 69.0 312.75 L70.15 312.9 69.05 312.65 65.4 311.7 59.7 309.8 Q56.0 313.15 49.25 310.0 42.0 306.0 38.15 300.0 34.85 305.7 33.7 311.7 32.7 316.65 33.25 321.85 53.5 326.9 75.65 326.2 86.05 322.2 88.05 314.85 L73.6 313.6 71.4 313.2 70.95 313.1 71.4 313.2 M66.5 312.0 Q66.85 313.8 66.55 315.75 66.3 317.7 65.45 319.85 L65.0 320.25 Q60.9 316.65 66.1 312.1 L66.5 312.0 M73.5 314.0 Q74.75 316.6 74.15 320.0 L74.0 320.75 Q69.5 318.8 73.15 314.1 L73.5 314.0 M-1.45 175.45 L-1.55 175.5 -1.6 175.55 -1.45 175.45" fill="#000000" fill-rule="evenodd" stroke="none"/>
    <path d="M101.2 84.5 Q100.95 85.45 99.85 86.3 L99.05 86.95 98.1 87.8 96.15 88.4 Q96.0 91.2 96.45 94.25 88.4 101.85 75.85 99.5 75.05 96.5 73.4 95.5 L73.6 95.05 Q74.8 91.15 74.6 87.8 L72.35 86.75 Q70.9 85.0 70.4 82.95 L70.35 82.55 70.3 82.2 Q70.25 79.4 72.85 79.15 75.15 80.25 76.75 80.6 86.35 82.7 96.35 82.7 L97.35 81.7 Q98.85 80.65 100.4 82.0 L100.85 82.45 Q101.45 83.5 101.2 84.5 M-13.8 179.75 Q-12.6 179.1 -11.25 178.85 -8.05 177.15 -4.05 176.7 -3.55 176.4 -2.95 176.25 L-2.8 176.55 Q-6.2 178.1 -9.0 180.6 L-13.25 180.5 -13.8 179.75 M-0.75 176.3 Q-0.25 176.45 0.15 176.7 -2.35 178.85 -4.5 181.6 L-6.4 181.75 -6.4 181.65 -6.85 181.1 Q-2.6 178.95 -0.75 176.3 M165.7 68.75 L171.3 77.85 169.65 79.8 Q163.7 86.55 156.5 91.6 156.4 88.15 155.65 84.8 L155.15 84.05 154.8 83.65 Q159.05 78.85 162.4 73.05 L164.9 68.35 165.7 68.75 M166.9 60.3 L167.25 59.75 Q170.15 57.6 173.75 56.5 177.4 59.5 182.75 58.0 180.2 60.95 176.75 63.25 L177.3 63.7 184.0 64.75 Q176.9 68.45 174.45 74.55 172.85 70.6 170.85 66.8 169.05 63.45 166.9 60.3 M0.3 161.85 L0.1 164.8 Q-0.25 169.65 0.7 173.95 -1.1 173.2 -3.0 172.75 -4.0 173.05 -5.05 174.2 L-5.75 175.0 Q-9.35 175.75 -12.5 177.25 L-12.35 177.05 -12.15 176.8 -12.75 176.5 -11.8 175.75 Q-8.85 173.35 -5.75 171.25 L-5.85 170.5 Q-6.3 167.8 -9.0 169.25 L-9.25 169.1 Q-5.9 163.45 0.3 161.85 M30.85 137.25 Q30.55 141.95 34.9 147.5 19.55 158.35 5.35 170.45 L5.35 167.4 5.35 161.3 Q16.75 153.65 25.9 142.75 L30.85 137.25 M41.9 290.8 L41.95 289.8 57.0 289.8 Q56.8 290.2 56.85 290.7 L56.85 290.8 56.85 291.4 56.9 291.85 56.95 292.8 57.05 295.85 57.2 308.5 50.0 307.25 Q44.45 303.55 39.75 299.0 L39.5 298.25 39.5 297.75 40.45 295.85 41.55 292.8 41.65 292.35 41.8 291.5 41.9 290.8" fill="#663d25" fill-rule="evenodd" stroke="none"/>
    <path d="M52.1 166.1 Q55.7 155.25 53.6 146.65 55.05 143.4 55.05 139.35 L56.2 138.55 Q55.7 137.25 55.8 135.4 L54.9 135.25 Q54.35 121.8 54.35 108.4 60.15 100.85 69.6 99.1 70.1 102.65 73.35 105.1 89.3 109.75 99.85 98.45 99.95 98.05 100.2 97.8 101.6 96.0 101.95 94.55 102.55 95.2 103.85 95.35 L107.45 93.25 107.6 92.85 Q109.45 91.9 111.4 91.15 L114.5 89.85 115.05 89.9 Q115.9 89.5 116.1 88.55 L122.1 87.7 122.85 88.3 Q125.2 90.45 127.15 93.0 L127.35 93.65 127.3 94.4 Q127.05 96.3 128.75 97.55 L129.3 98.2 130.4 108.95 Q132.0 131.65 134.35 154.1 107.55 155.25 81.85 167.15 L52.1 166.9 52.1 166.1 M42.3 142.4 L42.1 143.5 Q41.65 145.15 39.85 145.05 L39.35 145.0 Q37.6 137.9 32.8 132.7 33.05 131.8 33.8 130.9 34.35 130.25 34.85 130.0 35.95 130.5 36.9 131.25 L43.05 125.95 Q48.15 121.8 49.35 118.15 L49.35 137.75 42.3 142.4 M151.95 95.3 L152.85 96.75 152.7 97.25 Q150.85 97.7 149.9 96.5 143.5 103.4 135.35 108.15 L134.45 98.3 Q142.2 94.85 148.45 89.75 148.75 87.55 150.1 85.7 149.75 89.75 151.95 95.3" fill="#cc3333" fill-rule="evenodd" stroke="none"/>
    <path d="M136.55 157.35 L136.85 157.4 Q135.85 160.45 136.3 164.1 L140.3 169.45 Q140.15 171.0 140.55 172.5 147.35 197.7 148.3 224.35 140.35 228.1 132.3 226.4 121.1 194.3 87.6 195.35 87.15 197.95 87.2 200.7 87.35 207.95 85.9 214.9 78.45 250.4 68.1 285.4 50.2 285.9 32.35 286.0 L32.35 285.65 Q34.8 275.35 37.5 265.0 49.3 219.7 48.0 172.55 L83.35 172.2 Q108.85 160.85 136.55 157.35" fill="#0000cc" fill-rule="evenodd" stroke="none"/>
    <path d="M-14.9 180.5 L-15.05 180.1 -15.15 179.75 Q-14.35 179.3 -13.8 179.75 L-13.25 180.5 -9.0 180.6 Q-6.2 178.1 -2.8 176.55 L-1.7 176.05 -0.25 175.5 -0.75 176.3 Q-2.6 178.95 -6.85 181.1 L-6.4 181.65 -6.4 181.75 -4.5 181.6 Q-2.35 178.85 0.15 176.7 L1.55 175.55 1.75 175.5 1.65 176.25 Q1.05 178.6 -1.8 180.95 L-2.0 181.25 Q-3.25 181.8 -3.65 183.0 -7.55 184.65 -7.65 181.85 L-7.5 181.4 -7.75 181.5 -8.5 181.85 -13.9 182.0 -14.9 180.5" fill="#060302" fill-rule="evenodd" stroke="none"/>
    <path d="M69.0 312.75 L69.05 312.65 70.15 312.9 69.0 312.75 M71.4 313.2 L70.95 313.1 71.4 313.2" fill="#ffffff" fill-rule="evenodd" stroke="none"/>
    <path d="M69.0 312.75 Q67.25 313.2 67.0 315.25 L66.95 315.8 66.75 319.75 68.05 320.45 Q69.55 320.6 69.25 319.0 69.25 317.85 69.75 317.1 L72.25 313.75 71.4 313.2 73.6 313.6 88.05 314.85 Q86.05 322.2 75.65 326.2 53.5 326.9 33.25 321.85 32.7 316.65 33.7 311.7 34.85 305.7 38.15 300.0 42.0 306.0 49.25 310.0 56.0 313.15 59.7 309.8 L65.4 311.7 69.05 312.65 69.0 312.75 M73.5 314.0 L73.15 314.1 Q69.5 318.8 74.0 320.75 L74.15 320.0 Q74.75 316.6 73.5 314.0 M66.5 312.0 L66.1 312.1 Q60.9 316.65 65.0 320.25 L65.45 319.85 Q66.3 317.7 66.55 315.75 66.85 313.8 66.5 312.0" fill="#000033" fill-rule="evenodd" stroke="none"/>
  </g>
</svg>
