<?xml version="1.0" encoding="UTF-8" standalone="no"?>
<svg xmlns:ffdec="https://www.free-decompiler.com/flash" xmlns:xlink="http://www.w3.org/1999/xlink" ffdec:objectType="shape" height="298.8px" width="301.4px" xmlns="http://www.w3.org/2000/svg">
  <g transform="matrix(1.0, 0.0, 0.0, 1.0, 142.9, 98.0)">
    <path d="M113.4 -52.15 L113.35 -52.15 Q112.25 -51.2 110.95 -51.35 L110.3 -51.45 Q101.95 -51.75 98.45 -56.95 99.4 -60.45 100.95 -63.8 L105.35 -73.25 106.9 -74.35 Q109.1 -75.45 111.25 -76.7 105.6 -79.35 100.8 -82.7 97.8 -82.05 96.85 -84.75 L96.7 -85.5 95.7 -85.85 95.1 -86.5 Q95.0 -87.45 95.4 -88.1 84.8 -94.1 73.55 -91.75 L72.05 -91.6 70.3 -89.75 Q67.35 -86.25 65.8 -81.8 L64.45 -78.05 62.75 -74.35 Q62.6 -74.05 62.75 -73.85 63.85 -72.2 64.5 -70.4 69.5 -68.55 74.7 -67.2 78.9 -66.15 82.9 -68.3 L84.7 -68.15 Q89.15 -67.8 89.9 -64.2 L89.55 -63.45 Q88.7 -62.15 87.05 -62.05 L85.85 -62.15 83.75 -62.35 Q80.6 -60.9 77.2 -60.95 76.45 -43.25 61.9 -30.4 L60.35 -29.15 Q59.9 -28.75 59.2 -28.55 L54.25 -20.0 52.4 -16.5 52.15 -16.6 52.15 -16.5 52.55 -14.1 Q50.45 -10.4 50.45 -5.8 L50.35 -5.65 50.1 -4.15 50.05 1.0 49.2 1.05 Q48.8 10.55 49.3 20.25 L49.4 23.45 48.45 24.6 Q45.35 28.4 43.5 32.7 32.5 35.5 22.2 31.65 L15.65 24.6 14.3 23.15 Q1.4 9.15 -10.85 -5.35 -18.1 -6.3 -25.05 -4.3 -28.3 5.45 -33.3 14.7 L-33.4 15.45 -33.9 17.1 Q-37.35 19.95 -40.35 23.2 -69.1 25.95 -84.7 4.95 -95.55 2.35 -105.05 7.05 -97.65 41.0 -124.85 60.7 -125.6 62.9 -125.95 65.4 L-126.0 65.7 Q-124.55 67.4 -124.3 69.95 L-124.25 70.75 -123.35 71.55 -122.5 72.3 Q-121.6 80.05 -115.7 85.85 L-115.05 86.6 Q-107.35 118.85 -117.3 148.6 -119.55 155.35 -122.7 161.95 L-123.3 161.95 -124.05 163.55 -124.9 165.5 -125.8 168.45 -126.25 170.75 Q-127.9 182.65 -121.55 192.2 L-76.5 192.35 -74.9 192.35 -74.9 192.0 -76.5 190.5 -78.4 188.65 Q-92.55 192.25 -98.9 184.75 L-97.95 183.3 Q-97.65 183.0 -97.2 182.8 L-96.05 182.5 Q-90.25 181.7 -85.2 182.4 L-90.25 177.95 Q-97.75 179.85 -103.4 177.3 -105.95 177.65 -106.8 175.3 L-107.6 168.45 -107.8 165.5 -108.0 161.95 -107.75 161.95 -107.8 151.35 -107.7 149.75 -106.6 148.6 Q-96.75 138.35 -84.35 130.2 -82.3 127.2 -79.65 124.65 -70.15 104.35 -65.05 83.0 L-62.05 70.9 Q-61.95 70.5 -61.05 70.25 -52.45 81.1 -60.05 95.2 -33.55 115.3 1.65 118.75 9.4 114.7 20.3 114.6 L20.35 113.2 Q17.6 110.15 17.55 107.3 L17.5 107.2 Q16.35 102.95 20.4 102.0 L20.45 101.95 Q22.25 102.65 23.0 103.75 26.6 106.45 26.25 111.65 L26.35 111.7 Q27.35 121.0 27.45 130.7 27.5 135.65 26.05 140.25 18.15 142.35 11.6 142.35 L11.6 145.55 11.6 147.1 Q19.8 145.9 27.5 149.75 28.5 165.4 27.7 181.45 27.25 188.5 29.3 194.95 L29.9 195.35 Q50.25 195.6 70.65 195.5 75.1 192.8 77.05 188.95 68.05 190.7 62.4 186.5 62.35 186.05 62.45 185.7 63.15 182.75 66.45 182.4 L66.55 182.25 Q73.25 179.85 78.5 181.05 L78.2 178.7 Q77.7 176.0 77.7 173.3 72.45 168.85 65.05 173.0 63.2 173.6 62.95 175.35 L62.65 176.2 Q54.9 185.4 43.5 185.95 39.2 173.7 36.4 160.75 35.15 155.1 36.95 149.5 42.4 147.05 48.2 147.1 47.8 144.95 46.15 143.1 L45.55 142.35 Q41.0 140.6 36.7 138.65 36.15 135.1 36.3 131.5 L36.4 129.15 Q38.8 127.1 39.65 124.4 L39.95 123.6 Q53.2 112.95 67.7 105.1 72.3 105.15 71.35 108.75 L70.95 109.6 Q63.0 113.9 55.65 118.95 58.65 123.1 60.7 128.55 L61.2 129.4 61.2 131.0 61.2 131.5 Q66.35 131.6 70.4 134.1 L71.2 133.5 71.85 133.1 Q110.65 132.25 116.9 101.0 116.4 96.9 117.9 93.95 120.25 65.85 107.85 40.9 105.8 40.85 103.85 39.9 L102.95 40.3 Q99.2 39.0 96.7 36.1 92.9 31.4 92.1 27.0 90.95 26.4 91.2 25.05 L91.5 24.6 91.85 24.15 Q84.95 11.2 85.1 -3.4 L85.15 -4.4 87.65 -4.4 85.6 -5.1 87.4 -8.6 90.25 -13.3 87.0 -14.75 85.0 -18.8 85.35 -19.55 85.95 -21.05 85.2 -22.2 85.1 -22.4 84.7 -23.15 Q85.4 -28.0 89.5 -30.55 L91.0 -30.9 Q93.75 -29.15 92.2 -26.55 L91.85 -25.8 92.5 -23.85 92.85 -22.95 Q92.8 -21.7 92.35 -20.55 L92.15 -20.0 92.0 -18.95 108.35 -12.6 118.85 -8.25 Q120.0 -7.8 120.95 -6.75 L122.6 -9.5 124.25 -11.5 121.95 -14.3 108.8 -19.1 99.9 -22.45 Q99.05 -22.75 98.35 -23.3 L97.95 -24.3 Q97.15 -26.6 97.4 -28.95 L97.4 -29.0 97.5 -29.1 97.7 -30.3 98.15 -30.95 Q98.7 -31.65 99.55 -31.8 101.25 -33.4 103.9 -34.4 L105.1 -34.85 108.0 -35.1 108.1 -35.2 Q109.35 -34.3 109.75 -33.3 110.05 -32.4 109.6 -31.45 L108.75 -30.2 108.1 -29.55 Q105.95 -29.05 104.5 -27.65 L109.3 -26.55 Q122.6 -22.8 131.45 -13.0 133.85 -10.35 134.4 -7.4 134.45 -7.3 134.6 -7.3 139.05 -6.15 143.55 -5.15 L143.85 -5.85 145.7 -10.1 149.45 -18.45 150.75 -21.35 150.9 -21.8 150.8 -21.8 146.5 -22.3 Q136.25 -24.05 131.25 -30.9 L131.35 -31.75 132.65 -34.7 133.25 -35.35 134.35 -35.7 Q141.45 -36.95 147.4 -36.0 L151.4 -35.05 151.7 -34.95 Q151.85 -35.75 151.65 -35.8 L147.5 -37.65 124.55 -47.9 Q123.2 -48.55 124.1 -49.85 L124.55 -50.45 125.8 -51.1 127.05 -51.2 127.5 -53.1 Q126.4 -52.55 125.3 -52.15 119.9 -50.25 114.2 -51.6 L114.05 -52.0 113.4 -52.15 M70.15 -97.35 L71.1 -97.5 84.05 -97.95 100.35 -92.0 101.65 -91.3 101.95 -90.35 102.25 -90.2 104.45 -93.45 Q104.65 -93.85 105.1 -94.05 L106.25 -94.55 Q107.85 -95.2 109.3 -94.9 L124.55 -89.4 125.8 -88.65 126.55 -87.55 127.6 -85.25 127.8 -84.55 127.55 -83.8 Q126.75 -81.55 125.45 -79.45 L124.45 -78.25 133.25 -74.4 Q136.5 -72.85 138.6 -69.75 L138.6 -68.85 Q137.65 -64.25 136.25 -59.75 136.8 -58.1 135.1 -56.25 L135.05 -56.2 132.3 -49.45 147.9 -43.6 157.35 -39.95 Q157.95 -39.75 158.35 -39.15 L158.5 -38.2 Q157.75 -33.5 155.2 -29.25 L154.55 -28.6 154.15 -28.3 Q156.65 -27.05 157.85 -24.6 L157.8 -23.75 148.6 -1.4 148.25 -0.65 Q147.4 0.8 145.9 1.8 L145.8 1.85 144.75 1.9 141.55 1.6 Q138.95 1.15 136.65 0.35 133.05 -0.95 130.0 -3.3 L129.45 -4.3 128.0 -6.45 Q127.2 -3.6 124.95 -0.5 L124.75 -0.3 124.55 -0.1 124.25 -0.3 121.15 -2.3 114.55 -2.65 114.8 -3.2 107.95 -5.9 92.65 -12.3 91.7 -7.1 90.9 -3.6 90.95 -3.4 Q92.0 3.85 92.05 11.85 L92.2 12.6 Q95.5 18.1 99.2 23.45 101.1 23.95 103.0 24.6 109.05 26.65 114.35 29.85 L114.65 30.45 113.35 31.95 111.2 33.1 109.4 33.0 106.35 32.75 Q107.65 33.4 109.35 33.75 L110.65 35.9 Q119.25 37.75 123.85 43.75 L123.95 44.45 Q122.95 46.1 120.85 46.2 L119.45 46.25 115.45 44.8 117.75 49.95 118.1 49.85 Q118.9 50.1 119.75 50.5 120.5 50.85 121.2 51.3 123.25 54.0 124.95 56.8 L125.7 58.5 Q125.75 60.15 123.85 61.05 L122.2 61.75 121.4 61.45 121.55 61.85 122.85 68.8 Q126.45 73.4 127.95 79.7 128.1 80.05 127.75 80.55 126.35 81.7 124.95 82.0 L123.65 82.05 123.6 83.25 124.0 82.5 Q124.25 82.15 124.95 82.05 131.65 89.25 126.8 99.2 L126.35 99.65 124.55 99.85 Q124.25 101.95 123.25 104.3 L122.6 105.25 123.2 106.0 123.6 105.9 Q129.3 112.4 123.0 121.6 L122.2 122.3 Q117.6 123.15 117.4 119.35 117.45 116.55 118.2 114.0 L117.4 113.65 117.35 113.95 Q116.75 116.55 116.4 119.25 L116.4 119.35 Q104.25 136.65 84.9 138.05 87.55 145.8 86.1 155.55 L86.0 156.35 86.1 157.0 115.2 158.5 Q120.6 160.45 124.4 164.55 125.4 173.05 124.85 182.0 L124.65 183.55 Q119.55 188.45 112.55 190.7 96.0 192.6 83.2 189.1 82.4 193.0 80.1 196.5 76.1 199.6 71.1 199.85 49.05 201.0 26.95 200.75 19.15 185.7 21.45 167.35 22.2 161.1 22.2 154.8 13.6 155.65 6.0 151.35 5.45 147.45 5.6 143.45 L5.7 140.25 Q6.2 138.3 8.3 136.95 L9.2 136.25 21.05 134.4 Q21.05 128.2 20.7 122.05 12.05 125.4 5.6 122.4 L5.0 122.7 3.9 123.05 Q-26.5 122.45 -49.1 108.8 -48.35 109.9 -48.95 111.7 L-49.25 112.5 -51.05 114.1 -51.9 114.9 Q-56.35 140.8 -54.7 168.0 L-54.65 168.45 -54.9 168.45 -54.85 170.55 Q-40.7 168.15 -27.0 174.8 L-23.5 176.65 Q-21.25 182.6 -21.55 189.35 -21.6 190.55 -22.05 191.7 -41.2 198.35 -63.1 194.9 L-66.75 192.5 Q-66.55 194.0 -66.85 195.6 L-67.25 197.25 Q-68.45 197.9 -69.6 197.9 L-76.5 197.95 -122.05 196.4 Q-126.65 196.0 -129.05 192.15 -129.85 190.75 -131.3 189.85 -131.7 177.7 -131.1 165.5 L-130.95 161.95 -130.6 161.95 -130.2 156.45 Q-130.05 154.05 -127.8 152.4 L-125.9 148.6 -123.8 143.95 Q-127.2 144.75 -128.9 142.55 L-129.15 144.15 -129.55 145.0 Q-132.6 147.15 -136.05 144.75 -137.3 143.75 -137.8 142.4 L-138.4 141.6 -141.65 139.75 Q-146.05 121.85 -135.2 108.8 -132.65 87.1 -131.2 64.75 -131.55 62.45 -131.4 60.2 L-131.35 58.6 Q-120.5 51.05 -112.75 41.4 -110.25 24.85 -111.2 7.3 L-111.25 5.75 Q-100.95 -4.7 -84.35 -1.1 -73.1 7.05 -62.8 16.3 -54.1 19.55 -43.9 17.9 -42.05 15.9 -39.5 14.7 L-39.25 13.95 -38.9 12.35 -38.05 11.55 -37.15 10.75 -36.95 10.0 -36.8 8.35 -35.95 7.6 -34.75 6.8 Q-34.3 3.25 -34.5 -0.35 L-34.5 -1.95 Q-27.85 -12.0 -15.65 -11.6 L-8.8 -10.65 -6.5 -8.25 14.3 13.75 24.3 24.6 26.35 26.9 Q33.55 30.2 39.65 26.6 L41.25 24.6 Q43.8 20.85 43.5 16.3 L43.5 15.5 Q41.35 15.4 38.65 14.25 42.95 10.55 42.15 7.25 L42.9 6.8 43.2 -3.4 43.25 -4.4 46.55 -4.4 46.75 -5.1 Q45.7 -12.15 47.3 -18.3 L46.65 -18.5 48.45 -22.05 54.05 -32.05 54.45 -32.75 54.8 -32.9 61.0 -34.75 Q67.7 -48.05 74.8 -61.25 L72.9 -61.6 Q65.9 -63.65 59.2 -66.3 L58.75 -67.3 Q57.95 -69.95 56.2 -72.35 57.25 -77.35 59.35 -82.35 62.0 -88.7 65.75 -93.85 67.45 -96.1 70.15 -97.35 M77.1 -75.45 L78.35 -74.95 Q83.15 -72.85 87.3 -74.3 L87.9 -74.55 Q85.9 -75.8 86.75 -78.8 L87.2 -79.35 Q90.15 -81.25 94.55 -80.7 83.1 -84.05 85.8 -87.4 L86.5 -87.45 Q92.95 -85.7 97.95 -82.0 L98.85 -81.1 98.55 -80.4 97.75 -79.05 96.95 -77.7 96.35 -77.6 91.1 -77.85 90.55 -77.95 93.35 -75.45 93.05 -74.75 92.75 -74.05 92.4 -73.4 92.1 -72.65 91.4 -72.35 Q88.25 -71.85 85.4 -70.95 82.0 -70.2 78.0 -71.0 74.25 -71.7 72.95 -74.45 L73.35 -75.9 Q74.1 -79.75 77.65 -80.85 L78.2 -79.8 Q78.35 -77.9 77.4 -76.15 L77.1 -75.45 M132.2 -66.25 Q131.5 -68.4 130.35 -70.35 L123.75 -72.05 Q122.9 -70.75 121.3 -70.65 L120.05 -70.85 114.95 -72.0 Q113.4 -71.55 112.2 -70.8 109.6 -69.3 108.5 -66.5 L105.75 -59.85 Q108.35 -59.3 110.3 -57.9 110.8 -58.3 111.4 -58.4 L113.3 -58.25 113.35 -58.4 116.05 -57.8 118.0 -58.2 130.2 -60.85 131.2 -63.25 132.3 -65.45 132.2 -66.25 M123.7 -66.75 Q124.7 -65.4 124.15 -63.95 123.35 -62.1 122.15 -60.4 119.85 -59.55 117.55 -58.95 115.6 -58.45 113.75 -59.35 112.1 -60.05 111.6 -61.35 L111.35 -62.2 Q111.2 -63.7 111.8 -65.0 L112.1 -65.6 Q112.25 -67.2 113.35 -68.05 115.5 -69.75 118.15 -69.15 L122.35 -67.5 123.7 -66.75 M106.5 -85.5 L113.0 -83.0 120.1 -80.1 120.1 -80.15 120.25 -80.9 120.9 -83.15 120.9 -84.1 120.7 -84.45 116.75 -85.8 108.25 -87.75 107.55 -86.7 106.85 -86.2 105.9 -85.8 106.5 -85.5 M42.25 132.55 Q45.65 136.4 50.55 140.2 L50.55 137.05 50.55 135.5 54.4 130.7 Q50.8 125.85 52.5 121.1 48.95 123.55 45.55 126.25 L42.5 131.9 Q42.25 132.15 42.25 132.55 M55.45 141.25 Q60.5 141.8 65.5 142.9 66.05 143.0 66.55 143.45 L67.0 145.0 67.1 145.8 67.1 148.15 Q70.65 153.6 71.2 160.0 71.45 163.4 70.15 166.2 75.65 166.05 82.15 168.8 84.1 175.9 83.8 183.45 L84.1 183.7 84.5 184.0 110.8 184.9 Q113.45 183.4 116.3 182.15 112.5 179.6 109.35 176.2 99.85 176.7 92.3 174.25 L91.9 173.8 Q91.85 173.35 91.95 173.0 92.4 170.9 94.85 169.9 L96.05 169.6 Q109.9 168.7 119.2 176.3 119.45 171.5 117.85 166.95 L117.3 165.6 Q100.3 160.1 80.35 161.9 L79.6 138.1 72.55 137.4 Q71.8 138.75 70.05 138.9 63.25 138.8 58.75 135.3 56.6 138.0 55.45 141.25 M61.2 148.95 Q59.2 147.2 54.25 146.45 54.15 148.7 53.35 150.85 52.8 152.2 51.45 153.2 45.35 153.7 42.25 155.05 L46.15 171.65 Q46.9 175.1 47.3 178.85 50.3 178.65 53.8 175.9 58.45 169.0 65.0 167.0 L64.7 166.4 Q65.3 161.35 64.2 156.8 63.2 152.7 61.2 148.95 M-12.9 17.6 Q-6.85 23.05 -10.4 31.5 L-11.2 32.55 Q-15.0 34.05 -16.35 30.75 -18.5 22.05 -13.05 17.8 L-12.9 17.6 M-23.65 25.3 Q-23.25 24.9 -22.55 24.75 -16.05 29.6 -21.75 36.9 L-22.55 37.6 Q-26.25 38.5 -27.4 35.5 -27.8 29.35 -23.65 25.3 M-31.85 34.6 L-32.2 35.5 Q-36.25 39.7 -40.8 36.4 -42.0 34.25 -40.2 32.75 L-39.1 31.95 Q-39.25 27.4 -35.05 26.15 L-35.0 25.95 Q-29.6 28.7 -31.85 34.6 M-67.7 44.45 Q-68.7 46.05 -70.8 46.2 L-72.2 46.25 Q-87.8 40.45 -81.95 33.35 L-81.85 33.1 Q-72.8 36.5 -67.7 43.75 L-67.7 44.45 M-42.85 41.95 Q-42.55 42.2 -42.55 42.65 -44.45 45.9 -48.05 44.45 -61.65 39.5 -54.35 33.35 L-54.25 33.1 Q-47.75 36.8 -42.85 41.95 M-99.45 43.55 Q-98.2 36.65 -95.15 31.2 -94.95 30.85 -94.25 30.75 -87.65 37.6 -93.1 47.3 L-93.9 48.35 Q-99.55 52.0 -103.2 47.45 -103.8 45.1 -101.15 44.15 L-99.45 43.55 M-125.5 89.2 Q-126.45 97.4 -128.65 105.15 -127.55 106.45 -128.0 108.6 L-128.05 109.5 Q-127.55 111.1 -124.3 111.65 -123.8 111.7 -123.2 112.15 -121.75 117.35 -123.4 122.8 -123.75 123.8 -124.6 124.7 -126.05 126.35 -123.0 127.1 -122.4 127.2 -121.85 127.7 -120.95 132.0 -121.05 136.5 -112.5 108.95 -125.1 81.35 -125.05 85.15 -125.5 89.2 M-136.05 118.3 L-135.85 133.35 -135.45 134.7 Q-132.7 137.0 -130.45 139.45 -129.55 140.2 -129.15 141.1 -127.85 137.6 -128.3 133.65 -128.4 132.85 -128.75 132.15 -134.05 129.2 -132.3 122.55 L-132.15 121.7 Q-132.1 119.85 -129.95 118.75 L-129.4 118.15 Q-130.85 116.8 -133.3 115.7 -134.5 117.1 -136.05 118.3 M-76.65 180.65 L-77.3 179.55 -77.5 165.5 -77.45 161.95 -77.15 161.95 -76.75 148.6 Q-76.3 138.7 -75.3 128.9 -85.9 139.55 -98.4 148.6 L-101.5 150.8 Q-101.9 159.7 -101.6 168.45 L-101.85 168.45 -101.7 172.25 -88.2 172.7 Q-82.3 176.55 -77.15 181.1 L-76.5 181.7 -73.55 184.45 Q-73.25 183.8 -72.45 183.4 L-70.8 182.7 Q-65.6 186.2 -60.45 189.85 -44.85 192.35 -32.6 188.55 -36.4 188.4 -39.95 187.0 -42.0 186.2 -43.55 184.75 -50.6 186.6 -55.15 182.9 -55.65 182.5 -55.75 181.75 L-55.6 181.05 Q-54.75 179.55 -52.95 179.6 L-52.95 179.5 Q-38.95 179.2 -27.65 185.75 -27.65 183.25 -28.8 181.05 L-29.45 179.55 Q-45.25 177.0 -61.6 176.1 L-61.6 168.45 -61.6 165.5 -61.55 161.95 -61.25 161.95 Q-60.8 138.5 -58.25 115.65 L-58.1 113.3 Q-55.45 109.3 -51.65 107.35 L-51.6 107.2 Q-57.2 103.5 -62.25 99.05 -69.7 111.6 -73.0 125.0 -69.0 137.05 -69.35 151.85 -69.5 157.0 -69.9 161.95 L-70.25 161.95 -70.6 165.5 -70.9 168.45 Q-71.8 175.05 -73.15 181.4 -75.35 181.95 -76.5 180.8 L-76.65 180.65 M-51.6 107.2 L-51.5 107.25 -51.6 107.2" fill="#000000" fill-rule="evenodd" stroke="none"/>
    <path d="M123.7 -66.75 L122.35 -67.5 118.15 -69.15 Q115.5 -69.75 113.35 -68.05 112.25 -67.2 112.1 -65.6 L111.8 -65.0 Q111.2 -63.7 111.35 -62.2 L111.6 -61.35 Q112.1 -60.05 113.75 -59.35 115.6 -58.45 117.55 -58.95 119.85 -59.55 122.15 -60.4 123.35 -62.1 124.15 -63.95 124.7 -65.4 123.7 -66.75 M132.2 -66.25 L132.3 -65.45 131.2 -63.25 130.2 -60.85 118.0 -58.2 116.05 -57.8 113.35 -58.4 113.3 -58.25 111.4 -58.4 Q110.8 -58.3 110.3 -57.9 108.35 -59.3 105.75 -59.85 L108.5 -66.5 Q109.6 -69.3 112.2 -70.8 113.4 -71.55 114.95 -72.0 L120.05 -70.85 121.3 -70.65 Q122.9 -70.75 123.75 -72.05 L130.35 -70.35 Q131.5 -68.4 132.2 -66.25" fill="#ffffff" fill-rule="evenodd" stroke="none"/>
    <path d="M-134.6 -25.5 L-134.0 -26.65 -133.7 -26.75 -134.55 -25.4 Q-134.85 -25.0 -134.6 -25.5 L-135.3 -26.8 -135.4 -27.0 -134.6 -25.5 M-133.1 -27.0 L-132.9 -26.4 Q-131.7 -22.45 -132.95 -26.3 L-133.1 -26.75 -133.1 -27.0" fill="#663d25" fill-rule="evenodd" stroke="none"/>
    <path d="M52.4 -16.5 L53.8 -16.0 Q56.45 -19.5 61.1 -22.1 L63.1 -22.9 Q66.1 -18.7 61.8 -13.25 L85.5 -5.15 85.15 -4.4 57.0 -4.4 Q57.5 -1.65 56.25 0.45 56.0 2.4 55.25 4.55 L54.85 5.35 Q52.35 7.0 50.35 4.85 L50.05 1.0 50.1 -4.15 50.35 -5.65 50.45 -5.8 Q50.45 -10.4 52.55 -14.1 L52.15 -16.5 52.4 -16.5" fill="#ecc475" fill-rule="evenodd" stroke="none"/>
    <path d="M52.4 -16.5 L54.25 -20.0 59.2 -28.55 Q59.9 -28.75 60.35 -29.15 L61.9 -30.4 Q76.45 -43.25 77.2 -60.95 80.6 -60.9 83.75 -62.35 L85.85 -62.15 87.05 -62.05 Q88.7 -62.15 89.55 -63.45 L89.9 -64.2 Q89.15 -67.8 84.7 -68.15 L82.9 -68.3 Q78.9 -66.15 74.7 -67.2 69.5 -68.55 64.5 -70.4 63.85 -72.2 62.75 -73.85 62.6 -74.05 62.75 -74.35 L64.45 -78.05 65.8 -81.8 Q67.35 -86.25 70.3 -89.75 L72.05 -91.6 73.55 -91.75 Q84.8 -94.1 95.4 -88.1 95.0 -87.45 95.1 -86.5 L95.7 -85.85 96.7 -85.5 96.85 -84.75 Q97.8 -82.05 100.8 -82.7 105.6 -79.35 111.25 -76.7 109.1 -75.45 106.9 -74.35 L105.35 -73.25 100.95 -63.8 Q99.4 -60.45 98.45 -56.95 101.95 -51.75 110.3 -51.45 L110.95 -51.35 Q112.25 -51.2 113.35 -52.15 L113.4 -52.15 114.2 -51.6 Q119.9 -50.25 125.3 -52.15 L125.8 -51.1 124.55 -50.45 124.1 -49.85 Q123.2 -48.55 124.55 -47.9 L147.5 -37.65 151.65 -35.8 151.4 -35.05 147.4 -36.0 Q141.45 -36.95 134.35 -35.7 L133.25 -35.35 132.65 -34.7 131.35 -31.75 131.25 -30.9 Q136.25 -24.05 146.5 -22.3 L150.8 -21.8 150.75 -21.35 149.45 -18.45 145.7 -10.1 143.85 -5.85 143.55 -5.15 Q139.05 -6.15 134.6 -7.3 134.45 -7.3 134.4 -7.4 133.85 -10.35 131.45 -13.0 122.6 -22.8 109.3 -26.55 L104.5 -27.65 Q105.95 -29.05 108.1 -29.55 L108.75 -30.2 109.6 -31.45 Q110.05 -32.4 109.75 -33.3 109.35 -34.3 108.1 -35.2 L108.0 -35.1 105.1 -34.85 103.9 -34.4 Q101.25 -33.4 99.55 -31.8 98.7 -31.65 98.15 -30.95 L97.7 -30.3 97.5 -29.1 97.4 -29.0 97.4 -28.95 Q97.15 -26.6 97.95 -24.3 L98.35 -23.3 Q99.05 -22.75 99.9 -22.45 L108.8 -19.1 121.95 -14.3 124.25 -11.5 122.6 -9.5 120.95 -6.75 Q120.0 -7.8 118.85 -8.25 L108.35 -12.6 92.0 -18.95 92.15 -20.0 92.35 -20.55 Q92.8 -21.7 92.85 -22.95 L92.5 -23.85 91.85 -25.8 92.2 -26.55 Q93.75 -29.15 91.0 -30.9 L89.5 -30.55 Q85.4 -28.0 84.7 -23.15 L85.1 -22.4 85.2 -22.2 85.95 -21.05 85.35 -19.55 85.0 -18.8 87.0 -14.75 90.25 -13.3 87.4 -8.6 85.6 -5.1 85.5 -5.15 61.8 -13.25 Q66.1 -18.7 63.1 -22.9 L61.1 -22.1 Q56.45 -19.5 53.8 -16.0 L52.4 -16.5 M77.1 -75.45 L77.4 -76.15 Q78.35 -77.9 78.2 -79.8 L77.65 -80.85 Q74.1 -79.75 73.35 -75.9 L72.95 -74.45 Q74.25 -71.7 78.0 -71.0 82.0 -70.2 85.4 -70.95 88.25 -71.85 91.4 -72.35 L92.1 -72.65 92.4 -73.4 92.75 -74.05 93.05 -74.75 93.35 -75.45 90.55 -77.95 91.1 -77.85 96.35 -77.6 96.95 -77.7 97.75 -79.05 98.55 -80.4 98.85 -81.1 97.95 -82.0 Q92.95 -85.7 86.5 -87.45 L85.8 -87.4 Q83.1 -84.05 94.55 -80.7 90.15 -81.25 87.2 -79.35 L86.75 -78.8 Q85.9 -75.8 87.9 -74.55 L87.3 -74.3 Q83.15 -72.85 78.35 -74.95 L77.1 -75.45" fill="url(#gradient0)" fill-rule="evenodd" stroke="none"/>
    <path d="M106.85 -86.2 L107.55 -86.7 108.25 -87.75 116.75 -85.8 120.7 -84.45 120.9 -84.1 120.9 -83.15 120.25 -80.9 120.1 -80.15 120.1 -80.1 113.0 -83.0 106.5 -85.5 106.85 -86.2" fill="url(#gradient1)" fill-rule="evenodd" stroke="none"/>
    <path d="M50.05 1.0 L50.35 4.85 Q52.35 7.0 54.85 5.35 L55.25 4.55 Q56.0 2.4 56.25 0.45 57.5 -1.65 57.0 -4.4 L85.15 -4.4 85.1 -3.4 Q84.95 11.2 91.85 24.15 L91.5 24.6 91.2 25.05 Q90.95 26.4 92.1 27.0 92.9 31.4 96.7 36.1 99.2 39.0 102.95 40.3 L103.85 39.9 Q105.8 40.85 107.85 40.9 120.25 65.85 117.9 93.95 116.4 96.9 116.9 101.0 110.65 132.25 71.85 133.1 L71.2 133.5 70.4 134.1 Q66.35 131.6 61.2 131.5 L61.2 131.0 61.2 129.4 60.7 128.55 Q58.65 123.1 55.65 118.95 63.0 113.9 70.95 109.6 L71.35 108.75 Q72.3 105.15 67.7 105.1 53.2 112.95 39.95 123.6 L39.65 124.4 Q38.8 127.1 36.4 129.15 L36.3 131.5 Q36.15 135.1 36.7 138.65 41.0 140.6 45.55 142.35 L46.15 143.1 Q47.8 144.95 48.2 147.1 42.4 147.05 36.95 149.5 35.15 155.1 36.4 160.75 39.2 173.7 43.5 185.95 54.9 185.4 62.65 176.2 L62.95 175.35 Q63.2 173.6 65.05 173.0 72.45 168.85 77.7 173.3 77.7 176.0 78.2 178.7 L78.5 181.05 Q73.25 179.85 66.55 182.25 L66.45 182.4 Q63.15 182.75 62.45 185.7 62.35 186.05 62.4 186.5 68.05 190.7 77.05 188.95 75.1 192.8 70.65 195.5 50.25 195.6 29.9 195.35 L29.3 194.95 Q27.25 188.5 27.7 181.45 28.5 165.4 27.5 149.75 19.8 145.9 11.6 147.1 L11.6 145.55 11.6 142.35 Q18.15 142.35 26.05 140.25 27.5 135.65 27.45 130.7 27.35 121.0 26.35 111.7 L26.25 111.65 Q26.6 106.45 23.0 103.75 22.25 102.65 20.45 101.95 L20.4 102.0 Q16.35 102.95 17.5 107.2 L17.55 107.3 Q17.6 110.15 20.35 113.2 L20.3 114.6 Q9.4 114.7 1.65 118.75 -33.55 115.3 -60.05 95.2 -52.45 81.1 -61.05 70.25 -61.95 70.5 -62.05 70.9 L-65.05 83.0 Q-70.15 104.35 -79.65 124.65 -82.3 127.2 -84.35 130.2 -96.75 138.35 -106.6 148.6 L-107.7 149.75 -107.8 151.35 -107.75 161.95 -108.0 161.95 -122.7 161.95 Q-119.55 155.35 -117.3 148.6 -107.35 118.85 -115.05 86.6 L-115.7 85.85 Q-121.6 80.05 -122.5 72.3 L-123.35 71.55 -124.25 70.75 -124.3 69.95 Q-124.55 67.4 -126.0 65.7 L-125.95 65.4 Q-125.6 62.9 -124.85 60.7 -97.65 41.0 -105.05 7.05 -95.55 2.35 -84.7 4.95 -69.1 25.95 -40.35 23.2 -37.35 19.95 -33.9 17.1 L-33.4 15.45 -33.3 14.7 Q-28.3 5.45 -25.05 -4.3 -18.1 -6.3 -10.85 -5.35 1.4 9.15 14.3 23.15 L15.65 24.6 22.2 31.65 Q32.5 35.5 43.5 32.7 45.35 28.4 48.45 24.6 L49.4 23.45 49.3 20.25 Q48.8 10.55 49.2 1.05 L50.05 1.0 M-99.45 43.55 L-101.15 44.15 Q-103.8 45.1 -103.2 47.45 -99.55 52.0 -93.9 48.35 L-93.1 47.3 Q-87.65 37.6 -94.25 30.75 -94.95 30.85 -95.15 31.2 -98.2 36.65 -99.45 43.55 M-42.85 41.95 Q-47.75 36.8 -54.25 33.1 L-54.35 33.35 Q-61.65 39.5 -48.05 44.45 -44.45 45.9 -42.55 42.65 -42.55 42.2 -42.85 41.95 M-67.7 44.45 L-67.7 43.75 Q-72.8 36.5 -81.85 33.1 L-81.95 33.35 Q-87.8 40.45 -72.2 46.25 L-70.8 46.2 Q-68.7 46.05 -67.7 44.45 M-31.85 34.6 Q-29.6 28.7 -35.0 25.95 L-35.05 26.15 Q-39.25 27.4 -39.1 31.95 L-40.2 32.75 Q-42.0 34.25 -40.8 36.4 -36.25 39.7 -32.2 35.5 L-31.85 34.6 M-23.65 25.3 Q-27.8 29.35 -27.4 35.5 -26.25 38.5 -22.55 37.6 L-21.75 36.9 Q-16.05 29.6 -22.55 24.75 -23.25 24.9 -23.65 25.3 M-12.9 17.6 L-13.05 17.8 Q-18.5 22.05 -16.35 30.75 -15.0 34.05 -11.2 32.55 L-10.4 31.5 Q-6.85 23.05 -12.9 17.6" fill="url(#gradient2)" fill-rule="evenodd" stroke="none"/>
    <path d="M55.45 141.25 Q56.6 138.0 58.75 135.3 63.25 138.8 70.05 138.9 71.8 138.75 72.55 137.4 L79.6 138.1 80.35 161.9 Q100.3 160.1 117.3 165.6 L117.85 166.95 Q119.45 171.5 119.2 176.3 109.9 168.7 96.05 169.6 L94.85 169.9 Q92.4 170.9 91.95 173.0 91.85 173.35 91.9 173.8 L92.3 174.25 Q99.85 176.7 109.35 176.2 112.5 179.6 116.3 182.15 113.45 183.4 110.8 184.9 L84.5 184.0 84.1 183.7 83.8 183.45 Q84.1 175.9 82.15 168.8 75.65 166.05 70.15 166.2 71.45 163.4 71.2 160.0 70.65 153.6 67.1 148.15 L67.1 145.8 67.0 145.0 66.55 143.45 Q66.05 143.0 65.5 142.9 60.5 141.8 55.45 141.25" fill="url(#gradient3)" fill-rule="evenodd" stroke="none"/>
    <path d="M-122.7 161.95 L-108.0 161.95 -107.8 165.5 -107.6 168.45 -106.8 175.3 Q-105.95 177.65 -103.4 177.3 -97.75 179.85 -90.25 177.95 L-85.2 182.4 Q-90.25 181.7 -96.05 182.5 L-97.2 182.8 Q-97.65 183.0 -97.95 183.3 L-98.9 184.75 Q-92.55 192.25 -78.4 188.65 L-76.5 190.5 -74.9 192.0 -74.9 192.35 -76.5 192.35 -121.55 192.2 Q-127.9 182.65 -126.25 170.75 L-125.8 168.45 -124.9 165.5 -124.05 163.55 -123.3 161.95 -122.7 161.95" fill="url(#gradient4)" fill-rule="evenodd" stroke="none"/>
    <path d="M-69.9 161.95 Q-69.5 157.0 -69.35 151.85 -69.0 137.05 -73.0 125.0 -69.7 111.6 -62.25 99.05 -57.2 103.5 -51.6 107.2 L-51.65 107.35 Q-55.45 109.3 -58.1 113.3 L-58.25 115.65 Q-60.8 138.5 -61.25 161.95 L-61.55 161.95 -69.9 161.95" fill="url(#gradient5)" fill-rule="evenodd" stroke="none"/>
    <path d="M-77.15 181.1 L-76.65 180.65 -76.5 180.8 Q-75.35 181.95 -73.15 181.4 -71.8 175.05 -70.9 168.45 L-70.6 165.5 -70.25 161.95 -69.9 161.95 -61.55 161.95 -61.6 165.5 -61.6 168.45 -61.6 176.1 Q-45.25 177.0 -29.45 179.55 L-28.8 181.05 Q-27.65 183.25 -27.65 185.75 -38.95 179.2 -52.95 179.5 L-52.95 179.6 Q-54.75 179.55 -55.6 181.05 L-55.75 181.75 Q-55.65 182.5 -55.15 182.9 -50.6 186.6 -43.55 184.75 -42.0 186.2 -39.95 187.0 -36.4 188.4 -32.6 188.55 -44.85 192.35 -60.45 189.85 -65.6 186.2 -70.8 182.7 L-72.45 183.4 Q-73.25 183.8 -73.55 184.45 L-76.5 181.7 -77.15 181.1" fill="url(#gradient6)" fill-rule="evenodd" stroke="none"/>
  </g>
  <defs>
    <radialGradient cx="0" cy="0" gradientTransform="matrix(0.3051, 0.1052, -0.1172, 0.264, 72.4, 60.65)" gradientUnits="userSpaceOnUse" id="gradient0" r="819.2" spreadMethod="pad">
      <stop offset="0.0" stop-color="#ffcc66"/>
      <stop offset="1.0" stop-color="#acacac"/>
    </radialGradient>
    <radialGradient cx="0" cy="0" gradientTransform="matrix(0.0129, 0.0045, -0.005, 0.0112, 117.85, -84.9)" gradientUnits="userSpaceOnUse" id="gradient1" r="819.2" spreadMethod="pad">
      <stop offset="0.0" stop-color="#ffcc66"/>
      <stop offset="1.0" stop-color="#acacac"/>
    </radialGradient>
    <radialGradient cx="0" cy="0" gradientTransform="matrix(0.328, 0.0, 0.0, 0.2838, 100.15, 61.15)" gradientUnits="userSpaceOnUse" id="gradient2" r="819.2" spreadMethod="pad">
      <stop offset="0.0" stop-color="#ffcc66"/>
      <stop offset="1.0" stop-color="#acacac"/>
    </radialGradient>
    <radialGradient cx="0" cy="0" gradientTransform="matrix(0.0717, 0.0, 0.0, 0.062, 72.55, 148.25)" gradientUnits="userSpaceOnUse" id="gradient3" r="819.2" spreadMethod="pad">
      <stop offset="0.0" stop-color="#ffcc66"/>
      <stop offset="1.0" stop-color="#acacac"/>
    </radialGradient>
    <radialGradient cx="0" cy="0" gradientTransform="matrix(0.328, 0.0, 0.0, 0.2838, 99.85, 60.55)" gradientUnits="userSpaceOnUse" id="gradient4" r="819.2" spreadMethod="pad">
      <stop offset="0.0" stop-color="#ffcc66"/>
      <stop offset="1.0" stop-color="#acacac"/>
    </radialGradient>
    <radialGradient cx="0" cy="0" gradientTransform="matrix(0.0907, 0.0, 0.0, 0.0785, -61.2, 130.35)" gradientUnits="userSpaceOnUse" id="gradient5" r="819.2" spreadMethod="pad">
      <stop offset="0.0" stop-color="#ffcc66"/>
      <stop offset="1.0" stop-color="#acacac"/>
    </radialGradient>
    <radialGradient cx="0" cy="0" gradientTransform="matrix(0.0907, 0.0, 0.0, 0.0785, -61.45, 129.75)" gradientUnits="userSpaceOnUse" id="gradient6" r="819.2" spreadMethod="pad">
      <stop offset="0.0" stop-color="#ffcc66"/>
      <stop offset="1.0" stop-color="#acacac"/>
    </radialGradient>
  </defs>
</svg>
