<?xml version="1.0" encoding="UTF-8" standalone="no"?>
<svg xmlns:ffdec="https://www.free-decompiler.com/flash" xmlns:xlink="http://www.w3.org/1999/xlink" ffdec:objectType="shape" height="281.75px" width="216.15px" xmlns="http://www.w3.org/2000/svg">
  <g transform="matrix(1.0, 0.0, 0.0, 1.0, 27.9, -48.3)">
    <path d="M101.2 84.5 Q102.0 87.9 101.5 91.9 L101.65 92.1 101.65 92.15 101.7 92.05 Q105.2 86.7 111.8 84.2 L116.85 82.2 123.85 82.2 Q127.45 84.65 130.35 88.25 132.45 90.75 132.55 94.15 L133.1 94.7 Q151.2 85.3 159.55 66.8 161.15 63.2 162.4 59.3 L162.5 59.0 Q162.85 57.85 163.8 57.75 L164.85 58.25 Q165.3 53.55 167.1 49.4 L168.9 48.85 170.15 48.3 Q170.6 50.7 170.25 53.5 L170.25 54.25 Q172.4 54.15 174.5 52.5 L175.3 50.3 175.55 49.85 Q177.45 50.9 180.25 50.7 180.2 53.5 177.5 55.0 180.9 54.5 185.25 55.75 L185.0 60.25 184.75 61.0 Q185.05 61.5 188.25 62.75 L188.15 65.75 188.0 66.5 Q186.15 66.85 185.45 67.9 181.85 69.75 180.5 73.05 L179.25 72.75 175.4 77.2 176.0 79.0 176.15 79.8 176.05 80.4 Q158.45 99.85 135.75 112.05 137.35 129.0 139.25 146.05 139.7 150.2 139.1 154.15 L139.3 154.4 139.35 154.7 Q142.35 156.7 141.4 161.05 L141.3 161.8 145.05 167.15 Q152.3 195.35 153.45 225.15 153.5 226.7 153.05 228.2 141.1 235.0 127.6 231.5 127.15 229.6 127.3 227.65 L127.35 226.15 Q120.75 208.6 103.1 201.75 96.75 199.3 92.35 200.45 92.0 221.4 87.45 241.65 L87.45 241.0 87.15 240.25 Q86.2 238.4 83.95 238.25 L82.75 238.55 81.7 239.0 80.3 240.55 80.05 240.85 85.9 214.9 Q87.35 207.95 87.2 200.7 87.15 197.95 87.6 195.35 121.1 194.3 132.3 226.4 140.35 228.1 148.3 224.35 147.35 197.7 140.55 172.5 140.15 171.0 140.3 169.45 L136.3 164.1 Q135.85 160.45 136.85 157.4 L136.85 157.35 136.55 157.35 Q108.85 160.85 83.35 172.2 L48.0 172.55 Q49.0 209.05 42.15 244.5 L40.35 244.5 40.25 245.0 39.6 248.25 39.75 248.4 39.55 248.5 37.25 249.5 32.55 251.5 25.55 254.35 Q15.65 258.15 5.85 262.25 L5.5 262.3 5.55 262.45 26.95 291.0 Q43.7 285.1 60.2 278.55 L60.3 278.4 60.75 277.75 60.85 277.65 61.3 277.0 Q67.2 274.6 70.95 271.0 L71.05 271.4 Q68.85 273.65 67.6 276.5 64.3 279.2 60.3 281.45 L58.8 282.25 Q58.7 284.15 60.3 284.75 L61.3 285.0 Q62.3 285.0 63.1 284.6 L65.15 283.55 65.65 284.3 60.3 286.2 54.55 288.1 Q47.35 290.35 40.15 293.45 31.65 297.05 22.8 295.2 L19.0 290.1 15.3 292.65 7.45 298.1 Q6.65 298.6 6.55 299.75 11.75 309.8 17.3 319.7 L20.9 326.0 Q6.5 337.45 -9.2 316.6 L-10.95 314.1 -12.3 312.1 Q-22.35 296.9 -27.9 280.95 -23.0 277.1 -17.4 274.4 -10.1 270.8 -1.7 269.1 L3.0 268.3 -1.55 262.05 Q-2.75 260.35 -1.55 258.95 8.2 256.45 17.0 251.5 L17.4 251.3 18.65 250.5 Q26.75 247.75 34.6 244.5 L36.55 244.5 Q42.45 216.65 42.7 187.5 42.75 177.55 44.1 168.4 45.1 167.6 46.0 167.7 L50.15 147.65 Q49.65 147.15 49.35 146.3 L49.35 143.3 Q40.7 149.5 32.0 156.75 L32.0 156.0 31.7 156.0 30.45 157.05 23.7 163.0 23.95 163.3 22.0 168.25 22.0 169.25 18.9 174.0 18.5 173.4 18.35 173.55 18.1 175.35 17.15 175.65 17.0 174.7 16.25 176.1 15.45 177.1 14.95 178.15 Q12.3 181.1 11.0 184.55 10.2 185.6 9.75 186.9 9.05 186.95 8.75 187.8 L9.05 188.0 9.4 188.2 9.35 188.55 9.0 188.15 7.45 188.0 Q6.25 186.4 6.1 184.35 5.95 182.6 6.4 180.85 5.55 180.6 4.8 180.15 L3.15 178.75 Q1.8 171.6 5.35 164.7 L5.95 163.5 7.05 163.05 7.3 163.0 6.8 162.4 7.5 155.0 7.6 155.0 7.65 154.4 9.9 150.7 10.4 150.25 Q29.25 132.5 47.5 113.7 47.95 112.05 49.35 110.8 L49.35 106.6 Q56.65 96.55 68.85 93.4 L69.1 93.5 69.2 93.55 69.2 93.35 Q68.2 86.9 70.35 82.55 L70.4 82.95 Q70.9 85.0 72.35 86.75 L74.6 87.8 Q74.8 91.15 73.6 95.05 L73.4 95.5 Q75.05 96.5 75.85 99.5 88.4 101.85 96.45 94.25 96.0 91.2 96.15 88.4 L98.1 87.8 99.05 86.95 99.85 86.3 Q100.95 85.45 101.2 84.5 M166.9 60.3 Q169.05 63.45 170.85 66.8 172.85 70.6 174.45 74.55 176.9 68.45 184.0 64.75 L177.3 63.7 176.75 63.25 Q180.2 60.95 182.75 58.0 177.4 59.5 173.75 56.5 170.15 57.6 167.25 59.75 L166.9 60.3 M165.7 68.75 L165.05 67.95 164.9 68.35 162.4 73.05 Q159.05 78.85 154.8 83.65 L155.15 84.05 155.65 84.8 Q156.4 88.15 156.5 91.6 163.7 86.55 169.65 79.8 L171.3 77.85 165.7 68.75 M97.35 81.7 Q97.7 80.6 98.2 79.55 98.35 79.2 98.85 79.15 99.8 80.5 100.4 82.0 98.85 80.65 97.35 81.7 M122.1 87.7 L116.1 88.55 Q115.9 89.5 115.05 89.9 L114.5 89.85 111.4 91.15 Q109.45 91.9 107.6 92.85 L107.45 93.25 103.85 95.35 Q102.55 95.2 101.95 94.55 101.6 96.0 100.2 97.8 99.95 98.05 99.85 98.45 89.3 109.75 73.35 105.1 70.1 102.65 69.6 99.1 60.15 100.85 54.35 108.4 54.35 121.8 54.9 135.25 L55.8 135.4 Q55.7 137.25 56.2 138.55 L55.05 139.35 Q55.05 143.4 53.6 146.65 55.7 155.25 52.1 166.1 L51.85 166.9 52.1 166.9 81.85 167.15 Q107.55 155.25 134.35 154.1 132.0 131.65 130.4 108.95 L129.3 98.2 128.75 97.55 Q127.05 96.3 127.3 94.4 L127.35 93.65 127.15 93.0 Q125.2 90.45 122.85 88.3 L122.35 87.8 Q122.2 87.6 122.1 87.7 M151.95 95.3 Q149.75 89.75 150.1 85.7 148.75 87.55 148.45 89.75 142.2 94.85 134.45 98.3 L135.35 108.15 Q143.5 103.4 149.9 96.5 150.85 97.7 152.7 97.25 L152.85 96.75 151.95 95.3 M42.3 142.4 L49.35 137.75 49.35 118.15 Q48.15 121.8 43.05 125.95 L36.9 131.25 Q35.95 130.5 34.85 130.0 34.35 130.25 33.8 130.9 33.05 131.8 32.8 132.7 37.6 137.9 39.35 145.0 L39.85 145.05 Q41.65 145.15 42.1 143.5 L42.3 142.4 M25.9 142.75 Q21.35 148.2 16.2 152.85 L16.0 152.45 Q15.05 154.55 12.75 155.8 L12.7 156.0 11.7 160.4 15.0 164.1 15.75 164.95 17.8 167.2 18.75 160.55 Q21.75 158.2 24.0 155.0 L24.6 155.0 34.9 147.5 Q30.55 141.95 30.85 137.25 L25.9 142.75 M8.3 164.2 Q4.75 169.5 6.05 175.95 L6.35 175.9 Q7.35 173.0 9.5 174.75 L10.1 175.25 Q9.15 178.85 8.6 182.6 L8.35 183.8 9.0 183.6 9.05 183.95 9.05 184.2 Q10.4 180.95 12.6 178.0 L12.55 176.95 Q12.55 175.4 13.15 174.5 14.85 173.55 16.65 172.9 13.1 170.35 10.1 166.5 L8.3 164.2 M16.0 175.6 L16.0 175.65 16.05 175.5 16.0 175.6 M6.65 273.3 L5.85 273.65 5.45 273.8 2.35 274.7 0.25 275.05 -0.15 275.35 -0.6 276.0 Q-1.55 282.45 -1.3 289.1 L1.9 295.65 12.05 288.1 14.45 286.25 15.15 285.7 15.55 285.4 16.0 285.0 16.05 284.95 16.9 284.55 8.1 272.4 7.3 272.95 7.25 272.95 6.65 273.3 M6.4 309.9 L6.45 310.9 2.25 310.85 Q1.35 310.85 0.45 311.55 -0.7 312.7 -1.45 311.4 -1.75 310.8 -1.6 309.95 0.0 308.8 1.7 307.8 L2.15 307.55 Q3.95 306.55 5.35 307.7 L5.9 308.7 5.45 307.65 4.1 304.15 2.3 298.45 Q-2.6 297.4 -3.95 290.1 -4.95 281.9 -2.35 275.3 -8.95 275.95 -14.4 278.5 -19.05 280.65 -22.85 284.1 -15.15 303.45 -1.6 320.9 7.65 327.0 14.75 324.3 10.45 318.25 7.35 311.85 L6.4 309.9 6.25 309.45 6.4 309.9 M4.5 305.25 Q3.25 306.55 1.5 307.45 -0.25 308.4 -2.45 308.95 L-3.05 308.85 Q-2.55 303.4 4.2 304.95 L4.5 305.25 M6.95 312.05 Q5.6 314.6 2.5 316.1 L1.8 316.4 Q0.75 311.6 6.7 311.85 L6.95 312.05" fill="#000000" fill-rule="evenodd" stroke="none"/>
    <path d="M101.2 84.5 Q100.95 85.45 99.85 86.3 L99.05 86.95 98.1 87.8 96.15 88.4 Q96.0 91.2 96.45 94.25 88.4 101.85 75.85 99.5 75.05 96.5 73.4 95.5 L73.6 95.05 Q74.8 91.15 74.6 87.8 L72.35 86.75 Q70.9 85.0 70.4 82.95 L70.35 82.55 70.3 82.2 Q70.25 79.4 72.85 79.15 75.15 80.25 76.75 80.6 86.35 82.7 96.35 82.7 L97.35 81.7 Q98.85 80.65 100.4 82.0 L100.85 82.45 Q101.45 83.5 101.2 84.5 M9.75 186.9 Q10.2 185.6 11.0 184.55 12.3 181.1 14.95 178.15 L15.45 177.1 15.75 177.2 Q14.3 180.6 13.9 184.35 L10.65 187.1 9.75 186.9 M17.15 175.65 L18.1 175.35 Q17.65 178.6 17.9 182.1 L16.6 183.45 16.55 183.4 15.8 183.3 Q17.5 178.85 17.15 175.65 M166.9 60.3 L167.25 59.75 Q170.15 57.6 173.75 56.5 177.4 59.5 182.75 58.0 180.2 60.95 176.75 63.25 L177.3 63.7 184.0 64.75 Q176.9 68.45 174.45 74.55 172.85 70.6 170.85 66.8 169.05 63.45 166.9 60.3 M164.9 68.35 L165.7 68.75 171.3 77.85 169.65 79.8 Q163.7 86.55 156.5 91.6 156.4 88.15 155.65 84.8 L155.15 84.05 154.8 83.65 Q159.05 78.85 162.4 73.05 L164.9 68.35 M8.3 164.2 L10.1 166.5 Q13.1 170.35 16.65 172.9 14.85 173.55 13.15 174.5 12.55 175.4 12.55 176.95 L12.6 178.0 Q10.4 180.95 9.05 184.2 L9.05 183.95 9.0 183.6 8.35 183.8 8.6 182.6 Q9.15 178.85 10.1 175.25 L9.5 174.75 Q7.35 173.0 6.35 175.9 L6.05 175.95 Q4.75 169.5 8.3 164.2 M25.9 142.75 L30.85 137.25 Q30.55 141.95 34.9 147.5 L24.6 155.0 24.0 155.0 Q21.75 158.2 18.75 160.55 L17.8 167.2 15.75 164.95 15.0 164.1 11.7 160.4 12.7 156.0 12.75 155.8 Q15.05 154.55 16.0 152.45 L16.2 152.85 Q21.35 148.2 25.9 142.75 M6.65 273.3 L7.25 272.95 7.3 272.95 8.1 272.4 16.9 284.55 16.05 284.95 16.0 285.0 15.55 285.4 15.15 285.7 14.45 286.25 12.05 288.1 1.9 295.65 -1.3 289.1 Q-1.55 282.45 -0.6 276.0 L-0.15 275.35 0.25 275.05 2.35 274.7 5.45 273.8 5.85 273.65 6.65 273.3" fill="#663d25" fill-rule="evenodd" stroke="none"/>
    <path d="M52.1 166.1 Q55.7 155.25 53.6 146.65 55.05 143.4 55.05 139.35 L56.2 138.55 Q55.7 137.25 55.8 135.4 L54.9 135.25 Q54.35 121.8 54.35 108.4 60.15 100.85 69.6 99.1 70.1 102.65 73.35 105.1 89.3 109.75 99.85 98.45 99.95 98.05 100.2 97.8 101.6 96.0 101.95 94.55 102.55 95.2 103.85 95.35 L107.45 93.25 107.6 92.85 Q109.45 91.9 111.4 91.15 L114.5 89.85 115.05 89.9 Q115.9 89.5 116.1 88.55 L122.1 87.7 122.85 88.3 Q125.2 90.45 127.15 93.0 L127.35 93.65 127.3 94.4 Q127.05 96.3 128.75 97.55 L129.3 98.2 130.4 108.95 Q132.0 131.65 134.35 154.1 107.55 155.25 81.85 167.15 L52.1 166.9 52.1 166.1 M42.3 142.4 L42.1 143.5 Q41.65 145.15 39.85 145.05 L39.35 145.0 Q37.6 137.9 32.8 132.7 33.05 131.8 33.8 130.9 34.35 130.25 34.85 130.0 35.95 130.5 36.9 131.25 L43.05 125.95 Q48.15 121.8 49.35 118.15 L49.35 137.75 42.3 142.4 M151.95 95.3 L152.85 96.75 152.7 97.25 Q150.85 97.7 149.9 96.5 143.5 103.4 135.35 108.15 L134.45 98.3 Q142.2 94.85 148.45 89.75 148.75 87.55 150.1 85.7 149.75 89.75 151.95 95.3" fill="#cc3333" fill-rule="evenodd" stroke="none"/>
    <path d="M70.95 271.0 Q67.2 274.6 61.3 277.0 L60.7 277.45 60.85 277.65 60.75 277.75 60.3 278.4 60.2 278.55 Q43.7 285.1 26.95 291.0 L5.55 262.45 5.85 262.25 Q15.65 258.15 25.55 254.35 L32.55 251.5 37.25 249.5 39.55 248.5 39.75 248.4 39.6 248.25 40.25 245.0 40.35 244.5 42.15 244.5 Q49.0 209.05 48.0 172.55 L83.35 172.2 Q108.85 160.85 136.55 157.35 L136.85 157.4 Q135.85 160.45 136.3 164.1 L140.3 169.45 Q140.15 171.0 140.55 172.5 147.35 197.7 148.3 224.35 140.35 228.1 132.3 226.4 121.1 194.3 87.6 195.35 87.15 197.95 87.2 200.7 87.35 207.95 85.9 214.9 L80.05 240.85 79.2 242.0 79.1 244.2 79.0 245.0 Q77.7 255.65 77.95 266.75 73.85 268.55 71.15 271.3 L70.95 271.0" fill="#0000cc" fill-rule="evenodd" stroke="none"/>
    <path d="M9.4 188.2 L9.05 188.0 8.75 187.8 Q9.05 186.95 9.75 186.9 L10.65 187.1 13.9 184.35 Q14.3 180.6 15.75 177.2 L16.25 176.1 17.0 174.7 17.15 175.65 Q17.5 178.85 15.8 183.3 L16.55 183.4 16.6 183.45 17.9 182.1 Q17.65 178.6 18.1 175.35 L18.35 173.55 18.5 173.4 18.9 174.0 Q20.05 176.15 19.5 179.8 L19.55 180.15 Q18.95 181.4 19.45 182.55 17.65 186.35 15.75 184.35 L15.5 183.95 15.4 184.2 15.1 184.95 11.2 188.65 9.4 188.2" fill="#060302" fill-rule="evenodd" stroke="none"/>
    <path d="M5.35 307.7 L5.45 307.65 5.9 308.7 5.35 307.7 M6.4 309.9 L6.25 309.45 6.4 309.9" fill="#ffffff" fill-rule="evenodd" stroke="none"/>
    <path d="M5.35 307.7 Q3.95 306.55 2.15 307.55 L1.7 307.8 Q0.0 308.8 -1.6 309.95 -1.75 310.8 -1.45 311.4 -0.7 312.7 0.45 311.55 1.35 310.85 2.25 310.85 L6.45 310.9 6.4 309.9 7.35 311.85 Q10.45 318.25 14.75 324.3 7.65 327.0 -1.6 320.9 -15.15 303.45 -22.85 284.1 -19.05 280.65 -14.4 278.5 -8.95 275.95 -2.35 275.3 -4.95 281.9 -3.95 290.1 -2.6 297.4 2.3 298.45 L4.1 304.15 5.45 307.65 5.35 307.7 M4.5 305.25 L4.2 304.95 Q-2.55 303.4 -3.05 308.85 L-2.45 308.95 Q-0.25 308.4 1.5 307.45 3.25 306.55 4.5 305.25 M6.95 312.05 L6.7 311.85 Q0.75 311.6 1.8 316.4 L2.5 316.1 Q5.6 314.6 6.95 312.05" fill="#000033" fill-rule="evenodd" stroke="none"/>
    <path d="M65.15 283.55 L63.1 284.6 Q62.3 285.0 61.3 285.0 L60.3 284.75 Q58.7 284.15 58.8 282.25 L60.3 281.45 Q64.3 279.2 67.6 276.5 68.85 273.65 71.05 271.4 L71.15 271.3 Q73.85 268.55 77.95 266.75 77.7 255.65 79.0 245.0 L79.1 244.2 79.2 242.0 80.05 240.85 80.3 240.55 81.7 239.0 82.75 238.55 83.95 238.25 Q86.2 238.4 87.15 240.25 L87.45 241.0 87.45 241.65 Q87.15 258.7 80.6 273.4 79.85 275.1 78.15 276.7 74.6 279.95 70.6 280.25 L65.15 283.55" fill="#000003" fill-rule="evenodd" stroke="none"/>
  </g>
</svg>
