<?xml version="1.0" encoding="UTF-8" standalone="no"?>
<svg xmlns:ffdec="https://www.free-decompiler.com/flash" xmlns:xlink="http://www.w3.org/1999/xlink" ffdec:objectType="shape" height="381.2px" width="583.15px" xmlns="http://www.w3.org/2000/svg">
  <g transform="matrix(1.0, 0.0, 0.0, 1.0, -8.4, -9.35)">
    <path d="M579.95 10.95 Q584.1 10.95 587.0 14.0 589.95 17.1 589.95 21.45 L589.95 378.45 Q589.95 382.8 587.0 385.85 584.1 388.9 579.95 388.95 L20.0 388.95 Q15.85 388.9 12.9 385.85 10.0 382.8 10.0 378.45 L10.0 21.45 Q10.0 17.1 12.9 14.0 15.85 10.95 20.0 10.95 L579.95 10.95 M571.05 22.8 L569.95 22.4 568.5 22.05 566.95 21.95 31.0 21.95 29.45 22.05 28.0 22.4 26.9 22.8 Q25.25 23.5 23.9 24.85 21.0 27.8 21.0 31.95 L21.0 366.5 Q21.0 370.8 23.9 373.85 26.85 376.95 31.0 376.95 L566.95 376.95 Q571.1 376.95 574.0 373.85 576.95 370.8 576.95 366.5 L576.95 32.2 576.95 31.95 Q576.95 27.8 574.0 24.85 572.65 23.5 571.05 22.8" fill="#0066ff" fill-rule="evenodd" stroke="none"/>
    <path d="M26.9 22.8 L28.0 22.4 29.45 22.05 31.0 21.95 566.95 21.95 568.5 22.05 569.95 22.4 571.05 22.8 Q572.65 23.55 574.0 25.0 576.85 28.0 576.95 32.2 L576.95 366.5 Q576.95 370.8 574.0 373.85 571.1 376.95 566.95 376.95 L31.0 376.95 Q26.85 376.95 23.9 373.85 21.0 370.8 21.0 366.5 L21.0 31.95 Q21.15 27.9 23.9 25.0 25.25 23.55 26.9 22.8 M555.4 32.2 L553.3 31.95 47.45 31.95 45.3 32.2 39.95 35.25 Q37.0 38.45 36.9 42.9 L36.9 350.7 36.9 350.75 38.6 356.9 39.25 357.8 39.95 358.65 40.7 359.35 46.9 361.95 47.3 362.0 47.45 362.0 553.3 362.0 553.4 362.0 553.55 362.0 553.65 362.0 553.8 362.0 553.9 362.0 554.05 362.0 560.0 359.35 560.75 358.65 561.45 357.8 562.1 356.9 563.85 350.75 563.85 350.7 563.85 42.9 Q563.7 38.45 560.75 35.25 L555.4 32.2" fill="#990000" fill-rule="evenodd" stroke="none"/>
    <path d="M45.3 32.2 L47.45 32.0 553.3 32.0 555.4 32.2 560.75 35.25 Q563.7 38.45 563.85 42.9 L563.85 350.7 562.1 356.9 561.45 357.8 560.75 358.65 560.0 359.35 554.05 362.0 553.9 362.0 553.8 362.0 553.65 362.0 553.55 362.0 553.4 362.0 553.3 362.0 47.45 362.0 47.3 362.0 46.9 361.95 40.7 359.35 39.95 358.65 39.25 357.8 38.6 356.9 36.9 350.7 36.9 42.9 Q37.0 38.45 39.95 35.25 L45.3 32.2" fill="url(#gradient0)" fill-rule="evenodd" stroke="none"/>
    <path d="M579.95 10.95 L20.0 10.95 Q15.85 10.95 12.9 14.0 10.0 17.1 10.0 21.45 L10.0 378.45 Q10.0 382.8 12.9 385.85 15.85 388.9 20.0 388.95 L579.95 388.95 Q584.1 388.9 587.0 385.85 589.95 382.8 589.95 378.45 L589.95 21.45 Q589.95 17.1 587.0 14.0 584.1 10.95 579.95 10.95 Z" fill="none" stroke="#333333" stroke-linecap="round" stroke-linejoin="round" stroke-width="3.25"/>
  </g>
  <defs>
    <linearGradient gradientTransform="matrix(0.3216, 0.0, 0.0, 0.2014, 300.35, 196.95)" gradientUnits="userSpaceOnUse" id="gradient0" spreadMethod="pad" x1="-819.2" x2="819.2">
      <stop offset="0.0" stop-color="#e5e589"/>
      <stop offset="1.0" stop-color="#f1f101"/>
      <stop offset="1.0" stop-color="#666666"/>
    </linearGradient>
  </defs>
</svg>
